<?xml version="1.0" encoding="utf-8"?>
<!-- Generator: Adobe Illustrator 27.0.0, SVG Export Plug-In . SVG Version: 6.00 Build 0)  -->
<svg version="1.1" id="Layer_1" xmlns="http://www.w3.org/2000/svg" xmlns:xlink="http://www.w3.org/1999/xlink" x="0px" y="0px"
	 viewBox="0 0 441 432" style="enable-background:new 0 0 441 432;" xml:space="preserve">
<style type="text/css">
	.st0{fill:url(#SVGID_1_);}
	.st1{fill:url(#SVGID_00000016064908010803390440000000922419443422146201_);}
	.st2{fill:url(#SVGID_00000178914111395869278000000016216933470284894606_);}
	.st3{fill:url(#SVGID_00000023253389835726974050000001680908930167229573_);}
	.st4{fill:url(#SVGID_00000028317503254638515710000000939551789824085133_);}
	.st5{fill:url(#SVGID_00000135655647809100066830000008559190755533261490_);}
	.st6{fill:url(#SVGID_00000163788867784364477010000013740801213641174699_);}
	.st7{fill:url(#SVGID_00000152985892124630716710000008946859549582214810_);}
	.st8{fill:url(#SVGID_00000016794028425957951990000009195717298292396207_);}
	.st9{fill:url(#SVGID_00000156553245456376320700000018131125105860622268_);}
	.st10{fill:url(#SVGID_00000125591766826706473970000006108453019232075187_);}
	.st11{fill:url(#SVGID_00000162345290901163418140000016219670209699463580_);}
	.st12{fill:url(#SVGID_00000047020739570913521860000008136998349911122341_);}
	.st13{fill:url(#SVGID_00000146476552457697125780000004767328079733388462_);}
	.st14{fill:url(#SVGID_00000032622051456755732060000001005955679298614716_);}
	.st15{fill:url(#SVGID_00000069373064009097132310000018262186061177962926_);}
	.st16{fill:url(#SVGID_00000031181416662435047790000017828861932969375386_);}
	.st17{fill:url(#SVGID_00000156565842487461580590000014770979045752589742_);}
	.st18{fill:url(#SVGID_00000127033640931480307590000002299054650179399095_);}
	.st19{fill:url(#SVGID_00000111911942910728469090000016580899930649575308_);}
	.st20{fill:url(#SVGID_00000178199707938204752730000009121099300924604584_);}
	.st21{fill:url(#SVGID_00000014608126631322014800000006838452602268598663_);}
	.st22{fill:#FFFFFF;}
	.st23{fill:url(#SVGID_00000095296591286097932740000010371464901448231564_);}
	.st24{fill:url(#SVGID_00000165948813844473466980000003099705190519440564_);}
	.st25{fill:url(#SVGID_00000008837960391083142150000004969707042771992970_);}
	.st26{fill:url(#SVGID_00000155130391021547726490000008255138101076126138_);}
	.st27{fill:url(#SVGID_00000007392224353699435990000001855297337141697955_);}
	.st28{fill:url(#SVGID_00000011032280175643462380000012915413364086873482_);}
	.st29{fill:url(#SVGID_00000151522887993785064370000000221746619235143819_);}
	.st30{fill:url(#SVGID_00000106143286167884916720000016715822972556347295_);}
	.st31{fill:url(#SVGID_00000182529079512225767460000007148491292377895330_);}
	.st32{fill:url(#SVGID_00000021828434255805193030000007802302477146315192_);}
	.st33{fill:url(#SVGID_00000159443897620846829680000014629961181322277300_);}
	.st34{fill:url(#SVGID_00000080166751772463388850000016137360565427189122_);}
	.st35{fill:url(#SVGID_00000028289460258174695270000016703900145332908726_);}
	.st36{fill:url(#SVGID_00000053541854755115318630000002950076269257541818_);}
	.st37{fill:url(#SVGID_00000011033557328398231470000013325461647592137136_);}
	.st38{fill:url(#SVGID_00000080886201713478741040000002276338133906181822_);}
	.st39{fill:url(#SVGID_00000003096070470055883870000014040332126650731155_);}
	.st40{fill:url(#SVGID_00000080190216291973624620000006561978774478398621_);}
	.st41{fill:url(#SVGID_00000019669684168448168700000016381401694053130682_);}
	.st42{fill:url(#SVGID_00000039116616875782846580000009361994557959305361_);}
	.st43{fill:url(#SVGID_00000177466453417921187730000018219605326052582821_);}
	.st44{fill:url(#SVGID_00000183934086765377364690000009050833920084820109_);}
</style>
<g>
	<g>
		<linearGradient id="SVGID_1_" gradientUnits="userSpaceOnUse" x1="299.6143" y1="-223.3022" x2="378.6947" y2="-223.3022">
			<stop  offset="0.0955" style="stop-color:#CE8A2D"/>
			<stop  offset="0.0981" style="stop-color:#CE8B2E"/>
			<stop  offset="0.3064" style="stop-color:#E2B65A"/>
			<stop  offset="0.4678" style="stop-color:#EED176"/>
			<stop  offset="0.5618" style="stop-color:#F3DB80"/>
			<stop  offset="0.9326" style="stop-color:#BB8532"/>
		</linearGradient>
		<path class="st0" d="M357.89-198.44c0.11-5.27,0.4-10.88,1.01-16.11c1.99-17.08,5.56-24.3,5.56-24.3
			c-3.52,3.84-8.13,6.33-8.13,6.33c-3.75,5.55-8.61,12.36-11.82,21.53c-0.67,1.9-1.26,3.81-1.79,5.71
			c-5.99-2.11-12.04-3.41-17.91-3.39c-6.97,0.03-11.63,1.31-14.68,2.79c6.04-16.86,38.91-13.79,50.88-41.56
			c5.91-13.72-1.33-24.22-1.33-24.22c-1.93,14.95-26.82,26.95-41.63,39.32c-17.23,14.4-20.29,32.82-17.54,45.44
			c3.16-3.53,9.49-6.46,18.4-7.31c6.67-0.63,13.76,1.35,20.78,3.63c-0.88,6.42-1.1,11.96-1.02,15.6c0,0,9.33-2.08,19.64-1.36
			c0,0-0.24-3.64-0.38-9.11c1.28,0.19,2.54,0.31,3.78,0.34c6.38,0.18,12.35-1.3,16.99-8.02
			C372.47-190.96,365.39-194.56,357.89-198.44z"/>
		
			<linearGradient id="SVGID_00000143589200895633225320000012344488312026495663_" gradientUnits="userSpaceOnUse" x1="339.5978" y1="-161.3646" x2="339.5978" y2="-271.6453">
			<stop  offset="0.0955" style="stop-color:#946338"/>
			<stop  offset="0.3015" style="stop-color:#BF8D45"/>
			<stop  offset="0.466" style="stop-color:#DBA84D"/>
			<stop  offset="0.5618" style="stop-color:#E5B250"/>
			<stop  offset="0.9326" style="stop-color:#946338"/>
		</linearGradient>
		<path style="fill:url(#SVGID_00000143589200895633225320000012344488312026495663_);" d="M326.22-227.95
			c10.02-7.23,23.77-14.68,29.25-21.73c4.44-5.71,6.05-16.11,4.2-21.97c0,0,7.24,10.5,1.33,24.22
			c-11.97,27.76-44.83,24.7-50.88,41.56C311.51-211.17,316.14-220.68,326.22-227.95z M348.76-195.08
			c5.31,2.28,10.05,4.35,13.82,4.83c7.97,1.02,12.26-0.15,16.11-2.87c-6.23,2.15-13.3-1.45-20.81-5.33
			c0.11-5.27,0.4-10.88,1.01-16.11c1.99-17.08,5.56-24.3,5.56-24.3c-1.37,1.49-2.9,2.77-4.26,3.79
			c-3.81,8.85-8.71,24.37-10.53,34.04C349.29-199.01,348.99-197.02,348.76-195.08z M348.76-195.08c-8.53-3.66-18.53-7.85-28.36-6.85
			c-15.29,1.56-19.9,10.42-19.9,15.04c3.16-3.53,9.49-6.46,18.4-7.31c6.67-0.63,13.76,1.35,20.78,3.63
			c-0.88,6.42-1.1,11.96-1.02,15.6c0,0,3.88-0.87,9.4-1.29C347.92-179.58,347.77-186.89,348.76-195.08z"/>
		<g>
			
				<linearGradient id="SVGID_00000071551626902876841980000001646265389692346797_" gradientUnits="userSpaceOnUse" x1="353.9607" y1="-176.2461" x2="353.9607" y2="-235.2945">
				<stop  offset="0.0955" style="stop-color:#E5B250"/>
				<stop  offset="0.277" style="stop-color:#F1D272"/>
				<stop  offset="0.457" style="stop-color:#FBEC8E"/>
				<stop  offset="0.5618" style="stop-color:#FFF698"/>
				<stop  offset="0.9326" style="stop-color:#E5B250"/>
			</linearGradient>
			<path style="fill:url(#SVGID_00000071551626902876841980000001646265389692346797_);" d="M348.06-176.25
				c-0.43-5.03-0.45-10.11-0.1-15.16c0.16-2.53,0.45-5.05,0.83-7.56c0.38-2.51,0.92-4.99,1.51-7.46c0.61-2.46,1.27-4.9,1.98-7.33
				c0.73-2.42,1.48-4.84,2.31-7.23c0.81-2.39,1.69-4.77,2.61-7.12c0.93-2.35,1.9-4.68,3.01-6.96c-0.89,2.37-1.72,4.74-2.51,7.14
				c-0.8,2.39-1.56,4.79-2.3,7.2c-1.46,4.82-2.86,9.66-4.04,14.55c-1.23,4.88-2.05,9.82-2.55,14.83
				C348.3-186.33,348.08-181.3,348.06-176.25z"/>
			
				<linearGradient id="SVGID_00000090980513768294132980000011060930274652357003_" gradientUnits="userSpaceOnUse" x1="299.9573" y1="-194.7217" x2="379.0074" y2="-194.7217">
				<stop  offset="0.0955" style="stop-color:#E5B250"/>
				<stop  offset="0.277" style="stop-color:#F1D272"/>
				<stop  offset="0.457" style="stop-color:#FBEC8E"/>
				<stop  offset="0.5618" style="stop-color:#FFF698"/>
				<stop  offset="0.9326" style="stop-color:#E5B250"/>
			</linearGradient>
			<path style="fill:url(#SVGID_00000090980513768294132980000011060930274652357003_);" d="M300.5-186.88
				c-0.01-1.84,0.54-3.67,1.42-5.3c0.88-1.64,2.08-3.09,3.48-4.32c0.33-0.33,0.71-0.6,1.08-0.88c0.37-0.28,0.73-0.58,1.14-0.81
				l1.19-0.74c0.41-0.22,0.83-0.42,1.24-0.64l0.62-0.32c0.21-0.09,0.43-0.18,0.65-0.26l1.3-0.52c0.44-0.16,0.89-0.28,1.33-0.42
				l0.67-0.2c0.22-0.07,0.44-0.14,0.67-0.19l1.36-0.3c0.45-0.1,0.9-0.22,1.37-0.27l1.38-0.2c0.46-0.06,0.92-0.15,1.38-0.17
				c1.86-0.18,3.73-0.18,5.58-0.03c3.71,0.31,7.35,1.18,10.87,2.3c3.52,1.14,6.93,2.54,10.31,4c3.37,1.46,6.71,2.98,10.13,4.23
				c1.72,0.6,3.45,1.13,5.24,1.37c1.81,0.25,3.62,0.42,5.44,0.41l0.68,0l0.68-0.03c0.46-0.01,0.91-0.07,1.36-0.11
				c0.9-0.12,1.8-0.26,2.67-0.52c1.76-0.48,3.42-1.29,4.95-2.29c-0.74,0.55-1.51,1.05-2.32,1.49c-0.81,0.44-1.67,0.79-2.55,1.08
				c-0.88,0.3-1.79,0.48-2.7,0.65c-0.46,0.06-0.92,0.14-1.38,0.17l-0.69,0.06l-0.69,0.03c-1.85,0.07-3.7-0.04-5.54-0.23
				c-0.92-0.1-1.86-0.26-2.76-0.49c-0.91-0.22-1.79-0.49-2.67-0.78c-1.76-0.59-3.47-1.26-5.18-1.96l-5.08-2.13
				c-3.38-1.42-6.77-2.8-10.24-3.91c-3.46-1.12-7.02-1.98-10.62-2.31c-1.8-0.17-3.61-0.19-5.41-0.05c-0.45,0.02-0.9,0.1-1.35,0.15
				l-1.35,0.17c-0.45,0.04-0.89,0.15-1.34,0.24l-1.33,0.27c-0.22,0.04-0.44,0.11-0.66,0.17l-0.65,0.18
				c-0.43,0.13-0.88,0.23-1.3,0.38l-1.27,0.47l-0.64,0.24l-0.61,0.29c-0.41,0.19-0.82,0.38-1.23,0.58l-1.17,0.68
				c-0.4,0.21-0.76,0.49-1.13,0.75l-0.55,0.39c-0.09,0.06-0.18,0.13-0.27,0.21l-0.26,0.22c-1.41,1.14-2.64,2.5-3.57,4.06
				c-0.21,0.4-0.44,0.8-0.63,1.21l-0.26,0.63c-0.09,0.21-0.18,0.42-0.24,0.64l-0.2,0.65c-0.07,0.22-0.1,0.44-0.15,0.67
				C300.56-187.79,300.55-187.34,300.5-186.88z"/>
			
				<linearGradient id="SVGID_00000173881578479060557950000007920271072729023624_" gradientUnits="userSpaceOnUse" x1="335.3462" y1="-205.7349" x2="335.3462" y2="-271.8088">
				<stop  offset="0.0955" style="stop-color:#E5B250"/>
				<stop  offset="0.277" style="stop-color:#F1D272"/>
				<stop  offset="0.457" style="stop-color:#FBEC8E"/>
				<stop  offset="0.5618" style="stop-color:#FFF698"/>
				<stop  offset="0.9326" style="stop-color:#E5B250"/>
			</linearGradient>
			<path style="fill:url(#SVGID_00000173881578479060557950000007920271072729023624_);" d="M310.12-205.87
				c0.42-1.77,1.03-3.5,1.77-5.18c0.74-1.67,1.58-3.3,2.55-4.86c0.23-0.4,0.49-0.77,0.74-1.16c0.26-0.38,0.5-0.77,0.78-1.14
				l0.81-1.11l0.85-1.08l0.43-0.54l0.45-0.52l0.91-1.03l0.95-0.99l0.48-0.5l0.5-0.47l1-0.95c0.34-0.31,0.7-0.6,1.04-0.9
				c0.69-0.61,1.43-1.16,2.15-1.72c1.47-1.1,2.97-2.14,4.47-3.18c3.02-2.05,6.08-4.03,9.11-6.04c3.04-2,6.06-4.03,8.94-6.21
				l1.07-0.83l0.54-0.42l0.52-0.43l1.04-0.87l1-0.91c1.31-1.23,2.58-2.51,3.58-3.98c1-1.47,1.79-3.1,2.42-4.77
				c0.64-1.68,1.12-3.43,1.46-5.2c0.35-1.77,0.55-3.58,0.57-5.39c0.01-0.91-0.03-1.81-0.12-2.71c-0.01-0.23-0.05-0.45-0.08-0.68
				l-0.1-0.67c-0.08-0.45-0.2-0.89-0.3-1.33c0.59,1.73,0.83,3.56,0.89,5.39c0.06,1.83-0.06,3.67-0.34,5.48
				c-0.29,1.81-0.72,3.61-1.32,5.35c-0.6,1.74-1.38,3.44-2.39,5c-0.27,0.38-0.52,0.78-0.81,1.14l-0.89,1.07
				c-0.3,0.36-0.63,0.67-0.95,1.01l-0.48,0.5l-0.5,0.47l-1.01,0.94l-1.05,0.9l-0.52,0.45l-0.54,0.43l-1.08,0.86
				c-2.9,2.24-5.93,4.28-8.97,6.3c-3.05,2-6.11,3.97-9.14,5.99l-2.26,1.52l-1.12,0.78c-0.37,0.26-0.75,0.52-1.1,0.79
				c-0.72,0.54-1.45,1.07-2.14,1.66c-0.35,0.29-0.7,0.57-1.04,0.86l-1,0.91l-0.5,0.45l-0.48,0.48l-0.96,0.95l-0.92,1l-0.46,0.5
				l-0.44,0.52c-1.19,1.36-2.26,2.82-3.28,4.32C312.86-212.62,311.21-209.35,310.12-205.87z"/>
		</g>
	</g>
	<g>
		<path d="M203.74-297.77h-1.84c0.26-2.48,0.39-4.35,0.39-5.62c0-1.81-0.49-3.25-1.46-4.3c-0.98-1.05-2.3-1.57-3.97-1.57
			c-2.59,0-4.84,0.94-6.77,2.81c-1.93,1.88-2.89,3.98-2.89,6.32c0,1.25,0.26,2.38,0.79,3.4c0.53,1.01,1.7,2.43,3.51,4.24
			c3.31,3.26,5.49,5.8,6.52,7.64c1.03,1.84,1.55,3.63,1.55,5.38c0,2.57-0.78,5.05-2.35,7.43c-1.57,2.38-3.88,4.35-6.93,5.89
			c-3.05,1.54-6.28,2.32-9.67,2.32c-3.35,0-6.17-0.87-8.47-2.62c-2.3-1.74-3.45-3.58-3.45-5.52c0-1.04,0.3-1.9,0.9-2.58
			c0.6-0.68,1.29-1.03,2.07-1.03c0.8,0,1.46,0.32,1.98,0.96c0.33,0.38,0.66,1.23,0.99,2.55c0.38,1.6,0.84,2.77,1.38,3.48
			c0.54,0.72,1.29,1.31,2.24,1.77c0.96,0.46,2,0.69,3.13,0.69c3.37,0,6.32-1.14,8.84-3.41c2.52-2.28,3.78-4.8,3.78-7.55
			c0-0.94-0.16-1.88-0.48-2.81c-0.32-0.93-0.9-1.99-1.75-3.17c-0.59-0.8-1.9-2.22-3.92-4.25c-2-1.98-3.27-3.34-3.78-4.07
			c-0.73-1.06-1.27-2.13-1.63-3.2c-0.35-1.07-0.53-2.14-0.53-3.2c0-2.15,0.72-4.3,2.16-6.47c1.44-2.17,3.31-3.9,5.6-5.18
			c2.3-1.29,4.91-1.93,7.83-1.93c1.46,0,3.26,0.22,5.41,0.67c1.23,0.24,2.29,0.41,3.18,0.53c-0.52,1.53-0.92,2.98-1.2,4.33
			C204.63-304.49,204.24-301.8,203.74-297.77z"/>
		<path d="M212.15-290.59l-1.56-1.2c2.35-2.59,4.5-4.44,6.44-5.53c1.94-1.1,3.6-1.64,4.96-1.64c0.75,0,1.33,0.17,1.73,0.49
			c0.4,0.33,0.6,0.78,0.6,1.34c0,0.68-0.76,3.58-2.29,8.7c-2.49,8.37-3.74,13.41-3.74,15.13c0,0.33,0.08,0.61,0.25,0.83
			c0.16,0.22,0.34,0.34,0.53,0.34c0.75,0,2.69-1.46,5.8-4.38l1.38,1.34c-3.23,3.04-5.59,4.98-7.07,5.83s-2.7,1.27-3.64,1.27
			c-0.83,0-1.48-0.26-1.96-0.78c-0.48-0.52-0.72-1.24-0.72-2.16c0-2.95,1.77-10.15,5.3-21.6c0.16-0.54,0.25-1.03,0.25-1.45
			c0-0.47-0.21-0.71-0.64-0.71c-0.47,0-1.01,0.19-1.61,0.56C215.56-293.82,214.22-292.62,212.15-290.59z M226.05-314
			c0.73,0,1.33,0.24,1.8,0.72c0.47,0.48,0.71,1.1,0.71,1.86c0,1.04-0.36,1.95-1.08,2.74c-0.72,0.79-1.53,1.18-2.42,1.18
			c-0.71,0-1.3-0.25-1.77-0.74c-0.47-0.49-0.71-1.14-0.71-1.94c0-1.06,0.34-1.96,1.03-2.71C224.29-313.63,225.1-314,226.05-314z"/>
		<path d="M233.64-290.49l-1.2-1.24c3.02-2.89,5.43-4.81,7.22-5.76c1.79-0.95,3.33-1.42,4.6-1.42c0.49,0,0.88,0.11,1.17,0.32
			c0.28,0.21,0.42,0.46,0.42,0.74c0,0.21-0.06,0.59-0.18,1.13l-1.59,7.11c2.4-2.67,5.41-5.15,9.04-7.47c1.93-1.2,3.52-1.8,4.77-1.8
			c0.92,0,1.63,0.29,2.15,0.88c0.52,0.59,0.78,1.44,0.78,2.55c0,0.73-0.11,1.56-0.32,2.48c-0.38,1.53-1.36,4.87-2.96,10.01
			c-1.5,4.81-2.25,8-2.25,9.58c0,0.48,0.07,0.85,0.21,1.09c0.14,0.24,0.34,0.36,0.6,0.36c0.68,0,1.76-0.66,3.22-1.98
			c1.04-0.94,2.07-1.81,3.11-2.62l0.88,1.27c-2.17,2.39-4.42,4.32-6.75,5.77c-1.48,0.94-2.71,1.41-3.68,1.41
			c-0.9,0-1.59-0.32-2.09-0.97c-0.5-0.65-0.74-1.7-0.74-3.16c0-2.1,1.31-7.32,3.92-15.66c0.8-2.97,1.2-4.7,1.2-5.2
			c0-0.73-0.44-1.1-1.31-1.1c-0.94,0-2.16,0.5-3.64,1.49c-2.22,1.46-4.07,3.19-5.55,5.17c-0.94,1.27-1.73,3.3-2.37,6.09l-2.86,12.36
			h-5.27c0.99-3.54,1.85-6.93,2.58-10.16l3.15-13.46c0.12-0.54,0.18-0.93,0.18-1.17c0-0.64-0.24-0.96-0.71-0.96
			c-0.38,0-0.92,0.25-1.63,0.75C236.28-293.08,234.91-291.89,233.64-290.49z"/>
		<path d="M289.5-276.73l0.74,2.05c-5.61,4.41-10.35,6.61-14.21,6.61c-2.05,0-3.54-0.73-4.47-2.19c-0.93-1.46-1.4-3.31-1.4-5.55
			c0-3.73,0.99-7.55,2.97-11.49c1.98-3.94,4.38-6.95,7.21-9.05c2.22-1.63,4.71-2.44,7.5-2.44c1.74,0,3.06,0.33,3.96,0.99
			c0.9,0.66,1.34,1.46,1.34,2.4c0,0.73-0.24,1.33-0.71,1.79c-0.47,0.46-1.13,0.69-1.98,0.69c-0.83,0-1.89-0.38-3.18-1.13
			c-1.34-0.8-2.46-1.2-3.36-1.2c-1.16,0-2.3,0.52-3.45,1.57c-1.14,1.05-2.23,3.08-3.27,6.09c-1.04,3.01-1.56,6.04-1.56,9.07
			c0,2.24,0.44,3.97,1.31,5.19c0.64,0.94,1.53,1.41,2.69,1.41C282.39-271.92,285.68-273.53,289.5-276.73z"/>
		<path d="M317.42-277.94l1.17,1.56c-5.78,5.49-10.73,8.24-14.85,8.24c-1.67,0-2.95-0.56-3.84-1.7c-0.88-1.13-1.33-2.95-1.33-5.44
			c0-5.04,1.53-10.07,4.6-15.06c3.44-5.68,7.55-8.52,12.34-8.52c1.67,0,2.95,0.42,3.84,1.25c0.88,0.84,1.33,1.99,1.33,3.45
			c0,1.53-0.53,3.04-1.59,4.53c-1.06,1.49-2.96,3.03-5.69,4.63c-1.37,0.78-4.29,2.18-8.77,4.21c-0.21,1.27-0.32,2.49-0.32,3.64
			c0,1.67,0.27,2.84,0.8,3.5c0.53,0.66,1.3,0.99,2.32,0.99c0.97,0,2.03-0.27,3.18-0.81C312.15-274.21,314.43-275.7,317.42-277.94z
			 M305.05-283.06c3.79-1.7,6.65-3.52,8.56-5.48c1.3-1.37,1.94-2.72,1.94-4.07c0-1.01-0.26-1.82-0.79-2.42
			c-0.53-0.6-1.22-0.9-2.07-0.9c-0.87,0-1.72,0.33-2.55,0.99c-1.11,0.87-2.04,2.19-2.79,3.96
			C306.26-288.39,305.49-285.75,305.05-283.06z"/>
	</g>
	<g>
		
			<linearGradient id="SVGID_00000098905423687066245720000002315047513886883729_" gradientUnits="userSpaceOnUse" x1="-2021.1854" y1="-841.923" x2="-1902.8223" y2="-824.2521" gradientTransform="matrix(-0.989 -0.1477 -0.1477 0.989 -1778.6206 324.8767)">
			<stop  offset="0.0955" style="stop-color:#E5B250"/>
			<stop  offset="0.277" style="stop-color:#F1D272"/>
			<stop  offset="0.457" style="stop-color:#FBEC8E"/>
			<stop  offset="0.5618" style="stop-color:#FFF698"/>
			<stop  offset="0.9326" style="stop-color:#E5B250"/>
		</linearGradient>
		<path style="fill:url(#SVGID_00000098905423687066245720000002315047513886883729_);" d="M344.68-223.7
			c-13.36-3.09-25.96,7.53-40.56,21.22c-27.37,25.67-58.69,22.94-72.74,6.02c-9.33-11.24-7.97-29.1,1.19-38.6
			c-6.85,9.95-4.69,24.76,5.38,33.78c18.49,16.56,40.17,10.51,58.43-5.07C314.19-221.53,327.98-231.36,344.68-223.7z"/>
		<g>
			
				<linearGradient id="SVGID_00000132050233742769177580000000600482930253371548_" gradientUnits="userSpaceOnUse" x1="-2742.7749" y1="-188.813" x2="-2742.7749" y2="-235.0551" gradientTransform="matrix(-1 0 0 1 -2456.6709 0)">
				<stop  offset="0.0955" style="stop-color:#946338"/>
				<stop  offset="0.3015" style="stop-color:#BF8D45"/>
				<stop  offset="0.466" style="stop-color:#DBA84D"/>
				<stop  offset="0.5618" style="stop-color:#E5B250"/>
				<stop  offset="0.9326" style="stop-color:#946338"/>
			</linearGradient>
			<path style="fill:url(#SVGID_00000132050233742769177580000000600482930253371548_);" d="M232.57-235.06
				c-6.85,9.95-4.69,24.76,5.38,33.78c18.49,16.56,40.17,10.51,58.43-5.07c17.81-15.19,31.61-25.01,48.31-17.35
				c-15.59-6.14-29.04,3.9-45.73,18.64c-21.36,18.87-46.24,22.12-63.2,5.38C225.91-209.4,224.95-225.26,232.57-235.06z"/>
		</g>
	</g>
	<g>
		<g>
			<g>
				
					<linearGradient id="SVGID_00000160180261354400251770000006220799026210368432_" gradientUnits="userSpaceOnUse" x1="153.0619" y1="-225.0112" x2="222.7919" y2="-225.0112">
					<stop  offset="0.0955" style="stop-color:#CE8A2D"/>
					<stop  offset="0.0981" style="stop-color:#CE8B2E"/>
					<stop  offset="0.3064" style="stop-color:#E2B65A"/>
					<stop  offset="0.4678" style="stop-color:#EED176"/>
					<stop  offset="0.5618" style="stop-color:#F3DB80"/>
					<stop  offset="0.9326" style="stop-color:#BB8532"/>
				</linearGradient>
				<path style="fill:url(#SVGID_00000160180261354400251770000006220799026210368432_);" d="M192.33-255.73
					c-19.1-0.92-36.56,12.08-38.99,29.04c-2.43,16.96,11.4,31.47,30.5,32.39c19.1,0.92,36.23-12.08,38.67-29.04
					C224.94-240.3,211.43-254.8,192.33-255.73z M203.15-225.01c-1.85,12.46-9.88,22.56-18.29,22.56c-8.41,0-14.01-10.1-12.16-22.56
					c1.85-12.46,10.17-22.56,18.58-22.56C199.68-247.57,205-237.47,203.15-225.01z"/>
				
					<linearGradient id="SVGID_00000132063368912227735650000007914599150627265956_" gradientUnits="userSpaceOnUse" x1="187.9269" y1="-198.3088" x2="187.9269" y2="-251.7135">
					<stop  offset="0.0955" style="stop-color:#946338"/>
					<stop  offset="0.3015" style="stop-color:#BF8D45"/>
					<stop  offset="0.466" style="stop-color:#DBA84D"/>
					<stop  offset="0.5618" style="stop-color:#E5B250"/>
					<stop  offset="0.9326" style="stop-color:#946338"/>
				</linearGradient>
				<path style="fill:url(#SVGID_00000132063368912227735650000007914599150627265956_);" d="M191.09-251.67
					c-13.73-0.8-26.28,10.48-28.03,25.21c-1.75,14.72,8.2,27.31,21.93,28.12c13.73,0.8,26.05-10.48,27.8-25.21
					C214.54-238.28,204.83-250.87,191.09-251.67z M203.15-225.01c-1.85,12.46-9.88,22.56-18.29,22.56
					c-8.41,0-14.01-10.1-12.16-22.56c1.85-12.46,10.17-22.56,18.58-22.56C199.68-247.57,205-237.47,203.15-225.01z"/>
				<g>
					
						<linearGradient id="SVGID_00000000925696455959282090000001003155662747938237_" gradientUnits="userSpaceOnUse" x1="202.0818" y1="-198.7771" x2="198.3638" y2="-251.9459">
						<stop  offset="0.0955" style="stop-color:#E5B250"/>
						<stop  offset="0.277" style="stop-color:#F1D272"/>
						<stop  offset="0.457" style="stop-color:#FBEC8E"/>
						<stop  offset="0.5618" style="stop-color:#FFF698"/>
						<stop  offset="0.9326" style="stop-color:#E5B250"/>
					</linearGradient>
					<path style="fill:url(#SVGID_00000000925696455959282090000001003155662747938237_);" d="M194.84-251.14
						c3.03,0.55,5.93,1.82,8.49,3.59c2.54,1.79,4.72,4.12,6.37,6.78c1.67,2.65,2.78,5.64,3.38,8.71c0.59,3.08,0.62,6.26,0.17,9.36
						c-0.46,3.1-1.39,6.13-2.77,8.93c-1.39,2.8-3.2,5.4-5.41,7.61c-2.19,2.22-4.75,4.08-7.56,5.42c-2.81,1.32-5.85,2.16-8.92,2.32
						l1.14-0.18l1.13-0.23l1.11-0.28l1.1-0.33c1.45-0.47,2.86-1.08,4.19-1.81c2.68-1.43,5.1-3.33,7.16-5.54
						c4.14-4.42,6.83-10.12,7.68-16.09c0.9-5.95-0.12-12.22-3.18-17.44c-1.52-2.6-3.53-4.93-5.93-6.79
						c-1.19-0.94-2.49-1.75-3.86-2.43c-0.34-0.17-0.69-0.32-1.04-0.48c-0.35-0.15-0.71-0.28-1.06-0.43
						c-0.36-0.13-0.72-0.25-1.08-0.38L194.84-251.14z"/>
					
						<linearGradient id="SVGID_00000137098092901182377900000007231236013941222579_" gradientUnits="userSpaceOnUse" x1="176.7858" y1="-197.8689" x2="173.0649" y2="-251.0793">
						<stop  offset="0.0955" style="stop-color:#E5B250"/>
						<stop  offset="0.277" style="stop-color:#F1D272"/>
						<stop  offset="0.457" style="stop-color:#FBEC8E"/>
						<stop  offset="0.5618" style="stop-color:#FFF698"/>
						<stop  offset="0.9326" style="stop-color:#E5B250"/>
					</linearGradient>
					<path style="fill:url(#SVGID_00000137098092901182377900000007231236013941222579_);" d="M185.83-251.39l-1.11,0.25
						c-0.37,0.1-0.73,0.2-1.09,0.31c-0.36,0.12-0.72,0.22-1.08,0.35c-0.35,0.13-0.71,0.25-1.06,0.39c-1.4,0.56-2.75,1.24-4.03,2.02
						c-2.57,1.56-4.87,3.54-6.82,5.8c-3.9,4.53-6.39,10.23-7.02,16.16c-0.68,5.91,0.62,12.05,3.84,17.08
						c1.61,2.51,3.67,4.74,6.11,6.49c1.21,0.89,2.51,1.65,3.88,2.28l1.04,0.45l1.06,0.39l1.08,0.35l1.1,0.3
						c-3.01-0.47-5.91-1.64-8.49-3.31c-2.57-1.69-4.8-3.9-6.54-6.46c-1.75-2.55-2.98-5.45-3.7-8.47c-0.7-3.02-0.88-6.16-0.54-9.24
						c0.35-3.08,1.16-6.1,2.43-8.92c1.28-2.81,2.98-5.44,5.06-7.71c2.07-2.28,4.52-4.22,7.21-5.69c1.35-0.73,2.76-1.34,4.21-1.82
						c0.36-0.12,0.73-0.22,1.09-0.34c0.37-0.1,0.74-0.19,1.11-0.28c0.37-0.08,0.75-0.15,1.12-0.22L185.83-251.39z"/>
				</g>
			</g>
			<g>
				
					<linearGradient id="SVGID_00000119817652484976669770000011065230615551678117_" gradientUnits="userSpaceOnUse" x1="74.9996" y1="-222.7938" x2="159.881" y2="-222.7938">
					<stop  offset="0.0955" style="stop-color:#CE8A2D"/>
					<stop  offset="0.0981" style="stop-color:#CE8B2E"/>
					<stop  offset="0.3064" style="stop-color:#E2B65A"/>
					<stop  offset="0.4678" style="stop-color:#EED176"/>
					<stop  offset="0.5618" style="stop-color:#F3DB80"/>
					<stop  offset="0.9326" style="stop-color:#BB8532"/>
				</linearGradient>
				<path style="fill:url(#SVGID_00000119817652484976669770000011065230615551678117_);" d="M101.33-201.34
					c-3.57-0.25-6.99-0.02-10.1,0.75c4.03-4.11,11.5-6.56,19.22-8.52c17.87-4.54,40.65-15.04,45.74-28.66
					c7.51-20.11-5.73-34.76-27.99-36.18c-19.47-1.24-36.87,6.6-42.18,22.58c-3.24,9.76,2.92,22.08,15.24,21.8
					c9.12-0.21,14.42-7.95,16.44-13.52c-5.31,4.72-13.33,1.43-13.97-4.99c-0.84-8.36,6.01-18.65,20.2-17.87
					c11.26,0.62,17.81,11.44,12.48,23.2c-3.61,7.96-16.18,17.17-31.39,23.67c-22.94,9.8-38.22,25.98-25.31,47.54
					c0,0,1.93-10.88,16.67-12.03c11.46-0.89,25.28,8.52,39.15,9.28c7.96,0.43,20.88-4.99,24.34-11.29
					C144.11-182.15,128.24-199.45,101.33-201.34z"/>
				<g>
					
						<linearGradient id="SVGID_00000053507230023613507210000002318909868347721604_" gradientUnits="userSpaceOnUse" x1="79.4783" y1="-182.4981" x2="159.881" y2="-182.4981">
						<stop  offset="0.0955" style="stop-color:#946338"/>
						<stop  offset="0.3015" style="stop-color:#BF8D45"/>
						<stop  offset="0.466" style="stop-color:#DBA84D"/>
						<stop  offset="0.5618" style="stop-color:#E5B250"/>
						<stop  offset="0.9326" style="stop-color:#946338"/>
					</linearGradient>
					<path style="fill:url(#SVGID_00000053507230023613507210000002318909868347721604_);" d="M137.39-182.16
						c-11.07-2.71-27.95-13.6-43.61-10.89c-12.03,2.08-15.29,14.91-14.06,21.52c0,0,1.93-10.88,16.67-12.03
						c11.46-0.89,25.28,8.52,39.15,9.28c7.96,0.43,20.88-4.99,24.34-11.29C153-181.51,146.85-179.84,137.39-182.16z"/>
					
						<linearGradient id="SVGID_00000179624911117846655380000005856023086637569193_" gradientUnits="userSpaceOnUse" x1="121.7452" y1="-171.5218" x2="121.7452" y2="-274.0656">
						<stop  offset="0.0955" style="stop-color:#946338"/>
						<stop  offset="0.3015" style="stop-color:#BF8D45"/>
						<stop  offset="0.466" style="stop-color:#DBA84D"/>
						<stop  offset="0.5618" style="stop-color:#E5B250"/>
						<stop  offset="0.9326" style="stop-color:#946338"/>
					</linearGradient>
					<path style="fill:url(#SVGID_00000179624911117846655380000005856023086637569193_);" d="M101.74-236.21
						c-8.84-2.09-8.04-13.05-4.53-19.68c3.47-6.56,11.77-13.99,26.05-13.99c14.28,0,29.77,8.25,24.6,27.2
						c-2.62,9.59-14.95,17.65-28.17,23.44c-13.32,5.83-27.01,13.02-28.45,18.64c4.03-4.11,11.5-6.56,19.22-8.52
						c17.87-4.54,40.65-15.04,45.74-28.66c7.51-20.11-5.73-34.76-27.99-36.18c-19.47-1.24-36.87,6.6-42.18,22.58
						c-3.24,9.76,2.92,22.08,15.24,21.8c9.12-0.21,14.42-7.95,16.44-13.52C114.67-239.1,109.7-234.33,101.74-236.21z"/>
				</g>
				<g>
					
						<linearGradient id="SVGID_00000024002959029409236660000009660589386778575520_" gradientUnits="userSpaceOnUse" x1="119.638" y1="-171.4161" x2="119.638" y2="-194.0532">
						<stop  offset="0.0955" style="stop-color:#E5B250"/>
						<stop  offset="0.277" style="stop-color:#F1D272"/>
						<stop  offset="0.457" style="stop-color:#FBEC8E"/>
						<stop  offset="0.5618" style="stop-color:#FFF698"/>
						<stop  offset="0.9326" style="stop-color:#E5B250"/>
					</linearGradient>
					<path style="fill:url(#SVGID_00000024002959029409236660000009660589386778575520_);" d="M79.72-171.52
						c-0.42-1.99-0.4-4.06-0.13-6.08c0.27-2.03,0.83-4.02,1.65-5.9c0.83-1.88,1.97-3.64,3.38-5.16c0.71-0.75,1.5-1.44,2.34-2.05
						c0.85-0.61,1.76-1.12,2.71-1.56c0.95-0.44,1.95-0.75,2.95-1.02c1.02-0.23,2.04-0.4,3.06-0.51c2.05-0.22,4.12-0.24,6.17-0.09
						c4.11,0.31,8.12,1.27,12.02,2.49c3.89,1.24,7.68,2.75,11.43,4.3c3.75,1.54,7.48,3.15,11.33,4.28c3.86,1.06,7.9,1.7,11.89,1.22
						c1.99-0.22,3.96-0.71,5.85-1.4c0.95-0.34,1.88-0.75,2.79-1.18c0.46-0.22,0.91-0.45,1.37-0.67l1.34-0.71l-1.3,0.79
						c-0.44,0.25-0.88,0.51-1.33,0.75c-0.9,0.47-1.82,0.92-2.76,1.31c-1.88,0.78-3.86,1.37-5.89,1.68c-2.03,0.31-4.1,0.34-6.15,0.16
						c-2.05-0.18-4.06-0.57-6.06-1.07c-1.99-0.52-3.92-1.2-5.82-1.92c-1.91-0.72-3.79-1.48-5.68-2.22c-3.76-1.51-7.52-3-11.37-4.21
						c-3.84-1.22-7.77-2.16-11.76-2.5c-1.99-0.17-4-0.19-5.98,0c-0.99,0.09-1.98,0.24-2.94,0.44c-0.96,0.23-1.91,0.51-2.81,0.9
						c-0.9,0.4-1.78,0.86-2.59,1.42c-0.81,0.56-1.57,1.2-2.28,1.89c-1.39,1.41-2.54,3.07-3.41,4.87c-0.88,1.8-1.51,3.73-1.86,5.71
						c-0.18,0.99-0.29,2-0.32,3.01C79.53-173.54,79.57-172.53,79.72-171.52z"/>
					
						<linearGradient id="SVGID_00000158730700138132883050000009194758495749768618_" gradientUnits="userSpaceOnUse" x1="120.3171" y1="-200.4417" x2="120.3171" y2="-270.4537">
						<stop  offset="0.0955" style="stop-color:#E5B250"/>
						<stop  offset="0.277" style="stop-color:#F1D272"/>
						<stop  offset="0.457" style="stop-color:#FBEC8E"/>
						<stop  offset="0.5618" style="stop-color:#FFF698"/>
						<stop  offset="0.9326" style="stop-color:#E5B250"/>
					</linearGradient>
					<path style="fill:url(#SVGID_00000158730700138132883050000009194758495749768618_);" d="M91.23-200.59
						c0.25-0.96,0.77-1.82,1.37-2.6c0.6-0.78,1.3-1.49,2.02-2.16c0.73-0.67,1.5-1.29,2.28-1.88c0.79-0.6,1.6-1.16,2.42-1.71
						c3.29-2.19,6.75-4.09,10.25-5.9c3.51-1.79,7.1-3.44,10.69-5.05c3.57-1.62,7.08-3.4,10.43-5.42c3.35-2.02,6.57-4.27,9.45-6.89
						c1.43-1.32,2.78-2.72,3.93-4.27c0.59-0.77,1.12-1.57,1.59-2.4c0.48-0.83,0.89-1.7,1.22-2.59c0.18-0.44,0.3-0.9,0.44-1.36
						l0.34-1.41c0.06-0.23,0.11-0.47,0.15-0.71l0.13-0.71c0.1-0.47,0.15-0.95,0.2-1.43c0.22-1.91,0.22-3.85-0.09-5.74
						c-0.3-1.89-0.9-3.72-1.8-5.4c-0.91-1.67-2.12-3.17-3.52-4.47c-0.34-0.34-0.72-0.62-1.09-0.94c-0.37-0.3-0.77-0.57-1.15-0.86
						c-0.41-0.26-0.8-0.53-1.21-0.78c-0.42-0.23-0.82-0.49-1.26-0.7c-1.71-0.89-3.52-1.58-5.38-2.11c-1.86-0.53-3.77-0.88-5.7-1.08
						c-0.96-0.1-1.93-0.17-2.9-0.18l-0.73-0.01c-0.24,0-0.49,0.01-0.73,0.02l-1.46,0.04c-0.49,0-0.97,0.07-1.45,0.11l-1.45,0.14
						l-1.43,0.24l-0.72,0.12c-0.24,0.04-0.47,0.11-0.71,0.16l-1.41,0.34c-0.47,0.12-0.92,0.29-1.39,0.43l-0.69,0.22
						c-0.23,0.07-0.45,0.17-0.68,0.26l-1.35,0.54c-1.76,0.8-3.45,1.75-5.03,2.88c-1.57,1.13-3,2.44-4.28,3.89
						c-1.28,1.45-2.38,3.06-3.26,4.78c-0.86,1.73-1.48,3.58-1.86,5.48c-0.37,1.9-0.49,3.85-0.21,5.76c0.28,1.89,1,3.75,2.32,5.13
						c1.3,1.4,3.13,2.23,5.04,2.55c1.9,0.38,3.88,0.39,5.78-0.06c1.89-0.48,3.67-1.37,5.21-2.57c0.79-0.59,1.5-1.26,2.2-1.95
						c0.68-0.71,1.33-1.45,1.94-2.22c-0.59,0.79-1.21,1.55-1.88,2.28c-0.68,0.71-1.38,1.42-2.15,2.03c-1.53,1.25-3.32,2.2-5.24,2.73
						c-1.93,0.51-3.97,0.54-5.93,0.19c-1.96-0.28-3.94-1.12-5.37-2.59c-0.72-0.73-1.29-1.59-1.7-2.52c-0.42-0.93-0.69-1.91-0.85-2.9
						c-0.32-1.99-0.22-4.02,0.14-5.99c0.36-1.97,0.98-3.89,1.85-5.7c0.89-1.8,2.01-3.48,3.31-5c1.3-1.52,2.77-2.9,4.38-4.09
						c1.62-1.18,3.37-2.17,5.19-3.01l1.39-0.56c0.23-0.09,0.46-0.2,0.7-0.27l0.71-0.23c0.48-0.15,0.95-0.32,1.43-0.45l1.46-0.36
						c0.24-0.05,0.48-0.13,0.73-0.17l0.74-0.13l1.48-0.25l1.49-0.15c0.5-0.05,0.99-0.12,1.49-0.12l1.5-0.05
						c0.25-0.01,0.5-0.02,0.75-0.02l0.75,0.01c1,0.01,2,0.08,2.99,0.18c1.99,0.2,3.96,0.55,5.89,1.09c1.93,0.54,3.81,1.25,5.6,2.17
						c0.45,0.22,0.88,0.48,1.32,0.73c0.44,0.25,0.85,0.54,1.28,0.81c0.41,0.3,0.82,0.59,1.22,0.9l0.59,0.48
						c0.2,0.16,0.39,0.33,0.57,0.5c1.48,1.38,2.77,2.99,3.73,4.78c0.96,1.8,1.59,3.76,1.9,5.76c0.31,2,0.3,4.04,0.07,6.03
						c-0.06,0.5-0.11,1-0.22,1.49l-0.14,0.74c-0.04,0.25-0.09,0.49-0.16,0.73l-0.36,1.46c-0.15,0.49-0.29,0.98-0.48,1.45
						c-0.36,0.95-0.79,1.87-1.31,2.74c-0.5,0.87-1.06,1.71-1.68,2.51c-1.21,1.6-2.61,3.04-4.08,4.39c-1.48,1.33-3.04,2.57-4.66,3.71
						c-1.62,1.14-3.3,2.2-5.01,3.2c-3.42,2-6.97,3.74-10.59,5.33c-3.62,1.56-7.2,3.16-10.74,4.89c-3.53,1.72-7.02,3.54-10.34,5.65
						c-0.83,0.53-1.65,1.07-2.44,1.65c-0.8,0.57-1.57,1.17-2.31,1.82c-0.74,0.64-1.45,1.33-2.07,2.09
						C92.05-202.38,91.51-201.53,91.23-200.59z"/>
				</g>
			</g>
		</g>
		<g>
			
				<linearGradient id="SVGID_00000094582461866043176170000005687760113622713216_" gradientUnits="userSpaceOnUse" x1="829.7027" y1="-417.365" x2="978.6849" y2="-395.1229" gradientTransform="matrix(0.989 -0.1477 0.1477 0.989 -678.0502 324.8767)">
				<stop  offset="0.0955" style="stop-color:#E5B250"/>
				<stop  offset="0.277" style="stop-color:#F1D272"/>
				<stop  offset="0.457" style="stop-color:#FBEC8E"/>
				<stop  offset="0.5618" style="stop-color:#FFF698"/>
				<stop  offset="0.9326" style="stop-color:#E5B250"/>
			</linearGradient>
			<path style="fill:url(#SVGID_00000094582461866043176170000005687760113622713216_);" d="M80.88-217.88
				c16.08-4.73,34.36-2.05,56.01,16.08c34.38,28.78,70.71,26.23,87.16,6.42c10.92-13.16,9.33-34.07-1.39-45.19
				c8.02,11.65,5.49,28.99-6.29,39.54c-21.64,19.39-48.88,11.74-74.21-8.63C124.86-223.57,103.27-229.16,80.88-217.88z"/>
			<g>
				
					<linearGradient id="SVGID_00000117666328316255770370000014511189961919252392_" gradientUnits="userSpaceOnUse" x1="154.7253" y1="-186.7252" x2="154.7253" y2="-240.5639">
					<stop  offset="0.0955" style="stop-color:#946338"/>
					<stop  offset="0.3015" style="stop-color:#BF8D45"/>
					<stop  offset="0.466" style="stop-color:#DBA84D"/>
					<stop  offset="0.5618" style="stop-color:#E5B250"/>
					<stop  offset="0.9326" style="stop-color:#946338"/>
				</linearGradient>
				<path style="fill:url(#SVGID_00000117666328316255770370000014511189961919252392_);" d="M80.88-217.88
					c22.39-11.29,43.97-5.69,61.28,8.23c25.32,20.37,52.56,28.02,74.21,8.63c11.78-10.55,14.31-27.89,6.29-39.54
					c8.92,11.47,7.8,30.04-3.73,41.42c-19.85,19.6-50.18,15.28-78.52-7.89C121.65-222.35,101.17-226.98,80.88-217.88z"/>
			</g>
		</g>
	</g>
	<g>
		
			<linearGradient id="SVGID_00000145036094321174790790000000098385610604479897_" gradientUnits="userSpaceOnUse" x1="233.5233" y1="-223.7606" x2="300.4187" y2="-223.7606">
			<stop  offset="0.0955" style="stop-color:#CE8A2D"/>
			<stop  offset="0.0981" style="stop-color:#CE8B2E"/>
			<stop  offset="0.3064" style="stop-color:#E2B65A"/>
			<stop  offset="0.4678" style="stop-color:#EED176"/>
			<stop  offset="0.5618" style="stop-color:#F3DB80"/>
			<stop  offset="0.9326" style="stop-color:#BB8532"/>
		</linearGradient>
		<path style="fill:url(#SVGID_00000145036094321174790790000000098385610604479897_);" d="M271.2-253.23
			c-18.32-0.89-35.07,11.59-37.41,27.86c-2.34,16.27,10.94,30.19,29.26,31.08c18.32,0.89,34.76-11.59,37.1-27.86
			C302.48-238.43,289.52-252.34,271.2-253.23z M281.58-223.76c-1.78,11.95-9.48,21.64-17.55,21.64c-8.07,0-13.44-9.69-11.66-21.64
			c1.78-11.95,9.76-21.64,17.82-21.64C278.25-245.4,283.35-235.71,281.58-223.76z"/>
		
			<linearGradient id="SVGID_00000047035883191317643120000005420677840738725560_" gradientUnits="userSpaceOnUse" x1="266.9709" y1="-198.1438" x2="266.9709" y2="-249.3775">
			<stop  offset="0.0955" style="stop-color:#946338"/>
			<stop  offset="0.3015" style="stop-color:#BF8D45"/>
			<stop  offset="0.466" style="stop-color:#DBA84D"/>
			<stop  offset="0.5618" style="stop-color:#E5B250"/>
			<stop  offset="0.9326" style="stop-color:#946338"/>
		</linearGradient>
		<path style="fill:url(#SVGID_00000047035883191317643120000005420677840738725560_);" d="M270.01-249.34
			c-13.17-0.77-25.21,10.06-26.89,24.18c-1.68,14.13,7.86,26.2,21.04,26.97c13.17,0.77,24.99-10.06,26.67-24.18
			C292.5-236.49,283.18-248.57,270.01-249.34z M281.58-223.76c-1.78,11.95-9.48,21.64-17.55,21.64c-8.07,0-13.44-9.69-11.66-21.64
			c1.78-11.95,9.76-21.64,17.82-21.64C278.25-245.4,283.35-235.71,281.58-223.76z"/>
		<g>
			
				<linearGradient id="SVGID_00000124124261090811157440000003031985518157172135_" gradientUnits="userSpaceOnUse" x1="280.5504" y1="-198.593" x2="276.9836" y2="-249.6005">
				<stop  offset="0.0955" style="stop-color:#E5B250"/>
				<stop  offset="0.277" style="stop-color:#F1D272"/>
				<stop  offset="0.457" style="stop-color:#FBEC8E"/>
				<stop  offset="0.5618" style="stop-color:#FFF698"/>
				<stop  offset="0.9326" style="stop-color:#E5B250"/>
			</linearGradient>
			<path style="fill:url(#SVGID_00000124124261090811157440000003031985518157172135_);" d="M273.61-248.83
				c2.91,0.53,5.69,1.74,8.14,3.44c2.44,1.72,4.53,3.95,6.11,6.51c1.6,2.54,2.67,5.41,3.24,8.36c0.57,2.96,0.59,6.01,0.17,8.98
				c-0.44,2.97-1.33,5.88-2.66,8.57c-1.33,2.69-3.07,5.18-5.19,7.3c-2.1,2.13-4.56,3.91-7.25,5.2c-2.7,1.26-5.61,2.08-8.56,2.23
				l1.09-0.17l1.08-0.22l1.07-0.27l1.05-0.32c1.39-0.45,2.74-1.04,4.02-1.73c2.57-1.38,4.89-3.2,6.87-5.31
				c3.97-4.24,6.56-9.71,7.37-15.43c0.87-5.71-0.12-11.73-3.05-16.73c-1.46-2.5-3.39-4.73-5.69-6.52c-1.15-0.9-2.39-1.68-3.7-2.33
				c-0.33-0.17-0.66-0.31-1-0.46c-0.34-0.15-0.68-0.27-1.02-0.41c-0.34-0.13-0.69-0.24-1.04-0.37L273.61-248.83z"/>
			
				<linearGradient id="SVGID_00000008834988495072637180000014297381779041251985_" gradientUnits="userSpaceOnUse" x1="256.2827" y1="-197.7218" x2="252.7132" y2="-248.7691">
				<stop  offset="0.0955" style="stop-color:#E5B250"/>
				<stop  offset="0.277" style="stop-color:#F1D272"/>
				<stop  offset="0.457" style="stop-color:#FBEC8E"/>
				<stop  offset="0.5618" style="stop-color:#FFF698"/>
				<stop  offset="0.9326" style="stop-color:#E5B250"/>
			</linearGradient>
			<path style="fill:url(#SVGID_00000008834988495072637180000014297381779041251985_);" d="M264.96-249.07l-1.06,0.24
				c-0.35,0.1-0.7,0.19-1.05,0.29c-0.35,0.11-0.69,0.21-1.04,0.33c-0.34,0.13-0.68,0.24-1.02,0.38c-1.35,0.53-2.64,1.18-3.87,1.94
				c-2.47,1.49-4.67,3.39-6.54,5.56c-3.75,4.34-6.13,9.82-6.74,15.5c-0.65,5.67,0.59,11.56,3.68,16.39
				c1.54,2.41,3.52,4.54,5.86,6.23c1.16,0.85,2.41,1.59,3.73,2.19l1,0.43l1.02,0.38l1.04,0.34l1.05,0.28
				c-2.88-0.45-5.67-1.57-8.14-3.17c-2.47-1.62-4.61-3.74-6.27-6.2c-1.68-2.45-2.86-5.23-3.55-8.12c-0.67-2.9-0.84-5.91-0.52-8.86
				c0.33-2.95,1.12-5.85,2.33-8.56c1.23-2.7,2.86-5.22,4.86-7.4c1.99-2.19,4.34-4.05,6.92-5.46c1.3-0.7,2.65-1.28,4.04-1.75
				c0.35-0.12,0.7-0.21,1.05-0.32c0.35-0.1,0.71-0.18,1.06-0.27c0.36-0.08,0.72-0.14,1.07-0.21L264.96-249.07z"/>
		</g>
	</g>
</g>
<g>
	<g>
		<path class="st22" d="M373.17,267.64c0.13-6.14,0.47-12.68,1.18-18.77c2.32-19.9,6.48-28.31,6.48-28.31
			c-4.1,4.47-9.48,7.38-9.48,7.38c-4.37,6.47-10.03,14.4-13.78,25.08c-0.78,2.22-1.47,4.44-2.09,6.65
			c-6.98-2.45-14.03-3.97-20.86-3.95c-8.12,0.03-13.55,1.53-17.11,3.25c7.04-19.64,45.33-16.07,59.28-48.42
			c6.89-15.98-1.55-28.21-1.55-28.21c-2.25,17.41-31.25,31.4-48.5,45.81c-20.08,16.78-23.64,38.23-20.44,52.95
			c3.69-4.11,11.05-7.53,21.43-8.52c7.77-0.74,16.03,1.57,24.22,4.22c-1.03,7.49-1.28,13.94-1.18,18.18c0,0,10.87-2.43,22.88-1.58
			c0,0-0.28-4.24-0.44-10.62c1.49,0.22,2.96,0.36,4.4,0.4c7.43,0.21,14.39-1.51,19.8-9.34
			C390.16,276.35,381.92,272.16,373.17,267.64z"/>
		<path class="st22" d="M336.28,233.25c11.68-8.42,27.69-17.11,34.08-25.31c5.17-6.65,7.04-18.77,4.89-25.59
			c0,0,8.44,12.23,1.55,28.21c-13.95,32.34-52.24,28.78-59.28,48.42C319.14,252.81,324.53,241.73,336.28,233.25z M362.54,271.56
			c6.19,2.65,11.71,5.07,16.1,5.63c9.28,1.19,14.29-0.18,18.77-3.34c-7.25,2.5-15.5-1.69-24.24-6.21
			c0.13-6.14,0.47-12.68,1.18-18.77c2.32-19.9,6.48-28.31,6.48-28.31c-1.59,1.73-3.37,3.23-4.96,4.42
			c-4.44,10.31-10.15,28.39-12.27,39.66C363.16,266.97,362.81,269.29,362.54,271.56z M362.54,271.56
			c-9.94-4.26-21.59-9.15-33.04-7.98c-17.81,1.82-23.18,12.14-23.18,17.53c3.69-4.11,11.05-7.53,21.43-8.52
			c7.77-0.74,16.03,1.57,24.22,4.22c-1.03,7.49-1.28,13.94-1.18,18.18c0,0,4.52-1.01,10.95-1.5
			C361.56,289.61,361.39,281.09,362.54,271.56z"/>
		<g>
			<path class="st22" d="M361.73,293.5c-0.51-5.86-0.52-11.78-0.12-17.66c0.19-2.95,0.52-5.88,0.96-8.81
				c0.45-2.92,1.07-5.82,1.76-8.69c0.71-2.86,1.48-5.71,2.31-8.54c0.85-2.82,1.73-5.63,2.69-8.42c0.95-2.79,1.97-5.55,3.04-8.3
				c1.09-2.74,2.22-5.46,3.51-8.1c-1.03,2.76-2.01,5.53-2.93,8.32c-0.93,2.78-1.82,5.58-2.68,8.39c-1.7,5.62-3.33,11.26-4.7,16.95
				c-1.43,5.68-2.39,11.45-2.97,17.28C362,281.74,361.75,287.61,361.73,293.5z"/>
			<path class="st22" d="M306.31,281.11c-0.01-2.14,0.63-4.28,1.65-6.17c1.02-1.91,2.43-3.6,4.05-5.04c0.38-0.39,0.83-0.7,1.26-1.03
				c0.44-0.32,0.85-0.67,1.33-0.94l1.38-0.86c0.48-0.26,0.97-0.49,1.45-0.74l0.73-0.37c0.25-0.11,0.5-0.2,0.75-0.31l1.51-0.6
				c0.51-0.19,1.03-0.33,1.55-0.49l0.78-0.24c0.26-0.08,0.52-0.17,0.78-0.22l1.58-0.35c0.53-0.11,1.05-0.26,1.59-0.32l1.61-0.23
				c0.54-0.07,1.07-0.17,1.61-0.2c2.16-0.21,4.35-0.21,6.51-0.04c4.33,0.36,8.56,1.38,12.66,2.68c4.1,1.33,8.08,2.96,12.01,4.66
				c3.93,1.7,7.82,3.47,11.8,4.93c2,0.7,4.02,1.32,6.11,1.59c2.1,0.29,4.22,0.48,6.34,0.48l0.79,0l0.79-0.04
				c0.53-0.01,1.05-0.08,1.58-0.13c1.05-0.14,2.1-0.3,3.12-0.6c2.05-0.56,3.98-1.5,5.77-2.67c-0.86,0.64-1.76,1.22-2.7,1.74
				c-0.95,0.51-1.95,0.91-2.97,1.26c-1.02,0.35-2.08,0.56-3.15,0.75c-0.53,0.07-1.07,0.16-1.61,0.2l-0.81,0.07l-0.81,0.04
				c-2.16,0.08-4.32-0.04-6.46-0.27c-1.08-0.11-2.16-0.3-3.21-0.57c-1.06-0.25-2.09-0.58-3.12-0.91c-2.05-0.68-4.05-1.47-6.03-2.28
				l-5.92-2.48c-3.94-1.65-7.88-3.27-11.93-4.55c-4.04-1.31-8.17-2.3-12.38-2.69c-2.1-0.2-4.21-0.22-6.31-0.05
				c-0.53,0.02-1.05,0.11-1.57,0.18l-1.57,0.2c-0.53,0.05-1.04,0.18-1.56,0.28l-1.55,0.31c-0.26,0.04-0.51,0.13-0.77,0.19
				l-0.76,0.21c-0.51,0.15-1.02,0.27-1.52,0.44l-1.48,0.55l-0.74,0.28l-0.72,0.33c-0.48,0.23-0.96,0.44-1.43,0.67l-1.37,0.79
				c-0.47,0.25-0.88,0.57-1.31,0.87l-0.65,0.46c-0.11,0.07-0.21,0.16-0.31,0.24l-0.3,0.26c-1.64,1.32-3.08,2.91-4.16,4.73
				c-0.25,0.47-0.51,0.93-0.74,1.41l-0.31,0.73c-0.1,0.24-0.21,0.49-0.28,0.75l-0.24,0.76c-0.09,0.25-0.11,0.52-0.18,0.78
				C306.38,280.04,306.37,280.58,306.31,281.11z"/>
			<path class="st22" d="M317.52,258.98c0.49-2.07,1.2-4.08,2.06-6.03c0.86-1.95,1.84-3.85,2.97-5.66c0.27-0.46,0.57-0.9,0.86-1.35
				c0.3-0.44,0.58-0.9,0.9-1.32l0.94-1.3l0.99-1.26l0.5-0.63l0.53-0.6l1.06-1.21l1.11-1.16l0.56-0.58l0.58-0.55l1.17-1.11
				c0.4-0.36,0.81-0.7,1.21-1.05c0.8-0.72,1.66-1.35,2.51-2.01c1.71-1.29,3.46-2.49,5.21-3.7c3.52-2.39,7.09-4.69,10.62-7.04
				c3.54-2.33,7.06-4.69,10.42-7.24l1.25-0.97l0.62-0.48l0.61-0.5l1.21-1.01l1.17-1.06c1.53-1.43,3.01-2.93,4.17-4.63
				c1.17-1.71,2.08-3.61,2.83-5.56c0.74-1.96,1.3-3.99,1.7-6.06c0.41-2.06,0.64-4.17,0.67-6.28c0.01-1.05-0.03-2.11-0.14-3.16
				c-0.01-0.26-0.05-0.53-0.1-0.79l-0.12-0.78c-0.09-0.52-0.23-1.03-0.35-1.55c0.68,2.01,0.97,4.15,1.04,6.28
				c0.07,2.13-0.07,4.27-0.39,6.39c-0.33,2.11-0.84,4.2-1.54,6.24c-0.7,2.03-1.6,4-2.78,5.83c-0.32,0.44-0.61,0.91-0.94,1.33
				l-1.03,1.25c-0.35,0.41-0.74,0.78-1.11,1.18l-0.56,0.58l-0.59,0.55l-1.18,1.1l-1.22,1.04l-0.61,0.52l-0.63,0.5l-1.25,1
				c-3.38,2.61-6.91,4.99-10.45,7.34c-3.55,2.33-7.12,4.62-10.64,6.97l-2.63,1.77l-1.3,0.91c-0.43,0.3-0.87,0.6-1.29,0.92
				c-0.84,0.63-1.69,1.24-2.49,1.93c-0.4,0.33-0.82,0.66-1.22,1l-1.17,1.06l-0.58,0.53l-0.56,0.56l-1.12,1.11l-1.07,1.16l-0.54,0.58
				l-0.51,0.6c-1.39,1.58-2.64,3.29-3.82,5.03C320.71,251.11,318.79,254.93,317.52,258.98z"/>
		</g>
	</g>
	<g>
		<path class="st22" d="M193.58,151.91h-2.14c0.3-2.88,0.45-5.07,0.45-6.55c0-2.11-0.57-3.78-1.71-5.01
			c-1.14-1.22-2.68-1.83-4.62-1.83c-3.01,0-5.64,1.09-7.89,3.28c-2.25,2.19-3.37,4.64-3.37,7.36c0,1.46,0.31,2.78,0.92,3.96
			c0.62,1.18,1.98,2.83,4.09,4.95c3.86,3.79,6.39,6.76,7.6,8.91c1.21,2.14,1.81,4.23,1.81,6.27c0,3-0.91,5.88-2.74,8.66
			c-1.83,2.78-4.52,5.06-8.07,6.86c-3.56,1.8-7.31,2.7-11.27,2.7c-3.9,0-7.19-1.02-9.87-3.05c-2.68-2.03-4.02-4.17-4.02-6.43
			c0-1.21,0.35-2.21,1.05-3.01c0.7-0.79,1.5-1.19,2.41-1.19c0.93,0,1.7,0.37,2.31,1.11c0.38,0.44,0.77,1.43,1.15,2.97
			c0.44,1.87,0.97,3.22,1.61,4.06c0.63,0.84,1.5,1.52,2.62,2.06c1.11,0.53,2.33,0.8,3.65,0.8c3.93,0,7.36-1.33,10.3-3.98
			c2.94-2.65,4.41-5.59,4.41-8.8c0-1.1-0.19-2.19-0.56-3.28c-0.37-1.09-1.05-2.31-2.04-3.69c-0.69-0.93-2.21-2.58-4.57-4.95
			c-2.33-2.31-3.8-3.89-4.41-4.74c-0.85-1.24-1.48-2.48-1.89-3.73c-0.41-1.25-0.62-2.49-0.62-3.73c0-2.5,0.84-5.01,2.51-7.54
			c1.67-2.53,3.85-4.54,6.53-6.04c2.68-1.5,5.72-2.25,9.12-2.25c1.7,0,3.8,0.26,6.3,0.78c1.43,0.27,2.66,0.48,3.71,0.62
			c-0.6,1.79-1.07,3.47-1.4,5.05C194.61,144.07,194.16,147.21,193.58,151.91z"/>
		<path class="st22" d="M203.38,160.27l-1.81-1.4c2.74-3.02,5.25-5.17,7.51-6.45c2.26-1.28,4.19-1.91,5.78-1.91
			c0.88,0,1.55,0.19,2.02,0.58c0.47,0.39,0.7,0.91,0.7,1.57c0,0.8-0.89,4.17-2.67,10.13c-2.9,9.75-4.35,15.63-4.35,17.63
			c0,0.39,0.1,0.71,0.29,0.97c0.19,0.26,0.4,0.39,0.62,0.39c0.88,0,3.13-1.7,6.76-5.11l1.61,1.57c-3.76,3.54-6.51,5.81-8.24,6.8
			c-1.73,0.99-3.15,1.48-4.24,1.48c-0.96,0-1.72-0.3-2.29-0.91c-0.56-0.6-0.84-1.44-0.84-2.51c0-3.43,2.06-11.82,6.18-25.17
			c0.19-0.63,0.29-1.19,0.29-1.69c0-0.55-0.25-0.82-0.74-0.82c-0.55,0-1.17,0.22-1.87,0.66
			C207.35,156.51,205.79,157.91,203.38,160.27z M219.57,133c0.85,0,1.55,0.28,2.1,0.84c0.55,0.56,0.82,1.28,0.82,2.16
			c0,1.21-0.42,2.27-1.26,3.19c-0.84,0.92-1.78,1.38-2.82,1.38c-0.82,0-1.51-0.29-2.06-0.87c-0.55-0.58-0.82-1.33-0.82-2.27
			c0-1.24,0.4-2.29,1.19-3.15C217.52,133.43,218.47,133,219.57,133z"/>
		<path class="st22" d="M228.42,160.39l-1.4-1.44c3.52-3.37,6.32-5.6,8.41-6.71c2.09-1.1,3.88-1.66,5.36-1.66
			c0.58,0,1.03,0.12,1.36,0.37c0.33,0.25,0.49,0.54,0.49,0.87c0,0.25-0.07,0.69-0.21,1.32l-1.86,8.29c2.8-3.11,6.31-6.01,10.53-8.7
			c2.25-1.4,4.1-2.1,5.55-2.1c1.07,0,1.9,0.34,2.51,1.03c0.6,0.69,0.9,1.68,0.9,2.97c0,0.85-0.12,1.81-0.37,2.88
			c-0.44,1.79-1.59,5.67-3.45,11.66c-1.75,5.6-2.63,9.32-2.63,11.16c0,0.56,0.08,0.99,0.25,1.27c0.17,0.28,0.4,0.42,0.7,0.42
			c0.8,0,2.05-0.77,3.75-2.31c1.21-1.1,2.42-2.11,3.63-3.05l1.03,1.48c-2.53,2.79-5.15,5.03-7.87,6.72
			c-1.73,1.09-3.16,1.64-4.28,1.64c-1.04,0-1.85-0.38-2.43-1.13c-0.58-0.76-0.87-1.98-0.87-3.69c0-2.44,1.52-8.53,4.57-18.25
			c0.93-3.46,1.4-5.48,1.4-6.06c0-0.85-0.51-1.28-1.52-1.28c-1.1,0-2.51,0.58-4.24,1.73c-2.58,1.71-4.74,3.71-6.47,6.02
			c-1.1,1.49-2.02,3.85-2.76,7.09l-3.34,14.4h-6.14c1.15-4.12,2.16-8.07,3.01-11.84l3.67-15.68c0.14-0.63,0.21-1.09,0.21-1.36
			c0-0.74-0.27-1.11-0.82-1.11c-0.44,0-1.07,0.29-1.9,0.87C231.49,157.38,229.9,158.76,228.42,160.39z"/>
		<path class="st22" d="M293.49,176.42l0.87,2.39c-6.54,5.13-12.06,7.7-16.56,7.7c-2.39,0-4.13-0.85-5.21-2.55
			c-1.09-1.7-1.63-3.86-1.63-6.47c0-4.34,1.15-8.8,3.46-13.39c2.31-4.59,5.11-8.1,8.4-10.55c2.58-1.89,5.49-2.84,8.73-2.84
			c2.03,0,3.57,0.39,4.61,1.15c1.04,0.77,1.57,1.7,1.57,2.8c0,0.85-0.28,1.55-0.82,2.08c-0.55,0.54-1.32,0.8-2.31,0.8
			c-0.96,0-2.2-0.44-3.71-1.32c-1.57-0.93-2.87-1.4-3.91-1.4c-1.35,0-2.68,0.61-4.02,1.83c-1.33,1.22-2.6,3.58-3.81,7.09
			c-1.21,3.51-1.81,7.03-1.81,10.57c0,2.61,0.51,4.62,1.52,6.05c0.74,1.1,1.79,1.65,3.13,1.65
			C285.21,182.02,289.05,180.15,293.49,176.42z"/>
		<path class="st22" d="M326.03,175.02l1.36,1.81c-6.73,6.4-12.5,9.6-17.3,9.6c-1.95,0-3.44-0.66-4.47-1.98s-1.54-3.43-1.54-6.34
			c0-5.88,1.78-11.73,5.35-17.55c4.01-6.62,8.8-9.93,14.38-9.93c1.95,0,3.44,0.49,4.47,1.46c1.03,0.97,1.55,2.31,1.55,4.02
			c0,1.79-0.62,3.54-1.85,5.27c-1.24,1.73-3.45,3.53-6.63,5.4c-1.59,0.91-5,2.54-10.22,4.9c-0.25,1.48-0.37,2.9-0.37,4.24
			c0,1.95,0.31,3.31,0.93,4.08c0.62,0.77,1.52,1.15,2.7,1.15c1.13,0,2.36-0.31,3.71-0.95C319.89,179.36,322.54,177.63,326.03,175.02
			z M311.61,169.04c4.42-1.98,7.74-4.11,9.97-6.39c1.51-1.59,2.27-3.17,2.27-4.74c0-1.18-0.31-2.12-0.93-2.82
			c-0.62-0.7-1.42-1.05-2.41-1.05c-1.02,0-2,0.39-2.97,1.15c-1.29,1.02-2.38,2.55-3.25,4.61
			C313.02,162.84,312.13,165.91,311.61,169.04z"/>
	</g>
	<g>
		<path class="st22" d="M357.79,238.21c-15.57-3.6-30.25,8.78-47.26,24.73c-31.89,29.91-68.38,26.73-84.75,7.01
			c-10.87-13.1-9.29-33.9,1.38-44.97c-7.98,11.59-5.46,28.85,6.26,39.35c21.54,19.3,46.8,12.24,68.07-5.9
			C322.26,240.73,338.33,229.29,357.79,238.21z"/>
		<g>
			<path class="st22" d="M227.17,224.98c-7.98,11.59-5.46,28.85,6.26,39.35c21.54,19.3,46.8,12.24,68.07-5.9
				c20.75-17.7,36.82-29.14,56.28-20.22c-18.16-7.15-33.83,4.54-53.27,21.72c-24.88,21.99-53.88,25.78-73.63,6.27
				C219.41,254.87,218.29,236.4,227.17,224.98z"/>
		</g>
	</g>
	<g>
		<g>
			<g>
				<path class="st22" d="M180.29,200.89c-22.25-1.08-42.59,14.07-45.43,33.84c-2.84,19.76,13.28,36.66,35.54,37.74
					c22.25,1.08,42.21-14.07,45.05-33.84C218.28,218.87,202.54,201.97,180.29,200.89z M192.89,236.68
					c-2.16,14.52-11.52,26.28-21.31,26.28c-9.8,0-16.32-11.77-14.17-26.28c2.16-14.52,11.85-26.28,21.64-26.28
					C188.85,210.4,195.05,222.16,192.89,236.68z"/>
				<path class="st22" d="M178.85,205.62c-16-0.94-30.62,12.21-32.66,29.37c-2.04,17.15,9.55,31.82,25.55,32.76
					c16,0.94,30.35-12.21,32.39-29.37C206.16,221.22,194.84,206.55,178.85,205.62z M192.89,236.68
					c-2.16,14.52-11.52,26.28-21.31,26.28c-9.8,0-16.32-11.77-14.17-26.28c2.16-14.52,11.85-26.28,21.64-26.28
					C188.85,210.4,195.05,222.16,192.89,236.68z"/>
				<g>
					<path class="st22" d="M183.21,206.23c3.53,0.64,6.91,2.12,9.89,4.18c2.96,2.09,5.5,4.8,7.42,7.9
						c1.94,3.09,3.24,6.57,3.94,10.15c0.69,3.59,0.72,7.29,0.2,10.9c-0.54,3.61-1.62,7.14-3.23,10.41c-1.62,3.26-3.73,6.29-6.3,8.87
						c-2.55,2.59-5.54,4.75-8.81,6.31c-3.27,1.54-6.81,2.52-10.4,2.7l1.33-0.21l1.31-0.27l1.3-0.32l1.28-0.38
						c1.69-0.55,3.33-1.26,4.88-2.1c3.12-1.67,5.94-3.88,8.34-6.45c4.82-5.15,7.96-11.79,8.95-18.74
						c1.05-6.93-0.14-14.24-3.71-20.32c-1.77-3.03-4.11-5.75-6.91-7.91c-1.39-1.09-2.9-2.04-4.49-2.83c-0.4-0.2-0.81-0.37-1.21-0.56
						c-0.41-0.18-0.83-0.33-1.24-0.5c-0.42-0.15-0.84-0.3-1.26-0.45L183.21,206.23z"/>
					<path class="st22" d="M172.71,205.94l-1.29,0.3c-0.43,0.12-0.85,0.23-1.28,0.36c-0.42,0.14-0.84,0.26-1.26,0.4
						c-0.41,0.15-0.83,0.29-1.24,0.46c-1.64,0.65-3.21,1.44-4.7,2.36c-3,1.81-5.67,4.12-7.95,6.75c-4.55,5.28-7.45,11.92-8.18,18.83
						c-0.79,6.88,0.72,14.04,4.47,19.9c1.87,2.92,4.28,5.52,7.11,7.56c1.41,1.03,2.93,1.93,4.52,2.66l1.21,0.52l1.24,0.46l1.26,0.41
						l1.28,0.35c-3.5-0.55-6.88-1.91-9.89-3.85c-3-1.96-5.6-4.55-7.62-7.53c-2.04-2.97-3.47-6.35-4.31-9.86
						c-0.82-3.52-1.02-7.18-0.63-10.76c0.4-3.58,1.35-7.11,2.83-10.39c1.49-3.28,3.47-6.34,5.9-8.98c2.42-2.66,5.27-4.91,8.41-6.63
						c1.57-0.85,3.22-1.56,4.91-2.12c0.42-0.14,0.85-0.26,1.28-0.39c0.43-0.12,0.86-0.22,1.29-0.33c0.43-0.09,0.87-0.17,1.31-0.26
						L172.71,205.94z"/>
				</g>
			</g>
			<g>
				<path class="st22" d="M74.27,264.26c-4.16-0.29-8.15-0.02-11.77,0.88c4.7-4.79,13.4-7.64,22.4-9.92
					c20.83-5.28,47.37-17.52,53.29-33.39c8.75-23.43-6.68-40.5-32.61-42.15c-22.69-1.44-42.96,7.69-49.14,26.3
					c-3.78,11.38,3.4,25.73,17.75,25.4c10.63-0.24,16.8-9.26,19.16-15.75c-6.19,5.5-15.53,1.67-16.28-5.82
					c-0.97-9.74,7-21.73,23.53-20.82c13.12,0.72,20.75,13.33,14.53,27.03c-4.21,9.27-18.85,20.01-36.57,27.58
					C51.85,255.03,34.03,273.87,49.08,299c0,0,2.25-12.68,19.42-14.02c13.35-1.04,29.46,9.93,45.61,10.81
					c9.27,0.51,24.32-5.81,28.36-13.15C124.1,286.62,105.61,266.46,74.27,264.26z"/>
				<g>
					<path class="st22" d="M116.28,286.61c-12.9-3.15-32.56-15.84-50.81-12.69C51.45,276.35,47.65,291.3,49.08,299
						c0,0,2.25-12.68,19.42-14.02c13.35-1.04,29.46,9.93,45.61,10.81c9.27,0.51,24.32-5.81,28.36-13.15
						C134.46,287.36,127.29,289.3,116.28,286.61z"/>
					<path class="st22" d="M74.74,223.63c-10.3-2.43-9.37-15.21-5.28-22.93c4.05-7.64,13.71-16.3,30.35-16.3
						c16.63,0,34.69,9.61,28.66,31.69c-3.05,11.18-17.42,20.57-32.82,27.31c-15.52,6.8-31.46,15.17-33.15,21.72
						c4.7-4.79,13.4-7.64,22.4-9.92c20.83-5.28,47.37-17.52,53.29-33.39c8.75-23.43-6.68-40.5-32.61-42.15
						c-22.69-1.44-42.96,7.69-49.14,26.3c-3.78,11.38,3.4,25.73,17.75,25.4c10.63-0.24,16.8-9.26,19.16-15.75
						C89.8,220.26,84.01,225.83,74.74,223.63z"/>
				</g>
				<g>
					<path class="st22" d="M49.08,299c-0.48-2.32-0.47-4.73-0.15-7.09c0.32-2.36,0.96-4.68,1.92-6.88c0.96-2.19,2.29-4.24,3.94-6.01
						c0.83-0.88,1.75-1.68,2.73-2.39c0.98-0.71,2.05-1.3,3.15-1.82c1.1-0.51,2.27-0.88,3.44-1.19c1.19-0.27,2.37-0.46,3.57-0.59
						c2.39-0.26,4.8-0.28,7.19-0.1c4.79,0.36,9.46,1.48,14,2.9c4.54,1.45,8.95,3.21,13.32,5.01c4.37,1.8,8.71,3.67,13.2,4.99
						c4.49,1.24,9.2,1.98,13.85,1.42c2.32-0.26,4.61-0.82,6.82-1.63c1.11-0.4,2.19-0.87,3.25-1.37c0.53-0.25,1.06-0.52,1.59-0.78
						l1.57-0.83l-1.52,0.92c-0.52,0.29-1.03,0.59-1.55,0.87c-1.05,0.55-2.12,1.07-3.22,1.52c-2.19,0.91-4.5,1.59-6.86,1.96
						c-2.37,0.36-4.78,0.39-7.16,0.19c-2.39-0.21-4.73-0.67-7.06-1.25c-2.32-0.61-4.56-1.4-6.79-2.23
						c-2.22-0.83-4.42-1.72-6.61-2.59c-4.38-1.76-8.77-3.5-13.25-4.9c-4.47-1.42-9.05-2.52-13.7-2.92c-2.32-0.2-4.66-0.22-6.97,0
						c-1.16,0.11-2.31,0.28-3.43,0.52c-1.12,0.27-2.22,0.59-3.28,1.05c-1.05,0.46-2.07,1-3.02,1.65c-0.95,0.65-1.83,1.4-2.65,2.21
						c-1.62,1.64-2.96,3.58-3.97,5.68c-1.02,2.1-1.76,4.34-2.17,6.66c-0.21,1.16-0.33,2.33-0.37,3.5
						C48.86,296.65,48.91,297.83,49.08,299z"/>
					<path class="st22" d="M62.49,265.14c0.29-1.11,0.89-2.12,1.59-3.03c0.7-0.91,1.51-1.74,2.36-2.52c0.85-0.78,1.74-1.5,2.66-2.19
						c0.92-0.7,1.86-1.36,2.81-1.99c3.83-2.55,7.86-4.77,11.95-6.87c4.09-2.09,8.27-4.01,12.46-5.88c4.16-1.89,8.24-3.97,12.15-6.32
						c3.91-2.35,7.65-4.98,11.01-8.02c1.66-1.54,3.24-3.17,4.58-4.97c0.68-0.89,1.3-1.83,1.86-2.8c0.56-0.97,1.04-1.98,1.42-3.02
						c0.21-0.52,0.35-1.05,0.52-1.58l0.4-1.64c0.07-0.27,0.12-0.55,0.17-0.83l0.15-0.83c0.11-0.55,0.17-1.11,0.24-1.67
						c0.25-2.23,0.25-4.48-0.1-6.68c-0.35-2.2-1.05-4.33-2.1-6.29c-1.06-1.95-2.47-3.7-4.11-5.2c-0.39-0.39-0.84-0.73-1.26-1.09
						c-0.43-0.35-0.89-0.67-1.34-1c-0.47-0.3-0.93-0.62-1.41-0.9c-0.49-0.27-0.96-0.58-1.47-0.82c-1.99-1.03-4.1-1.84-6.27-2.46
						c-2.17-0.62-4.4-1.03-6.64-1.26c-1.12-0.11-2.25-0.19-3.38-0.21l-0.85-0.02c-0.28,0-0.57,0.01-0.85,0.02l-1.7,0.05
						c-0.57,0-1.13,0.08-1.69,0.13l-1.69,0.16l-1.67,0.28l-0.84,0.14c-0.28,0.04-0.55,0.13-0.83,0.19l-1.65,0.4
						c-0.55,0.14-1.08,0.33-1.62,0.5l-0.81,0.26c-0.27,0.08-0.53,0.2-0.79,0.3l-1.57,0.62c-2.05,0.93-4.02,2.04-5.85,3.35
						c-1.83,1.32-3.5,2.84-4.99,4.54c-1.49,1.69-2.77,3.57-3.79,5.56c-1,2.01-1.73,4.17-2.17,6.38c-0.43,2.21-0.57,4.49-0.25,6.71
						c0.32,2.2,1.16,4.37,2.7,5.98c1.52,1.63,3.64,2.6,5.87,2.97c2.22,0.44,4.53,0.46,6.73-0.07c2.2-0.56,4.27-1.6,6.07-3
						c0.92-0.68,1.75-1.47,2.56-2.28c0.79-0.83,1.54-1.69,2.26-2.59c-0.69,0.92-1.41,1.81-2.19,2.66c-0.79,0.83-1.61,1.65-2.51,2.37
						c-1.78,1.46-3.87,2.56-6.11,3.18c-2.25,0.59-4.63,0.62-6.91,0.22c-2.29-0.33-4.58-1.3-6.25-3.01c-0.84-0.85-1.5-1.86-1.98-2.93
						c-0.49-1.08-0.8-2.22-0.99-3.38c-0.37-2.32-0.25-4.69,0.16-6.98c0.42-2.29,1.14-4.53,2.15-6.64c1.04-2.1,2.34-4.05,3.86-5.83
						c1.52-1.77,3.23-3.38,5.11-4.77c1.89-1.37,3.93-2.53,6.05-3.5l1.62-0.65c0.27-0.1,0.54-0.23,0.82-0.32l0.83-0.27
						c0.56-0.17,1.11-0.37,1.67-0.52l1.7-0.42c0.28-0.06,0.56-0.15,0.85-0.2l0.86-0.15l1.72-0.3l1.74-0.18
						c0.58-0.05,1.16-0.14,1.74-0.14l1.74-0.06c0.29-0.01,0.58-0.02,0.87-0.03l0.87,0.01c1.16,0.02,2.32,0.09,3.48,0.21
						c2.32,0.23,4.62,0.64,6.86,1.27c2.25,0.63,4.44,1.46,6.53,2.53c0.53,0.25,1.03,0.57,1.54,0.85c0.51,0.29,0.99,0.63,1.49,0.94
						c0.47,0.35,0.96,0.68,1.42,1.05l0.68,0.56c0.23,0.18,0.45,0.38,0.66,0.59c1.73,1.61,3.23,3.48,4.35,5.57
						c1.11,2.09,1.85,4.38,2.21,6.71c0.36,2.33,0.35,4.71,0.08,7.03c-0.07,0.58-0.13,1.16-0.25,1.74l-0.16,0.86
						c-0.05,0.29-0.11,0.57-0.18,0.86l-0.42,1.7c-0.17,0.57-0.34,1.14-0.56,1.69c-0.42,1.11-0.93,2.18-1.52,3.19
						c-0.59,1.02-1.24,2-1.96,2.92c-1.41,1.87-3.04,3.54-4.75,5.11c-1.72,1.55-3.54,2.99-5.43,4.33c-1.89,1.33-3.85,2.56-5.84,3.72
						c-3.98,2.32-8.12,4.36-12.34,6.2c-4.21,1.81-8.39,3.68-12.51,5.7c-4.11,2.01-8.18,4.13-12.05,6.58
						c-0.97,0.61-1.92,1.25-2.84,1.92c-0.93,0.67-1.83,1.37-2.69,2.12c-0.86,0.75-1.69,1.54-2.41,2.43
						C63.45,263.05,62.82,264.03,62.49,265.14z"/>
				</g>
			</g>
		</g>
		<g>
			<path class="st22" d="M50.44,244.99c18.74-5.51,40.03-2.39,65.26,18.73c40.06,33.53,82.38,30.57,101.54,7.48
				c12.73-15.33,10.87-39.69-1.62-52.65c9.34,13.57,6.39,33.77-7.33,46.07c-25.22,22.59-56.95,13.68-86.46-10.05
				C101.67,238.36,76.52,231.84,50.44,244.99z"/>
			<g>
				<path class="st22" d="M50.44,244.99c26.08-13.15,51.23-6.63,71.4,9.58c29.5,23.73,61.24,32.64,86.46,10.05
					c13.72-12.3,16.67-32.5,7.33-46.07c10.39,13.37,9.09,35-4.35,48.26c-23.12,22.83-58.46,17.8-91.49-9.19
					C97.94,239.78,74.07,234.39,50.44,244.99z"/>
			</g>
		</g>
	</g>
	<g>
		<path class="st22" d="M272.17,203.8c-21.35-1.03-40.86,13.5-43.58,32.46c-2.72,18.96,12.74,35.17,34.09,36.21
			c21.35,1.03,40.5-13.5,43.22-32.46C308.62,221.05,293.52,204.84,272.17,203.8z M284.26,238.14
			c-2.07,13.93-11.05,25.22-20.45,25.22c-9.4,0-15.66-11.29-13.59-25.22c2.07-13.93,11.37-25.22,20.76-25.22
			C280.39,212.92,286.33,224.21,284.26,238.14z"/>
		<path class="st22" d="M270.79,208.34c-15.35-0.9-29.38,11.72-31.33,28.18c-1.96,16.46,9.16,30.53,24.51,31.43
			c15.35,0.9,29.12-11.72,31.07-28.18C296.99,223.3,286.14,209.23,270.79,208.34z M284.26,238.14
			c-2.07,13.93-11.05,25.22-20.45,25.22c-9.4,0-15.66-11.29-13.59-25.22c2.07-13.93,11.37-25.22,20.76-25.22
			C280.39,212.92,286.33,224.21,284.26,238.14z"/>
		<g>
			<path class="st22" d="M274.98,208.93c3.39,0.62,6.63,2.03,9.48,4.01c2.84,2,5.28,4.61,7.12,7.58c1.86,2.97,3.11,6.3,3.78,9.74
				c0.66,3.44,0.69,7,0.19,10.46c-0.51,3.46-1.55,6.85-3.09,9.99c-1.55,3.13-3.58,6.03-6.04,8.51c-2.45,2.49-5.31,4.56-8.45,6.06
				c-3.14,1.47-6.54,2.42-9.98,2.59l1.27-0.2l1.26-0.26l1.24-0.31l1.23-0.37c1.62-0.53,3.19-1.21,4.69-2.02
				c3-1.6,5.7-3.72,8.01-6.19c4.62-4.94,7.64-11.31,8.59-17.98c1.01-6.65-0.14-13.66-3.55-19.5c-1.7-2.91-3.95-5.52-6.63-7.59
				c-1.34-1.05-2.78-1.96-4.31-2.71c-0.38-0.19-0.77-0.36-1.16-0.54c-0.39-0.17-0.79-0.32-1.19-0.48c-0.4-0.15-0.81-0.28-1.21-0.43
				L274.98,208.93z"/>
			<path class="st22" d="M264.91,208.65l-1.24,0.29c-0.41,0.11-0.82,0.22-1.22,0.34c-0.4,0.13-0.81,0.25-1.21,0.39
				c-0.4,0.15-0.8,0.28-1.19,0.44c-1.57,0.62-3.08,1.38-4.51,2.26c-2.87,1.74-5.44,3.95-7.63,6.48c-4.36,5.06-7.15,11.44-7.85,18.06
				c-0.76,6.6,0.69,13.47,4.29,19.09c1.8,2.8,4.11,5.29,6.82,7.26c1.35,0.99,2.81,1.85,4.34,2.55l1.16,0.5l1.19,0.44l1.21,0.39
				l1.23,0.33c-3.36-0.53-6.6-1.83-9.49-3.7c-2.87-1.89-5.37-4.36-7.31-7.22c-1.96-2.85-3.33-6.09-4.13-9.46
				c-0.79-3.37-0.98-6.88-0.6-10.32c0.39-3.44,1.3-6.82,2.72-9.97c1.43-3.14,3.33-6.08,5.66-8.62c2.32-2.55,5.05-4.71,8.06-6.36
				c1.51-0.81,3.09-1.5,4.71-2.03c0.4-0.14,0.82-0.25,1.22-0.37c0.41-0.12,0.83-0.21,1.24-0.32c0.42-0.09,0.84-0.17,1.25-0.25
				L264.91,208.65z"/>
		</g>
	</g>
</g>
<g>
	<g>
		
			<linearGradient id="SVGID_00000044887394627177487230000003981847977677692820_" gradientUnits="userSpaceOnUse" x1="770.6143" y1="220.6978" x2="849.6947" y2="220.6978">
			<stop  offset="0.0955" style="stop-color:#CE8A2D"/>
			<stop  offset="0.0981" style="stop-color:#CE8B2E"/>
			<stop  offset="0.3064" style="stop-color:#E2B65A"/>
			<stop  offset="0.4678" style="stop-color:#EED176"/>
			<stop  offset="0.5618" style="stop-color:#F3DB80"/>
			<stop  offset="0.9326" style="stop-color:#BB8532"/>
		</linearGradient>
		<path style="fill:url(#SVGID_00000044887394627177487230000003981847977677692820_);" d="M828.89,245.56
			c0.11-5.27,0.4-10.88,1.01-16.11c1.99-17.08,5.56-24.3,5.56-24.3c-3.52,3.84-8.13,6.33-8.13,6.33
			c-3.75,5.55-8.61,12.36-11.82,21.53c-0.67,1.9-1.26,3.81-1.79,5.71c-5.99-2.11-12.04-3.41-17.91-3.39
			c-6.97,0.03-11.63,1.31-14.68,2.79c6.04-16.86,38.91-13.79,50.88-41.56c5.91-13.72-1.33-24.22-1.33-24.22
			c-1.93,14.95-26.82,26.95-41.63,39.32c-17.23,14.4-20.29,32.82-17.54,45.44c3.16-3.53,9.49-6.46,18.4-7.31
			c6.67-0.63,13.76,1.35,20.78,3.63c-0.88,6.42-1.1,11.96-1.02,15.6c0,0,9.33-2.08,19.64-1.36c0,0-0.24-3.64-0.38-9.11
			c1.28,0.19,2.54,0.31,3.78,0.34c6.38,0.18,12.35-1.3,16.99-8.02C843.47,253.04,836.39,249.44,828.89,245.56z"/>
		
			<linearGradient id="SVGID_00000117652389114792074050000008905648806788525189_" gradientUnits="userSpaceOnUse" x1="810.5978" y1="282.6354" x2="810.5978" y2="172.3547">
			<stop  offset="0.0955" style="stop-color:#946338"/>
			<stop  offset="0.3015" style="stop-color:#BF8D45"/>
			<stop  offset="0.466" style="stop-color:#DBA84D"/>
			<stop  offset="0.5618" style="stop-color:#E5B250"/>
			<stop  offset="0.9326" style="stop-color:#946338"/>
		</linearGradient>
		<path style="fill:url(#SVGID_00000117652389114792074050000008905648806788525189_);" d="M797.22,216.05
			c10.02-7.23,23.77-14.68,29.25-21.73c4.44-5.71,6.05-16.11,4.2-21.97c0,0,7.24,10.5,1.33,24.22
			c-11.97,27.76-44.84,24.7-50.88,41.56C782.51,232.83,787.14,223.32,797.22,216.05z M819.76,248.92
			c5.31,2.28,10.05,4.35,13.82,4.83c7.97,1.02,12.26-0.15,16.11-2.87c-6.23,2.15-13.3-1.45-20.81-5.33
			c0.11-5.27,0.4-10.88,1.01-16.11c1.99-17.08,5.56-24.3,5.56-24.3c-1.37,1.49-2.9,2.77-4.26,3.79
			c-3.81,8.85-8.71,24.37-10.53,34.04C820.29,244.99,819.99,246.98,819.76,248.92z M819.76,248.92c-8.53-3.66-18.53-7.85-28.36-6.85
			c-15.29,1.56-19.9,10.42-19.9,15.04c3.16-3.53,9.49-6.46,18.4-7.31c6.67-0.63,13.76,1.35,20.78,3.63
			c-0.88,6.42-1.1,11.96-1.02,15.6c0,0,3.88-0.87,9.4-1.29C818.92,264.42,818.77,257.11,819.76,248.92z"/>
		<g>
			
				<linearGradient id="SVGID_00000090255478171015784080000013695872683689744575_" gradientUnits="userSpaceOnUse" x1="824.9607" y1="267.7539" x2="824.9607" y2="208.7055">
				<stop  offset="0.0955" style="stop-color:#E5B250"/>
				<stop  offset="0.277" style="stop-color:#F1D272"/>
				<stop  offset="0.457" style="stop-color:#FBEC8E"/>
				<stop  offset="0.5618" style="stop-color:#FFF698"/>
				<stop  offset="0.9326" style="stop-color:#E5B250"/>
			</linearGradient>
			<path style="fill:url(#SVGID_00000090255478171015784080000013695872683689744575_);" d="M819.06,267.75
				c-0.43-5.03-0.45-10.11-0.1-15.16c0.16-2.53,0.45-5.05,0.83-7.56c0.38-2.51,0.92-4.99,1.51-7.46c0.61-2.46,1.27-4.9,1.98-7.33
				c0.73-2.42,1.48-4.84,2.31-7.23c0.81-2.39,1.69-4.77,2.61-7.12c0.93-2.35,1.9-4.68,3.01-6.96c-0.89,2.37-1.72,4.74-2.51,7.14
				c-0.8,2.39-1.56,4.79-2.3,7.2c-1.46,4.82-2.86,9.66-4.04,14.55c-1.23,4.88-2.05,9.82-2.55,14.83
				C819.3,257.67,819.08,262.7,819.06,267.75z"/>
			
				<linearGradient id="SVGID_00000116944746495218838220000009829621543467347348_" gradientUnits="userSpaceOnUse" x1="770.9573" y1="249.2783" x2="850.0074" y2="249.2783">
				<stop  offset="0.0955" style="stop-color:#E5B250"/>
				<stop  offset="0.277" style="stop-color:#F1D272"/>
				<stop  offset="0.457" style="stop-color:#FBEC8E"/>
				<stop  offset="0.5618" style="stop-color:#FFF698"/>
				<stop  offset="0.9326" style="stop-color:#E5B250"/>
			</linearGradient>
			<path style="fill:url(#SVGID_00000116944746495218838220000009829621543467347348_);" d="M771.5,257.12
				c-0.01-1.84,0.54-3.67,1.42-5.3c0.88-1.64,2.08-3.09,3.48-4.32c0.33-0.33,0.71-0.6,1.08-0.88c0.37-0.28,0.73-0.58,1.14-0.81
				l1.19-0.74c0.41-0.22,0.83-0.42,1.24-0.64l0.62-0.32c0.21-0.09,0.43-0.18,0.65-0.26l1.3-0.52c0.44-0.16,0.89-0.28,1.33-0.42
				l0.67-0.2c0.22-0.07,0.44-0.14,0.67-0.19l1.36-0.3c0.45-0.1,0.9-0.22,1.37-0.27l1.38-0.2c0.46-0.06,0.92-0.15,1.38-0.17
				c1.86-0.18,3.73-0.18,5.58-0.03c3.71,0.31,7.35,1.18,10.87,2.3c3.52,1.14,6.93,2.54,10.31,4c3.37,1.46,6.71,2.98,10.13,4.23
				c1.72,0.6,3.45,1.13,5.24,1.37c1.81,0.25,3.62,0.42,5.44,0.41l0.68,0l0.68-0.03c0.46-0.01,0.91-0.07,1.36-0.11
				c0.9-0.12,1.8-0.26,2.67-0.52c1.76-0.48,3.42-1.29,4.95-2.29c-0.74,0.55-1.51,1.05-2.32,1.49c-0.81,0.44-1.67,0.79-2.55,1.08
				c-0.88,0.3-1.79,0.48-2.7,0.65c-0.46,0.06-0.92,0.14-1.38,0.17l-0.69,0.06l-0.69,0.03c-1.85,0.07-3.7-0.04-5.54-0.23
				c-0.92-0.1-1.86-0.26-2.76-0.49c-0.91-0.22-1.79-0.49-2.67-0.78c-1.76-0.59-3.47-1.26-5.18-1.96l-5.08-2.13
				c-3.38-1.42-6.77-2.8-10.24-3.91c-3.46-1.12-7.02-1.98-10.62-2.31c-1.8-0.17-3.61-0.19-5.41-0.05c-0.45,0.02-0.9,0.1-1.35,0.15
				l-1.35,0.17c-0.45,0.04-0.89,0.15-1.34,0.24l-1.33,0.27c-0.22,0.04-0.44,0.11-0.66,0.17l-0.65,0.18
				c-0.43,0.13-0.88,0.23-1.3,0.38l-1.27,0.47l-0.64,0.24l-0.61,0.29c-0.41,0.19-0.82,0.38-1.23,0.58l-1.17,0.68
				c-0.4,0.21-0.76,0.49-1.13,0.75l-0.55,0.39c-0.09,0.06-0.18,0.13-0.27,0.21l-0.26,0.22c-1.41,1.14-2.64,2.5-3.57,4.06
				c-0.21,0.4-0.44,0.8-0.63,1.21l-0.26,0.63c-0.09,0.21-0.18,0.42-0.24,0.64l-0.2,0.65c-0.07,0.22-0.1,0.44-0.15,0.67
				C771.56,256.21,771.55,256.66,771.5,257.12z"/>
			
				<linearGradient id="SVGID_00000001627658153174476440000009337909121330377882_" gradientUnits="userSpaceOnUse" x1="806.3462" y1="238.2651" x2="806.3462" y2="172.1912">
				<stop  offset="0.0955" style="stop-color:#E5B250"/>
				<stop  offset="0.277" style="stop-color:#F1D272"/>
				<stop  offset="0.457" style="stop-color:#FBEC8E"/>
				<stop  offset="0.5618" style="stop-color:#FFF698"/>
				<stop  offset="0.9326" style="stop-color:#E5B250"/>
			</linearGradient>
			<path style="fill:url(#SVGID_00000001627658153174476440000009337909121330377882_);" d="M781.12,238.13
				c0.42-1.77,1.03-3.5,1.77-5.18c0.74-1.67,1.58-3.3,2.55-4.86c0.23-0.4,0.49-0.77,0.74-1.16c0.26-0.38,0.5-0.77,0.78-1.14
				l0.81-1.11l0.85-1.08l0.43-0.54l0.45-0.52l0.91-1.03l0.95-0.99l0.48-0.5l0.5-0.47l1-0.95c0.34-0.31,0.7-0.6,1.04-0.9
				c0.69-0.61,1.43-1.16,2.15-1.72c1.47-1.1,2.97-2.14,4.47-3.18c3.02-2.05,6.08-4.03,9.11-6.04c3.04-2,6.06-4.03,8.94-6.21
				l1.07-0.83l0.54-0.42l0.52-0.43l1.04-0.87l1-0.91c1.31-1.23,2.58-2.51,3.58-3.98c1-1.47,1.79-3.1,2.42-4.77
				c0.64-1.68,1.12-3.43,1.46-5.2c0.35-1.77,0.55-3.58,0.57-5.39c0.01-0.91-0.03-1.81-0.12-2.71c-0.01-0.23-0.05-0.45-0.08-0.68
				l-0.1-0.67c-0.08-0.45-0.2-0.89-0.3-1.33c0.59,1.73,0.83,3.56,0.89,5.39c0.06,1.83-0.06,3.67-0.34,5.48
				c-0.29,1.81-0.72,3.61-1.32,5.35c-0.6,1.74-1.38,3.44-2.39,5c-0.27,0.38-0.52,0.78-0.81,1.14l-0.89,1.07
				c-0.3,0.36-0.63,0.67-0.95,1.01l-0.48,0.5l-0.5,0.47l-1.01,0.94l-1.05,0.9l-0.52,0.45l-0.54,0.43l-1.08,0.86
				c-2.9,2.24-5.93,4.28-8.97,6.3c-3.05,2-6.11,3.97-9.14,5.99l-2.26,1.52l-1.12,0.78c-0.37,0.26-0.75,0.52-1.1,0.79
				c-0.72,0.54-1.45,1.07-2.14,1.66c-0.35,0.29-0.7,0.57-1.04,0.86l-1,0.91l-0.5,0.45l-0.48,0.48l-0.96,0.95l-0.92,1l-0.46,0.5
				l-0.44,0.52c-1.19,1.36-2.26,2.82-3.28,4.32C783.86,231.38,782.21,234.65,781.12,238.13z"/>
		</g>
	</g>
	<g>
		<path d="M674.74,146.23h-1.84c0.26-2.48,0.39-4.35,0.39-5.62c0-1.81-0.49-3.25-1.46-4.3c-0.98-1.05-2.3-1.57-3.97-1.57
			c-2.59,0-4.84,0.94-6.77,2.81c-1.93,1.88-2.89,3.98-2.89,6.32c0,1.25,0.26,2.38,0.79,3.4c0.53,1.01,1.7,2.43,3.51,4.24
			c3.31,3.26,5.49,5.8,6.52,7.64c1.03,1.84,1.55,3.63,1.55,5.38c0,2.57-0.78,5.05-2.35,7.43c-1.57,2.38-3.88,4.35-6.93,5.89
			c-3.05,1.54-6.28,2.32-9.67,2.32c-3.35,0-6.17-0.87-8.47-2.62c-2.3-1.74-3.45-3.58-3.45-5.52c0-1.04,0.3-1.9,0.9-2.58
			c0.6-0.68,1.29-1.03,2.07-1.03c0.8,0,1.46,0.32,1.98,0.96c0.33,0.38,0.66,1.23,0.99,2.55c0.38,1.6,0.84,2.77,1.38,3.48
			c0.54,0.72,1.29,1.31,2.24,1.77c0.96,0.46,2,0.69,3.13,0.69c3.37,0,6.32-1.14,8.84-3.41c2.52-2.28,3.78-4.8,3.78-7.55
			c0-0.94-0.16-1.88-0.48-2.81c-0.32-0.93-0.9-1.99-1.75-3.17c-0.59-0.8-1.9-2.22-3.92-4.25c-2-1.98-3.27-3.34-3.78-4.07
			c-0.73-1.06-1.27-2.13-1.63-3.2c-0.35-1.07-0.53-2.14-0.53-3.2c0-2.15,0.72-4.3,2.16-6.47c1.44-2.17,3.31-3.9,5.6-5.18
			c2.3-1.29,4.91-1.93,7.83-1.93c1.46,0,3.26,0.22,5.41,0.67c1.23,0.24,2.29,0.41,3.18,0.53c-0.52,1.53-0.92,2.98-1.2,4.33
			C675.63,139.51,675.24,142.2,674.74,146.23z"/>
		<path d="M683.15,153.41l-1.56-1.2c2.35-2.59,4.5-4.44,6.44-5.53c1.94-1.1,3.6-1.64,4.96-1.64c0.75,0,1.33,0.17,1.73,0.49
			c0.4,0.33,0.6,0.78,0.6,1.34c0,0.68-0.76,3.58-2.29,8.7c-2.49,8.37-3.74,13.41-3.74,15.13c0,0.33,0.08,0.61,0.25,0.83
			c0.16,0.22,0.34,0.34,0.53,0.34c0.75,0,2.69-1.46,5.8-4.38l1.38,1.34c-3.23,3.04-5.59,4.98-7.07,5.83
			c-1.48,0.85-2.7,1.27-3.64,1.27c-0.83,0-1.48-0.26-1.96-0.78c-0.48-0.52-0.72-1.24-0.72-2.16c0-2.95,1.77-10.15,5.3-21.6
			c0.16-0.54,0.25-1.03,0.25-1.45c0-0.47-0.21-0.71-0.64-0.71c-0.47,0-1.01,0.19-1.61,0.56
			C686.56,150.18,685.22,151.38,683.15,153.41z M697.05,130c0.73,0,1.33,0.24,1.8,0.72c0.47,0.48,0.71,1.1,0.71,1.86
			c0,1.04-0.36,1.95-1.08,2.74c-0.72,0.79-1.53,1.18-2.42,1.18c-0.71,0-1.3-0.25-1.77-0.74c-0.47-0.49-0.71-1.14-0.71-1.94
			c0-1.06,0.34-1.96,1.03-2.71C695.29,130.37,696.1,130,697.05,130z"/>
		<path d="M704.64,153.51l-1.2-1.24c3.02-2.89,5.43-4.81,7.22-5.76c1.79-0.95,3.33-1.42,4.6-1.42c0.49,0,0.88,0.11,1.17,0.32
			c0.28,0.21,0.42,0.46,0.42,0.74c0,0.21-0.06,0.59-0.18,1.13l-1.59,7.11c2.4-2.67,5.41-5.15,9.04-7.47c1.93-1.2,3.52-1.8,4.77-1.8
			c0.92,0,1.63,0.29,2.15,0.88c0.52,0.59,0.78,1.44,0.78,2.55c0,0.73-0.11,1.56-0.32,2.48c-0.38,1.53-1.36,4.87-2.96,10.01
			c-1.5,4.81-2.25,8-2.25,9.58c0,0.48,0.07,0.85,0.21,1.09c0.14,0.24,0.34,0.36,0.6,0.36c0.68,0,1.76-0.66,3.22-1.98
			c1.04-0.94,2.07-1.81,3.11-2.62l0.88,1.27c-2.17,2.39-4.42,4.32-6.75,5.77c-1.48,0.94-2.71,1.41-3.68,1.41
			c-0.9,0-1.59-0.32-2.09-0.97c-0.5-0.65-0.74-1.7-0.74-3.16c0-2.1,1.31-7.32,3.92-15.66c0.8-2.97,1.2-4.7,1.2-5.2
			c0-0.73-0.44-1.1-1.31-1.1c-0.94,0-2.16,0.5-3.64,1.49c-2.22,1.46-4.07,3.19-5.55,5.17c-0.94,1.28-1.73,3.3-2.37,6.09l-2.86,12.36
			h-5.27c0.99-3.54,1.85-6.93,2.58-10.16l3.15-13.46c0.12-0.54,0.18-0.93,0.18-1.17c0-0.64-0.24-0.96-0.71-0.96
			c-0.38,0-0.92,0.25-1.63,0.75C707.28,150.92,705.91,152.11,704.64,153.51z"/>
		<path d="M760.5,167.27l0.74,2.05c-5.61,4.41-10.35,6.61-14.21,6.61c-2.05,0-3.54-0.73-4.47-2.19c-0.93-1.46-1.4-3.31-1.4-5.55
			c0-3.73,0.99-7.55,2.97-11.49c1.98-3.94,4.38-6.95,7.21-9.05c2.22-1.63,4.71-2.44,7.5-2.44c1.74,0,3.06,0.33,3.96,0.99
			c0.9,0.66,1.34,1.46,1.34,2.4c0,0.73-0.24,1.33-0.71,1.79c-0.47,0.46-1.13,0.69-1.98,0.69c-0.83,0-1.89-0.38-3.18-1.13
			c-1.34-0.8-2.46-1.2-3.36-1.2c-1.16,0-2.3,0.52-3.45,1.57c-1.14,1.05-2.23,3.08-3.27,6.09c-1.04,3.01-1.56,6.04-1.56,9.07
			c0,2.24,0.44,3.97,1.31,5.19c0.64,0.94,1.53,1.41,2.69,1.41C753.39,172.08,756.68,170.47,760.5,167.27z"/>
		<path d="M788.42,166.06l1.17,1.56c-5.78,5.49-10.73,8.24-14.85,8.24c-1.67,0-2.95-0.56-3.84-1.7c-0.88-1.13-1.33-2.95-1.33-5.44
			c0-5.04,1.53-10.07,4.6-15.06c3.44-5.68,7.55-8.52,12.34-8.52c1.67,0,2.95,0.42,3.84,1.25c0.88,0.84,1.33,1.99,1.33,3.45
			c0,1.53-0.53,3.04-1.59,4.53c-1.06,1.49-2.96,3.03-5.69,4.63c-1.37,0.78-4.29,2.18-8.77,4.21c-0.21,1.27-0.32,2.49-0.32,3.64
			c0,1.67,0.27,2.84,0.8,3.5c0.53,0.66,1.3,0.99,2.32,0.99c0.97,0,2.03-0.27,3.18-0.81C783.15,169.79,785.43,168.3,788.42,166.06z
			 M776.05,160.94c3.79-1.7,6.65-3.52,8.56-5.48c1.3-1.37,1.94-2.72,1.94-4.07c0-1.01-0.26-1.82-0.79-2.42
			c-0.53-0.6-1.22-0.9-2.07-0.9c-0.87,0-1.72,0.33-2.55,0.99c-1.11,0.87-2.04,2.19-2.79,3.96
			C777.26,155.61,776.49,158.25,776.05,160.94z"/>
	</g>
	<g>
		
			<linearGradient id="SVGID_00000111168930026636877890000005890976119440390027_" gradientUnits="userSpaceOnUse" x1="-2552.6169" y1="-472.3501" x2="-2434.2539" y2="-454.6793" gradientTransform="matrix(-0.989 -0.1477 -0.1477 0.989 -1778.6206 324.8767)">
			<stop  offset="0.0955" style="stop-color:#E5B250"/>
			<stop  offset="0.277" style="stop-color:#F1D272"/>
			<stop  offset="0.457" style="stop-color:#FBEC8E"/>
			<stop  offset="0.5618" style="stop-color:#FFF698"/>
			<stop  offset="0.9326" style="stop-color:#E5B250"/>
		</linearGradient>
		<path style="fill:url(#SVGID_00000111168930026636877890000005890976119440390027_);" d="M815.68,220.3
			c-13.36-3.09-25.96,7.53-40.56,21.22c-27.37,25.67-58.69,22.94-72.74,6.02c-9.33-11.24-7.97-29.1,1.19-38.6
			c-6.85,9.95-4.69,24.76,5.38,33.78c18.49,16.56,40.17,10.51,58.43-5.07C785.19,222.47,798.98,212.64,815.68,220.3z"/>
		<g>
			
				<linearGradient id="SVGID_00000129894744844701572560000003911832484809416606_" gradientUnits="userSpaceOnUse" x1="-3213.7749" y1="255.187" x2="-3213.7749" y2="208.9449" gradientTransform="matrix(-1 0 0 1 -2456.6709 0)">
				<stop  offset="0.0955" style="stop-color:#946338"/>
				<stop  offset="0.3015" style="stop-color:#BF8D45"/>
				<stop  offset="0.466" style="stop-color:#DBA84D"/>
				<stop  offset="0.5618" style="stop-color:#E5B250"/>
				<stop  offset="0.9326" style="stop-color:#946338"/>
			</linearGradient>
			<path style="fill:url(#SVGID_00000129894744844701572560000003911832484809416606_);" d="M703.57,208.94
				c-6.85,9.95-4.69,24.76,5.38,33.78c18.49,16.56,40.17,10.51,58.43-5.07c17.81-15.19,31.61-25.01,48.31-17.35
				c-15.59-6.14-29.04,3.9-45.73,18.64c-21.36,18.87-46.24,22.12-63.2,5.38C696.91,234.6,695.95,218.74,703.57,208.94z"/>
		</g>
	</g>
	<g>
		<g>
			<g>
				
					<linearGradient id="SVGID_00000070108214574979488370000014229465943247813008_" gradientUnits="userSpaceOnUse" x1="624.062" y1="218.9888" x2="693.7919" y2="218.9888">
					<stop  offset="0.0955" style="stop-color:#CE8A2D"/>
					<stop  offset="0.0981" style="stop-color:#CE8B2E"/>
					<stop  offset="0.3064" style="stop-color:#E2B65A"/>
					<stop  offset="0.4678" style="stop-color:#EED176"/>
					<stop  offset="0.5618" style="stop-color:#F3DB80"/>
					<stop  offset="0.9326" style="stop-color:#BB8532"/>
				</linearGradient>
				<path style="fill:url(#SVGID_00000070108214574979488370000014229465943247813008_);" d="M663.33,188.27
					c-19.1-0.93-36.56,12.08-38.99,29.04c-2.43,16.96,11.4,31.47,30.5,32.39c19.1,0.92,36.23-12.08,38.67-29.04
					C695.94,203.7,682.43,189.2,663.33,188.27z M674.15,218.99c-1.85,12.46-9.88,22.56-18.29,22.56c-8.41,0-14.01-10.1-12.16-22.56
					c1.85-12.46,10.17-22.56,18.58-22.56C670.68,196.43,676,206.53,674.15,218.99z"/>
				
					<linearGradient id="SVGID_00000183957913275265440130000015572298902092875915_" gradientUnits="userSpaceOnUse" x1="658.9269" y1="245.6912" x2="658.9269" y2="192.2865">
					<stop  offset="0.0955" style="stop-color:#946338"/>
					<stop  offset="0.3015" style="stop-color:#BF8D45"/>
					<stop  offset="0.466" style="stop-color:#DBA84D"/>
					<stop  offset="0.5618" style="stop-color:#E5B250"/>
					<stop  offset="0.9326" style="stop-color:#946338"/>
				</linearGradient>
				<path style="fill:url(#SVGID_00000183957913275265440130000015572298902092875915_);" d="M662.09,192.33
					c-13.73-0.8-26.28,10.48-28.03,25.21c-1.75,14.72,8.2,27.31,21.93,28.12c13.73,0.8,26.05-10.48,27.8-25.21
					C685.54,205.72,675.83,193.13,662.09,192.33z M674.15,218.99c-1.85,12.46-9.88,22.56-18.29,22.56
					c-8.41,0-14.01-10.1-12.16-22.56c1.85-12.46,10.17-22.56,18.58-22.56C670.68,196.43,676,206.53,674.15,218.99z"/>
				<g>
					
						<linearGradient id="SVGID_00000000917826827934080590000008933781151619909304_" gradientUnits="userSpaceOnUse" x1="673.0818" y1="245.2229" x2="669.3638" y2="192.0541">
						<stop  offset="0.0955" style="stop-color:#E5B250"/>
						<stop  offset="0.277" style="stop-color:#F1D272"/>
						<stop  offset="0.457" style="stop-color:#FBEC8E"/>
						<stop  offset="0.5618" style="stop-color:#FFF698"/>
						<stop  offset="0.9326" style="stop-color:#E5B250"/>
					</linearGradient>
					<path style="fill:url(#SVGID_00000000917826827934080590000008933781151619909304_);" d="M665.84,192.86
						c3.03,0.55,5.93,1.82,8.49,3.59c2.54,1.79,4.72,4.12,6.37,6.78c1.67,2.65,2.78,5.64,3.38,8.71c0.59,3.08,0.62,6.26,0.17,9.36
						c-0.46,3.1-1.39,6.13-2.77,8.93c-1.39,2.8-3.2,5.4-5.41,7.61c-2.19,2.22-4.75,4.08-7.56,5.42c-2.81,1.32-5.85,2.16-8.92,2.32
						l1.14-0.18l1.13-0.23l1.11-0.28l1.1-0.33c1.45-0.47,2.86-1.08,4.19-1.81c2.68-1.43,5.1-3.33,7.16-5.54
						c4.14-4.42,6.83-10.12,7.68-16.09c0.9-5.95-0.12-12.22-3.18-17.44c-1.52-2.6-3.53-4.93-5.93-6.79
						c-1.19-0.94-2.49-1.75-3.86-2.43c-0.34-0.17-0.69-0.32-1.04-0.48c-0.35-0.15-0.71-0.28-1.06-0.43
						c-0.36-0.13-0.72-0.25-1.08-0.38L665.84,192.86z"/>
					
						<linearGradient id="SVGID_00000181060173060054336230000016743467541989338261_" gradientUnits="userSpaceOnUse" x1="647.7858" y1="246.1311" x2="644.0649" y2="192.9207">
						<stop  offset="0.0955" style="stop-color:#E5B250"/>
						<stop  offset="0.277" style="stop-color:#F1D272"/>
						<stop  offset="0.457" style="stop-color:#FBEC8E"/>
						<stop  offset="0.5618" style="stop-color:#FFF698"/>
						<stop  offset="0.9326" style="stop-color:#E5B250"/>
					</linearGradient>
					<path style="fill:url(#SVGID_00000181060173060054336230000016743467541989338261_);" d="M656.83,192.61l-1.11,0.25
						c-0.37,0.1-0.73,0.2-1.09,0.31c-0.36,0.12-0.72,0.22-1.08,0.35c-0.35,0.13-0.71,0.25-1.06,0.39c-1.4,0.56-2.75,1.24-4.03,2.02
						c-2.57,1.56-4.87,3.54-6.82,5.8c-3.9,4.53-6.39,10.23-7.02,16.16c-0.68,5.91,0.62,12.05,3.84,17.08
						c1.61,2.51,3.67,4.74,6.11,6.49c1.21,0.89,2.51,1.65,3.88,2.28l1.04,0.45l1.06,0.39l1.08,0.35l1.1,0.3
						c-3.01-0.47-5.91-1.64-8.49-3.31c-2.57-1.69-4.8-3.9-6.54-6.46c-1.75-2.55-2.98-5.45-3.7-8.47c-0.7-3.02-0.88-6.16-0.54-9.24
						c0.35-3.08,1.16-6.1,2.43-8.92c1.28-2.81,2.98-5.44,5.06-7.71c2.07-2.28,4.52-4.22,7.21-5.69c1.35-0.73,2.76-1.34,4.21-1.82
						c0.36-0.12,0.73-0.22,1.09-0.34c0.37-0.1,0.74-0.19,1.11-0.28c0.37-0.08,0.75-0.15,1.12-0.22L656.83,192.61z"/>
				</g>
			</g>
			<g>
				
					<linearGradient id="SVGID_00000053534237639489437490000006202014821950581182_" gradientUnits="userSpaceOnUse" x1="545.9996" y1="221.2062" x2="630.881" y2="221.2062">
					<stop  offset="0.0955" style="stop-color:#CE8A2D"/>
					<stop  offset="0.0981" style="stop-color:#CE8B2E"/>
					<stop  offset="0.3064" style="stop-color:#E2B65A"/>
					<stop  offset="0.4678" style="stop-color:#EED176"/>
					<stop  offset="0.5618" style="stop-color:#F3DB80"/>
					<stop  offset="0.9326" style="stop-color:#BB8532"/>
				</linearGradient>
				<path style="fill:url(#SVGID_00000053534237639489437490000006202014821950581182_);" d="M572.33,242.66
					c-3.57-0.25-6.99-0.02-10.1,0.75c4.03-4.11,11.5-6.56,19.22-8.52c17.87-4.54,40.65-15.04,45.74-28.66
					c7.51-20.11-5.73-34.76-27.99-36.18c-19.47-1.24-36.87,6.6-42.18,22.58c-3.24,9.76,2.92,22.08,15.24,21.8
					c9.12-0.21,14.42-7.95,16.44-13.52c-5.31,4.72-13.33,1.43-13.97-4.99c-0.84-8.36,6.01-18.65,20.2-17.87
					c11.26,0.62,17.81,11.44,12.48,23.2c-3.61,7.96-16.18,17.17-31.39,23.67c-22.94,9.8-38.22,25.98-25.31,47.54
					c0,0,1.93-10.88,16.67-12.03c11.46-0.89,25.28,8.52,39.15,9.28c7.96,0.43,20.88-4.99,24.34-11.29
					C615.11,261.85,599.24,244.55,572.33,242.66z"/>
				<g>
					
						<linearGradient id="SVGID_00000111159960432844666650000008251553969856799143_" gradientUnits="userSpaceOnUse" x1="550.4783" y1="261.5019" x2="630.881" y2="261.5019">
						<stop  offset="0.0955" style="stop-color:#946338"/>
						<stop  offset="0.3015" style="stop-color:#BF8D45"/>
						<stop  offset="0.466" style="stop-color:#DBA84D"/>
						<stop  offset="0.5618" style="stop-color:#E5B250"/>
						<stop  offset="0.9326" style="stop-color:#946338"/>
					</linearGradient>
					<path style="fill:url(#SVGID_00000111159960432844666650000008251553969856799143_);" d="M608.39,261.84
						c-11.07-2.71-27.95-13.6-43.61-10.89c-12.03,2.08-15.29,14.91-14.06,21.52c0,0,1.93-10.88,16.67-12.03
						c11.46-0.89,25.28,8.52,39.15,9.28c7.96,0.43,20.88-4.99,24.34-11.29C624,262.49,617.85,264.16,608.39,261.84z"/>
					
						<linearGradient id="SVGID_00000161589882515507151640000000958713502941782424_" gradientUnits="userSpaceOnUse" x1="592.7452" y1="272.4782" x2="592.7452" y2="169.9344">
						<stop  offset="0.0955" style="stop-color:#946338"/>
						<stop  offset="0.3015" style="stop-color:#BF8D45"/>
						<stop  offset="0.466" style="stop-color:#DBA84D"/>
						<stop  offset="0.5618" style="stop-color:#E5B250"/>
						<stop  offset="0.9326" style="stop-color:#946338"/>
					</linearGradient>
					<path style="fill:url(#SVGID_00000161589882515507151640000000958713502941782424_);" d="M572.74,207.79
						c-8.84-2.09-8.04-13.05-4.53-19.68c3.47-6.56,11.77-13.99,26.05-13.99c14.28,0,29.77,8.25,24.6,27.2
						c-2.62,9.59-14.95,17.65-28.17,23.44c-13.32,5.83-27.01,13.02-28.45,18.64c4.03-4.11,11.5-6.56,19.22-8.52
						c17.87-4.54,40.65-15.04,45.74-28.66c7.51-20.11-5.73-34.76-27.99-36.18c-19.47-1.24-36.87,6.6-42.18,22.58
						c-3.24,9.76,2.92,22.08,15.24,21.8c9.12-0.21,14.42-7.95,16.44-13.52C585.67,204.9,580.7,209.67,572.74,207.79z"/>
				</g>
				<g>
					
						<linearGradient id="SVGID_00000183209839911566589450000011104532711461343648_" gradientUnits="userSpaceOnUse" x1="590.638" y1="272.5839" x2="590.638" y2="249.9468">
						<stop  offset="0.0955" style="stop-color:#E5B250"/>
						<stop  offset="0.277" style="stop-color:#F1D272"/>
						<stop  offset="0.457" style="stop-color:#FBEC8E"/>
						<stop  offset="0.5618" style="stop-color:#FFF698"/>
						<stop  offset="0.9326" style="stop-color:#E5B250"/>
					</linearGradient>
					<path style="fill:url(#SVGID_00000183209839911566589450000011104532711461343648_);" d="M550.72,272.48
						c-0.42-1.99-0.4-4.06-0.13-6.08c0.27-2.03,0.83-4.02,1.65-5.9c0.83-1.88,1.97-3.64,3.38-5.16c0.71-0.75,1.5-1.44,2.34-2.05
						c0.85-0.61,1.76-1.12,2.71-1.56c0.95-0.44,1.95-0.75,2.95-1.02c1.02-0.23,2.04-0.4,3.06-0.51c2.05-0.22,4.12-0.24,6.17-0.09
						c4.11,0.31,8.12,1.27,12.02,2.49c3.89,1.24,7.68,2.75,11.43,4.3c3.75,1.54,7.48,3.15,11.33,4.28c3.86,1.06,7.9,1.7,11.89,1.22
						c1.99-0.22,3.96-0.71,5.85-1.4c0.95-0.34,1.88-0.75,2.79-1.18c0.46-0.22,0.91-0.45,1.37-0.67l1.34-0.71l-1.3,0.79
						c-0.44,0.25-0.88,0.51-1.33,0.75c-0.9,0.47-1.82,0.92-2.76,1.31c-1.88,0.78-3.86,1.37-5.89,1.68c-2.03,0.31-4.1,0.34-6.15,0.16
						c-2.05-0.18-4.06-0.57-6.06-1.07c-1.99-0.52-3.92-1.2-5.82-1.92c-1.91-0.72-3.79-1.48-5.68-2.23c-3.76-1.51-7.52-3-11.37-4.21
						c-3.84-1.22-7.77-2.16-11.76-2.5c-1.99-0.17-4-0.19-5.98,0c-0.99,0.09-1.98,0.24-2.95,0.44c-0.96,0.23-1.91,0.51-2.81,0.9
						c-0.9,0.4-1.78,0.86-2.59,1.42c-0.81,0.56-1.57,1.2-2.28,1.89c-1.39,1.41-2.54,3.07-3.41,4.87c-0.88,1.8-1.51,3.73-1.86,5.71
						c-0.18,0.99-0.29,2-0.32,3.01C550.53,270.46,550.57,271.47,550.72,272.48z"/>
					
						<linearGradient id="SVGID_00000114042018340407099090000007492076538569101955_" gradientUnits="userSpaceOnUse" x1="591.3171" y1="243.5583" x2="591.3171" y2="173.5463">
						<stop  offset="0.0955" style="stop-color:#E5B250"/>
						<stop  offset="0.277" style="stop-color:#F1D272"/>
						<stop  offset="0.457" style="stop-color:#FBEC8E"/>
						<stop  offset="0.5618" style="stop-color:#FFF698"/>
						<stop  offset="0.9326" style="stop-color:#E5B250"/>
					</linearGradient>
					<path style="fill:url(#SVGID_00000114042018340407099090000007492076538569101955_);" d="M562.23,243.41
						c0.25-0.96,0.77-1.82,1.37-2.6c0.6-0.78,1.3-1.49,2.02-2.16c0.73-0.67,1.5-1.29,2.28-1.88c0.79-0.6,1.6-1.16,2.42-1.71
						c3.29-2.19,6.75-4.09,10.25-5.9c3.51-1.79,7.1-3.44,10.69-5.05c3.57-1.62,7.08-3.4,10.43-5.42c3.35-2.02,6.57-4.27,9.45-6.89
						c1.43-1.32,2.78-2.72,3.93-4.27c0.59-0.77,1.12-1.57,1.59-2.4c0.48-0.83,0.89-1.7,1.22-2.59c0.18-0.44,0.3-0.9,0.44-1.36
						l0.34-1.41c0.06-0.23,0.11-0.47,0.15-0.71l0.13-0.71c0.1-0.47,0.15-0.95,0.2-1.43c0.22-1.91,0.22-3.85-0.09-5.74
						c-0.3-1.89-0.9-3.72-1.8-5.4c-0.91-1.67-2.12-3.17-3.52-4.47c-0.34-0.34-0.72-0.62-1.09-0.94c-0.37-0.3-0.77-0.57-1.15-0.86
						c-0.41-0.26-0.8-0.53-1.21-0.78c-0.42-0.23-0.82-0.49-1.26-0.7c-1.71-0.89-3.52-1.58-5.38-2.11c-1.86-0.53-3.77-0.88-5.7-1.08
						c-0.96-0.1-1.93-0.17-2.9-0.18l-0.73-0.01c-0.24,0-0.49,0.01-0.73,0.02l-1.46,0.04c-0.49,0-0.97,0.07-1.45,0.11l-1.45,0.14
						l-1.43,0.24l-0.72,0.12c-0.24,0.04-0.47,0.11-0.71,0.16l-1.41,0.34c-0.47,0.12-0.92,0.29-1.39,0.43l-0.69,0.22
						c-0.23,0.07-0.45,0.17-0.68,0.26l-1.35,0.54c-1.76,0.8-3.45,1.75-5.03,2.88c-1.57,1.13-3,2.44-4.28,3.89
						c-1.28,1.45-2.38,3.06-3.26,4.78c-0.86,1.73-1.48,3.58-1.86,5.48c-0.37,1.9-0.49,3.85-0.21,5.76c0.28,1.89,1,3.75,2.32,5.13
						c1.3,1.4,3.13,2.23,5.04,2.55c1.9,0.38,3.88,0.39,5.78-0.06c1.89-0.48,3.67-1.37,5.21-2.57c0.79-0.59,1.5-1.26,2.2-1.95
						c0.68-0.71,1.33-1.45,1.94-2.22c-0.59,0.79-1.21,1.55-1.88,2.28c-0.68,0.71-1.38,1.42-2.15,2.03c-1.53,1.25-3.32,2.2-5.24,2.73
						c-1.93,0.51-3.97,0.54-5.93,0.19c-1.96-0.28-3.94-1.12-5.37-2.59c-0.72-0.73-1.29-1.59-1.7-2.52c-0.42-0.93-0.69-1.91-0.85-2.9
						c-0.32-1.99-0.22-4.02,0.14-5.99c0.36-1.97,0.98-3.89,1.85-5.7c0.89-1.8,2.01-3.48,3.31-5c1.3-1.52,2.77-2.9,4.38-4.09
						c1.62-1.18,3.37-2.17,5.19-3.01l1.39-0.56c0.23-0.09,0.46-0.2,0.7-0.27l0.71-0.23c0.48-0.15,0.95-0.32,1.43-0.45l1.46-0.36
						c0.24-0.05,0.48-0.13,0.73-0.17l0.74-0.13l1.48-0.25l1.49-0.15c0.5-0.05,0.99-0.12,1.49-0.12l1.5-0.05
						c0.25-0.01,0.5-0.02,0.75-0.02l0.75,0.01c1,0.01,2,0.08,2.99,0.18c1.99,0.2,3.96,0.55,5.89,1.09c1.93,0.54,3.81,1.25,5.6,2.17
						c0.45,0.22,0.88,0.48,1.32,0.73c0.44,0.25,0.85,0.54,1.28,0.81c0.41,0.3,0.82,0.59,1.22,0.9l0.59,0.48
						c0.2,0.16,0.39,0.33,0.57,0.5c1.48,1.38,2.77,2.99,3.73,4.78c0.96,1.8,1.59,3.76,1.9,5.76c0.31,2,0.3,4.04,0.07,6.03
						c-0.06,0.5-0.11,1-0.22,1.49l-0.14,0.74c-0.04,0.25-0.09,0.49-0.16,0.73l-0.36,1.46c-0.15,0.49-0.29,0.98-0.48,1.45
						c-0.36,0.95-0.79,1.87-1.31,2.74c-0.5,0.87-1.06,1.71-1.68,2.51c-1.21,1.6-2.61,3.04-4.08,4.39c-1.48,1.33-3.04,2.57-4.66,3.71
						c-1.62,1.14-3.3,2.2-5.01,3.2c-3.42,2-6.97,3.74-10.59,5.33c-3.62,1.56-7.2,3.16-10.74,4.89c-3.53,1.72-7.02,3.54-10.34,5.65
						c-0.83,0.53-1.65,1.07-2.44,1.65c-0.8,0.57-1.57,1.17-2.31,1.82c-0.74,0.64-1.45,1.33-2.07,2.09
						C563.05,241.62,562.51,242.47,562.23,243.41z"/>
				</g>
			</g>
		</g>
		<g>
			
				<linearGradient id="SVGID_00000161604141263304570230000017358308041958691512_" gradientUnits="userSpaceOnUse" x1="1229.9684" y1="91.3501" x2="1378.9506" y2="113.5922" gradientTransform="matrix(0.989 -0.1477 0.1477 0.989 -678.0502 324.8767)">
				<stop  offset="0.0955" style="stop-color:#E5B250"/>
				<stop  offset="0.277" style="stop-color:#F1D272"/>
				<stop  offset="0.457" style="stop-color:#FBEC8E"/>
				<stop  offset="0.5618" style="stop-color:#FFF698"/>
				<stop  offset="0.9326" style="stop-color:#E5B250"/>
			</linearGradient>
			<path style="fill:url(#SVGID_00000161604141263304570230000017358308041958691512_);" d="M551.88,226.12
				c16.08-4.73,34.36-2.05,56.01,16.08c34.38,28.78,70.71,26.23,87.16,6.42c10.92-13.16,9.33-34.07-1.39-45.19
				c8.02,11.65,5.49,28.99-6.29,39.54c-21.64,19.39-48.88,11.74-74.21-8.63C595.86,220.43,574.27,214.84,551.88,226.12z"/>
			<g>
				
					<linearGradient id="SVGID_00000050631547997348587560000011785828280869036166_" gradientUnits="userSpaceOnUse" x1="625.7253" y1="257.2747" x2="625.7253" y2="203.4361">
					<stop  offset="0.0955" style="stop-color:#946338"/>
					<stop  offset="0.3015" style="stop-color:#BF8D45"/>
					<stop  offset="0.466" style="stop-color:#DBA84D"/>
					<stop  offset="0.5618" style="stop-color:#E5B250"/>
					<stop  offset="0.9326" style="stop-color:#946338"/>
				</linearGradient>
				<path style="fill:url(#SVGID_00000050631547997348587560000011785828280869036166_);" d="M551.88,226.12
					c22.39-11.29,43.97-5.69,61.28,8.23c25.32,20.37,52.56,28.02,74.21,8.63c11.78-10.55,14.31-27.89,6.29-39.54
					c8.92,11.47,7.8,30.04-3.73,41.42c-19.85,19.6-50.18,15.28-78.52-7.89C592.65,221.65,572.17,217.02,551.88,226.12z"/>
			</g>
		</g>
	</g>
	<g>
		
			<linearGradient id="SVGID_00000060716777025461571260000016300516177182693533_" gradientUnits="userSpaceOnUse" x1="704.5233" y1="220.2394" x2="771.4186" y2="220.2394">
			<stop  offset="0.0955" style="stop-color:#CE8A2D"/>
			<stop  offset="0.0981" style="stop-color:#CE8B2E"/>
			<stop  offset="0.3064" style="stop-color:#E2B65A"/>
			<stop  offset="0.4678" style="stop-color:#EED176"/>
			<stop  offset="0.5618" style="stop-color:#F3DB80"/>
			<stop  offset="0.9326" style="stop-color:#BB8532"/>
		</linearGradient>
		<path style="fill:url(#SVGID_00000060716777025461571260000016300516177182693533_);" d="M742.2,190.77
			c-18.32-0.89-35.07,11.59-37.41,27.86c-2.34,16.27,10.94,30.19,29.26,31.08c18.32,0.89,34.76-11.59,37.1-27.86
			C773.48,205.57,760.52,191.66,742.2,190.77z M752.58,220.24c-1.78,11.95-9.48,21.64-17.55,21.64c-8.07,0-13.44-9.69-11.66-21.64
			c1.78-11.95,9.76-21.64,17.82-21.64C749.25,198.6,754.35,208.29,752.58,220.24z"/>
		
			<linearGradient id="SVGID_00000044895364646395004880000017098257732742603913_" gradientUnits="userSpaceOnUse" x1="737.9709" y1="245.8562" x2="737.9709" y2="194.6225">
			<stop  offset="0.0955" style="stop-color:#946338"/>
			<stop  offset="0.3015" style="stop-color:#BF8D45"/>
			<stop  offset="0.466" style="stop-color:#DBA84D"/>
			<stop  offset="0.5618" style="stop-color:#E5B250"/>
			<stop  offset="0.9326" style="stop-color:#946338"/>
		</linearGradient>
		<path style="fill:url(#SVGID_00000044895364646395004880000017098257732742603913_);" d="M741.01,194.66
			c-13.17-0.77-25.21,10.06-26.89,24.18c-1.68,14.13,7.86,26.2,21.04,26.97c13.17,0.77,24.99-10.06,26.67-24.18
			C763.5,207.51,754.18,195.43,741.01,194.66z M752.58,220.24c-1.78,11.95-9.48,21.64-17.55,21.64c-8.07,0-13.44-9.69-11.66-21.64
			c1.78-11.95,9.76-21.64,17.82-21.64C749.25,198.6,754.35,208.29,752.58,220.24z"/>
		<g>
			
				<linearGradient id="SVGID_00000118363696933963970730000014201572428664385942_" gradientUnits="userSpaceOnUse" x1="751.5504" y1="245.407" x2="747.9836" y2="194.3995">
				<stop  offset="0.0955" style="stop-color:#E5B250"/>
				<stop  offset="0.277" style="stop-color:#F1D272"/>
				<stop  offset="0.457" style="stop-color:#FBEC8E"/>
				<stop  offset="0.5618" style="stop-color:#FFF698"/>
				<stop  offset="0.9326" style="stop-color:#E5B250"/>
			</linearGradient>
			<path style="fill:url(#SVGID_00000118363696933963970730000014201572428664385942_);" d="M744.61,195.17
				c2.91,0.53,5.69,1.74,8.14,3.44c2.44,1.72,4.53,3.95,6.11,6.51c1.6,2.54,2.67,5.41,3.24,8.36c0.57,2.96,0.59,6.01,0.17,8.98
				c-0.44,2.97-1.33,5.88-2.66,8.57c-1.33,2.69-3.07,5.18-5.19,7.3c-2.1,2.13-4.56,3.91-7.25,5.2c-2.7,1.26-5.61,2.08-8.56,2.23
				l1.09-0.17l1.08-0.22l1.07-0.27l1.05-0.32c1.39-0.45,2.74-1.04,4.02-1.73c2.57-1.38,4.89-3.2,6.87-5.31
				c3.97-4.24,6.56-9.71,7.37-15.43c0.87-5.71-0.12-11.73-3.05-16.73c-1.46-2.5-3.39-4.73-5.69-6.52c-1.15-0.9-2.39-1.68-3.7-2.33
				c-0.33-0.17-0.67-0.31-1-0.46c-0.34-0.15-0.68-0.27-1.02-0.41c-0.34-0.13-0.69-0.24-1.04-0.37L744.61,195.17z"/>
			
				<linearGradient id="SVGID_00000173118977822035713020000009026505067498347926_" gradientUnits="userSpaceOnUse" x1="727.2827" y1="246.2782" x2="723.7131" y2="195.2309">
				<stop  offset="0.0955" style="stop-color:#E5B250"/>
				<stop  offset="0.277" style="stop-color:#F1D272"/>
				<stop  offset="0.457" style="stop-color:#FBEC8E"/>
				<stop  offset="0.5618" style="stop-color:#FFF698"/>
				<stop  offset="0.9326" style="stop-color:#E5B250"/>
			</linearGradient>
			<path style="fill:url(#SVGID_00000173118977822035713020000009026505067498347926_);" d="M735.96,194.93l-1.06,0.24
				c-0.35,0.1-0.7,0.19-1.05,0.29c-0.35,0.11-0.69,0.21-1.04,0.33c-0.34,0.13-0.68,0.24-1.02,0.38c-1.35,0.53-2.64,1.18-3.87,1.94
				c-2.47,1.49-4.67,3.39-6.54,5.56c-3.75,4.34-6.13,9.82-6.74,15.5c-0.65,5.67,0.59,11.56,3.68,16.39
				c1.54,2.41,3.52,4.54,5.86,6.23c1.16,0.85,2.41,1.59,3.73,2.19l1,0.43l1.02,0.38l1.04,0.34l1.05,0.28
				c-2.88-0.45-5.67-1.57-8.14-3.17c-2.47-1.62-4.61-3.74-6.27-6.2c-1.68-2.45-2.86-5.23-3.55-8.12c-0.67-2.9-0.84-5.91-0.52-8.86
				c0.33-2.95,1.12-5.85,2.33-8.56c1.23-2.7,2.86-5.22,4.86-7.4c1.99-2.19,4.34-4.05,6.92-5.46c1.3-0.7,2.65-1.28,4.04-1.75
				c0.35-0.12,0.7-0.21,1.05-0.32c0.35-0.1,0.71-0.18,1.06-0.27c0.36-0.08,0.72-0.14,1.07-0.21L735.96,194.93z"/>
		</g>
	</g>
</g>
</svg>
