<?xml version="1.0" encoding="utf-8"?>
<!-- Generator: Adobe Illustrator 27.0.0, SVG Export Plug-In . SVG Version: 6.00 Build 0)  -->
<svg version="1.1" id="Layer_1" xmlns="http://www.w3.org/2000/svg" xmlns:xlink="http://www.w3.org/1999/xlink" x="0px" y="0px"
	 viewBox="0 0 441 432" style="enable-background:new 0 0 441 432;" xml:space="preserve">
<style type="text/css">
	.st0{fill:url(#SVGID_1_);}
	.st1{fill:url(#SVGID_00000107583321354928298010000018107777045862647430_);}
	.st2{fill:url(#SVGID_00000077291386086254267740000009597167100169965999_);}
	.st3{fill:url(#SVGID_00000014613481470395056420000006614534817968791738_);}
	.st4{fill:url(#SVGID_00000131339334293437099690000015686668582512983720_);}
	.st5{fill:url(#SVGID_00000099648772798787868930000009836248350368736409_);}
	.st6{fill:url(#SVGID_00000135677057270212705920000003782311705047189382_);}
	.st7{fill:url(#SVGID_00000094615654636701050290000016713305578088960417_);}
	.st8{fill:url(#SVGID_00000059287471621729432680000013138388277383112877_);}
	.st9{fill:url(#SVGID_00000013192154223990039310000002481865482299334532_);}
	.st10{fill:url(#SVGID_00000101824528018258254440000006534314337595044251_);}
	.st11{fill:url(#SVGID_00000152952043011642843980000003956669188115434420_);}
	.st12{fill:url(#SVGID_00000062158818087092561670000007312815828013356692_);}
	.st13{fill:url(#SVGID_00000109722401522366196850000004484086257891439028_);}
	.st14{fill:url(#SVGID_00000155136403653121272500000016434986474583236760_);}
	.st15{fill:url(#SVGID_00000093173996202588597640000008997021402829807520_);}
	.st16{fill:url(#SVGID_00000010283303621088831230000009220044227706517385_);}
	.st17{fill:url(#SVGID_00000039840076111554640760000012687013961057060789_);}
	.st18{fill:url(#SVGID_00000155130669303695723660000005572118845155457719_);}
	.st19{fill:url(#SVGID_00000183212848881527348360000007650294648988206241_);}
	.st20{fill:url(#SVGID_00000137112268927475736210000014057233174426264509_);}
	.st21{fill:url(#SVGID_00000107567061759328132880000018202233730904298642_);}
	.st22{fill:url(#SVGID_00000129918053662648731340000012773915575553115548_);}
	.st23{fill:url(#SVGID_00000036215915436296531060000014347893430559853956_);}
	.st24{fill:url(#SVGID_00000080907065296775587810000016191395206849394320_);}
	.st25{fill:url(#SVGID_00000102545212486270246780000010553934572842964124_);}
	.st26{fill:url(#SVGID_00000053532221569743760380000014160490658338059404_);}
	.st27{fill:url(#SVGID_00000103261364998759791490000009489165481271120037_);}
	.st28{fill:url(#SVGID_00000122693969707630216950000007983812445617080983_);}
	.st29{fill:url(#SVGID_00000183944970853808056270000005815729509304025517_);}
	.st30{fill:url(#SVGID_00000167361718113303709580000006886095372745384635_);}
	.st31{fill:url(#SVGID_00000043440678816780883410000008702300702955816350_);}
	.st32{fill:url(#SVGID_00000048482877502350606050000006057112654720554420_);}
	.st33{fill:url(#SVGID_00000048480472114515036490000010858650166596480670_);}
	.st34{fill:url(#SVGID_00000062188536331717688240000015114887752970413710_);}
	.st35{fill:url(#SVGID_00000107580154939371246600000005922402917962896824_);}
	.st36{fill:url(#SVGID_00000044147024924808479320000003824022220277622658_);}
	.st37{fill:url(#SVGID_00000072980338598046015340000008138114743719333280_);}
	.st38{fill:url(#SVGID_00000090264352599861300360000010540978137582137535_);}
	.st39{fill:url(#SVGID_00000183942793102364297650000001000534617165856939_);}
	.st40{fill:url(#SVGID_00000054252965870686434980000016501948536317212048_);}
	.st41{fill:url(#SVGID_00000119820490285086636380000001926765428181661626_);}
	.st42{fill:url(#SVGID_00000031202095233424709720000017688013852957687202_);}
	.st43{fill:url(#SVGID_00000036218076873019079860000008930611333925095614_);}
</style>
<g>
	<g>
		
			<linearGradient id="SVGID_1_" gradientUnits="userSpaceOnUse" x1="299.6233" y1="654.2644" x2="378.7" y2="654.2644" gradientTransform="matrix(1 0 0 -1 0 430.9444)">
			<stop  offset="9.550000e-02" style="stop-color:#CE8A2D"/>
			<stop  offset="9.809999e-02" style="stop-color:#CE8B2E"/>
			<stop  offset="0.3064" style="stop-color:#E2B65A"/>
			<stop  offset="0.4678" style="stop-color:#EED176"/>
			<stop  offset="0.5618" style="stop-color:#F3DB80"/>
			<stop  offset="0.9326" style="stop-color:#BB8532"/>
		</linearGradient>
		<path class="st0" d="M357.9-198.4c0.1-5.3,0.4-10.9,1-16.1c2-17.1,5.6-24.3,5.6-24.3c-3.5,3.8-8.1,6.3-8.1,6.3
			c-3.8,5.6-8.6,12.4-11.8,21.5c-0.7,1.9-1.3,3.8-1.8,5.7c-6-2.1-12-3.4-17.9-3.4c-7,0-11.6,1.3-14.7,2.8
			c6-16.9,38.9-13.8,50.9-41.6c5.9-13.7-1.3-24.2-1.3-24.2c-1.9,15-26.8,26.9-41.6,39.3c-17.2,14.4-20.3,32.8-17.5,45.4
			c3.2-3.5,9.5-6.5,18.4-7.3c6.7-0.6,13.8,1.4,20.8,3.6c-0.9,6.4-1.1,12-1,15.6c0,0,9.3-2.1,19.6-1.4c0,0-0.2-3.6-0.4-9.1
			c1.3,0.2,2.5,0.3,3.8,0.3c6.4,0.2,12.4-1.3,17-8C372.5-191,365.4-194.6,357.9-198.4z"/>
		
			<linearGradient id="SVGID_00000129920494635017488080000015532527008652207019_" gradientUnits="userSpaceOnUse" x1="339.595" y1="592.309" x2="339.595" y2="702.5897" gradientTransform="matrix(1 0 0 -1 0 430.9444)">
			<stop  offset="9.550000e-02" style="stop-color:#946338"/>
			<stop  offset="0.3015" style="stop-color:#BF8D45"/>
			<stop  offset="0.466" style="stop-color:#DBA84D"/>
			<stop  offset="0.5618" style="stop-color:#E5B250"/>
			<stop  offset="0.9326" style="stop-color:#946338"/>
		</linearGradient>
		<path style="fill:url(#SVGID_00000129920494635017488080000015532527008652207019_);" d="M326.2-227.9c10-7.2,23.8-14.7,29.2-21.7
			c4.4-5.7,6-16.1,4.2-22c0,0,7.2,10.5,1.3,24.2c-12,27.8-44.8,24.7-50.9,41.6C311.5-211.2,316.1-220.7,326.2-227.9z M348.8-195.1
			c5.3,2.3,10,4.4,13.8,4.8c8,1,12.3-0.1,16.1-2.9c-6.2,2.1-13.3-1.4-20.8-5.3c0.1-5.3,0.4-10.9,1-16.1c2-17.1,5.6-24.3,5.6-24.3
			c-1.4,1.5-2.9,2.8-4.3,3.8c-3.8,8.9-8.7,24.4-10.5,34C349.3-199,349-197,348.8-195.1z M348.8-195.1c-8.5-3.7-18.5-7.9-28.4-6.9
			c-15.3,1.6-19.9,10.4-19.9,15c3.2-3.5,9.5-6.5,18.4-7.3c6.7-0.6,13.8,1.4,20.8,3.6c-0.9,6.4-1.1,12-1,15.6c0,0,3.9-0.9,9.4-1.3
			C347.9-179.6,347.8-186.9,348.8-195.1z"/>
		<g>
			
				<linearGradient id="SVGID_00000181078994087505596070000008466418152234822311_" gradientUnits="userSpaceOnUse" x1="353.9629" y1="607.1944" x2="353.9629" y2="666.2428" gradientTransform="matrix(1 0 0 -1 0 430.9444)">
				<stop  offset="9.550000e-02" style="stop-color:#E5B250"/>
				<stop  offset="0.277" style="stop-color:#F1D272"/>
				<stop  offset="0.457" style="stop-color:#FBEC8E"/>
				<stop  offset="0.5618" style="stop-color:#FFF698"/>
				<stop  offset="0.9326" style="stop-color:#E5B250"/>
			</linearGradient>
			<path style="fill:url(#SVGID_00000181078994087505596070000008466418152234822311_);" d="M348.1-176.2c-0.4-5-0.5-10.1-0.1-15.2
				c0.2-2.5,0.5-5.1,0.8-7.6c0.4-2.5,0.9-5,1.5-7.5c0.6-2.5,1.3-4.9,2-7.3c0.7-2.4,1.5-4.8,2.3-7.2c0.8-2.4,1.7-4.8,2.6-7.1
				c0.9-2.4,1.9-4.7,3-7c-0.9,2.4-1.7,4.7-2.5,7.1c-0.8,2.4-1.6,4.8-2.3,7.2c-1.5,4.8-2.9,9.7-4,14.6c-1.2,4.9-2,9.8-2.5,14.8
				C348.3-186.3,348.1-181.3,348.1-176.2z"/>
			
				<linearGradient id="SVGID_00000114050788190344709770000008717591510448047530_" gradientUnits="userSpaceOnUse" x1="299.9573" y1="625.6639" x2="379.0074" y2="625.6639" gradientTransform="matrix(1 0 0 -1 0 430.9444)">
				<stop  offset="9.550000e-02" style="stop-color:#E5B250"/>
				<stop  offset="0.277" style="stop-color:#F1D272"/>
				<stop  offset="0.457" style="stop-color:#FBEC8E"/>
				<stop  offset="0.5618" style="stop-color:#FFF698"/>
				<stop  offset="0.9326" style="stop-color:#E5B250"/>
			</linearGradient>
			<path style="fill:url(#SVGID_00000114050788190344709770000008717591510448047530_);" d="M300.5-186.9c0-1.8,0.5-3.7,1.4-5.3
				c0.9-1.6,2.1-3.1,3.5-4.3c0.3-0.3,0.7-0.6,1.1-0.9s0.7-0.6,1.1-0.8l1.2-0.7c0.4-0.2,0.8-0.4,1.2-0.6l0.6-0.3
				c0.2-0.1,0.4-0.2,0.6-0.3l1.3-0.5c0.4-0.2,0.9-0.3,1.3-0.4l0.7-0.2c0.2-0.1,0.4-0.1,0.7-0.2l1.4-0.3c0.5-0.1,0.9-0.2,1.4-0.3
				l1.4-0.2c0.5-0.1,0.9-0.1,1.4-0.2c1.9-0.2,3.7-0.2,5.6,0c3.7,0.3,7.4,1.2,10.9,2.3c3.5,1.1,6.9,2.5,10.3,4
				c3.4,1.5,6.7,3,10.1,4.2c1.7,0.6,3.5,1.1,5.2,1.4c1.8,0.2,3.6,0.4,5.4,0.4h0.7l0.7,0c0.5,0,0.9-0.1,1.4-0.1
				c0.9-0.1,1.8-0.3,2.7-0.5c1.8-0.5,3.4-1.3,5-2.3c-0.7,0.6-1.5,1.1-2.3,1.5s-1.7,0.8-2.5,1.1c-0.9,0.3-1.8,0.5-2.7,0.6
				c-0.5,0.1-0.9,0.1-1.4,0.2l-0.7,0.1l-0.7,0c-1.9,0.1-3.7,0-5.5-0.2c-0.9-0.1-1.9-0.3-2.8-0.5c-0.9-0.2-1.8-0.5-2.7-0.8
				c-1.8-0.6-3.5-1.3-5.2-2l-5.1-2.1c-3.4-1.4-6.8-2.8-10.2-3.9c-3.5-1.1-7-2-10.6-2.3c-1.8-0.2-3.6-0.2-5.4-0.1
				c-0.5,0-0.9,0.1-1.4,0.1l-1.4,0.2c-0.5,0-0.9,0.1-1.3,0.2l-1.3,0.3c-0.2,0-0.4,0.1-0.7,0.2l-0.6,0.2c-0.4,0.1-0.9,0.2-1.3,0.4
				l-1.3,0.5l-0.6,0.2l-0.6,0.3c-0.4,0.2-0.8,0.4-1.2,0.6l-1.2,0.7c-0.4,0.2-0.8,0.5-1.1,0.8l-0.5,0.4c-0.1,0.1-0.2,0.1-0.3,0.2
				l-0.3,0.2c-1.4,1.1-2.6,2.5-3.6,4.1c-0.2,0.4-0.4,0.8-0.6,1.2l-0.3,0.6c-0.1,0.2-0.2,0.4-0.2,0.6l-0.2,0.6
				c-0.1,0.2-0.1,0.4-0.1,0.7C300.6-187.8,300.5-187.3,300.5-186.9z"/>
			
				<linearGradient id="SVGID_00000142891239545200231650000017238811421371282317_" gradientUnits="userSpaceOnUse" x1="335.3376" y1="636.6793" x2="335.3376" y2="702.7532" gradientTransform="matrix(1 0 0 -1 0 430.9444)">
				<stop  offset="9.550000e-02" style="stop-color:#E5B250"/>
				<stop  offset="0.277" style="stop-color:#F1D272"/>
				<stop  offset="0.457" style="stop-color:#FBEC8E"/>
				<stop  offset="0.5618" style="stop-color:#FFF698"/>
				<stop  offset="0.9326" style="stop-color:#E5B250"/>
			</linearGradient>
			<path style="fill:url(#SVGID_00000142891239545200231650000017238811421371282317_);" d="M310.1-205.9c0.4-1.8,1-3.5,1.8-5.2
				c0.7-1.7,1.6-3.3,2.5-4.9c0.2-0.4,0.5-0.8,0.7-1.2c0.3-0.4,0.5-0.8,0.8-1.1l0.8-1.1l0.9-1.1l0.4-0.5l0.5-0.5l0.9-1l1-1l0.5-0.5
				l0.5-0.5l1-0.9c0.3-0.3,0.7-0.6,1-0.9c0.7-0.6,1.4-1.2,2.1-1.7c1.5-1.1,3-2.1,4.5-3.2c3-2.1,6.1-4,9.1-6c3-2,6.1-4,8.9-6.2
				l1.1-0.8l0.5-0.4l0.5-0.4l1-0.9l1-0.9c1.3-1.2,2.6-2.5,3.6-4s1.8-3.1,2.4-4.8c0.6-1.7,1.1-3.4,1.5-5.2c0.4-1.8,0.5-3.6,0.6-5.4
				c0-0.9,0-1.8-0.1-2.7c0-0.2,0-0.5-0.1-0.7l-0.1-0.7c-0.1-0.5-0.2-0.9-0.3-1.3c0.6,1.7,0.8,3.6,0.9,5.4c0.1,1.8-0.1,3.7-0.3,5.5
				c-0.3,1.8-0.7,3.6-1.3,5.4c-0.6,1.7-1.4,3.4-2.4,5c-0.3,0.4-0.5,0.8-0.8,1.1l-0.9,1.1c-0.3,0.4-0.6,0.7-1,1l-0.5,0.5l-0.5,0.5
				l-1,0.9l-1,0.9l-0.5,0.4l-0.5,0.4l-1.1,0.9c-2.9,2.2-5.9,4.3-9,6.3c-3,2-6.1,4-9.1,6l-2.3,1.5l-1.1,0.8c-0.4,0.3-0.8,0.5-1.1,0.8
				c-0.7,0.5-1.5,1.1-2.1,1.7c-0.4,0.3-0.7,0.6-1,0.9l-1,0.9l-0.5,0.4l-0.5,0.5l-1,0.9l-0.9,1l-0.5,0.5l-0.4,0.5
				c-1.2,1.4-2.3,2.8-3.3,4.3C312.9-212.6,311.2-209.4,310.1-205.9z"/>
		</g>
	</g>
	<g>
		<path d="M203.7-297.8h-1.8c0.3-2.5,0.4-4.4,0.4-5.6c0-1.8-0.5-3.2-1.5-4.3c-1-1-2.3-1.6-4-1.6c-2.6,0-4.8,0.9-6.8,2.8
			c-1.9,1.9-2.9,4-2.9,6.3c0,1.2,0.3,2.4,0.8,3.4c0.5,1,1.7,2.4,3.5,4.2c3.3,3.3,5.5,5.8,6.5,7.6c1,1.8,1.6,3.6,1.6,5.4
			c0,2.6-0.8,5-2.4,7.4s-3.9,4.4-6.9,5.9c-3.1,1.5-6.3,2.3-9.7,2.3c-3.4,0-6.2-0.9-8.5-2.6c-2.3-1.7-3.4-3.6-3.4-5.5
			c0-1,0.3-1.9,0.9-2.6c0.6-0.7,1.3-1,2.1-1c0.8,0,1.5,0.3,2,1c0.3,0.4,0.7,1.2,1,2.5c0.4,1.6,0.8,2.8,1.4,3.5
			c0.5,0.7,1.3,1.3,2.2,1.8c1,0.5,2,0.7,3.1,0.7c3.4,0,6.3-1.1,8.8-3.4c2.5-2.3,3.8-4.8,3.8-7.5c0-0.9-0.2-1.9-0.5-2.8
			c-0.3-0.9-0.9-2-1.8-3.2c-0.6-0.8-1.9-2.2-3.9-4.2c-2-2-3.3-3.3-3.8-4.1c-0.7-1.1-1.3-2.1-1.6-3.2c-0.4-1.1-0.5-2.1-0.5-3.2
			c0-2.1,0.7-4.3,2.2-6.5s3.3-3.9,5.6-5.2c2.3-1.3,4.9-1.9,7.8-1.9c1.5,0,3.3,0.2,5.4,0.7c1.2,0.2,2.3,0.4,3.2,0.5
			c-0.5,1.5-0.9,3-1.2,4.3C204.6-304.5,204.2-301.8,203.7-297.8z"/>
		<path d="M212.1-290.6l-1.6-1.2c2.4-2.6,4.5-4.4,6.4-5.5c1.9-1.1,3.6-1.6,5-1.6c0.8,0,1.3,0.2,1.7,0.5c0.4,0.3,0.6,0.8,0.6,1.3
			c0,0.7-0.8,3.6-2.3,8.7c-2.5,8.4-3.7,13.4-3.7,15.1c0,0.3,0.1,0.6,0.2,0.8c0.2,0.2,0.3,0.3,0.5,0.3c0.8,0,2.7-1.5,5.8-4.4l1.4,1.3
			c-3.2,3-5.6,5-7.1,5.8s-2.7,1.3-3.6,1.3c-0.8,0-1.5-0.3-2-0.8c-0.5-0.5-0.7-1.2-0.7-2.2c0-3,1.8-10.1,5.3-21.6
			c0.2-0.5,0.2-1,0.2-1.5c0-0.5-0.2-0.7-0.6-0.7c-0.5,0-1,0.2-1.6,0.6C215.6-293.8,214.2-292.6,212.1-290.6z M226.1-314
			c0.7,0,1.3,0.2,1.8,0.7s0.7,1.1,0.7,1.9c0,1-0.4,2-1.1,2.7c-0.7,0.8-1.5,1.2-2.4,1.2c-0.7,0-1.3-0.2-1.8-0.7s-0.7-1.1-0.7-1.9
			c0-1.1,0.3-2,1-2.7C224.3-313.6,225.1-314,226.1-314z"/>
		<path d="M233.6-290.5l-1.2-1.2c3-2.9,5.4-4.8,7.2-5.8c1.8-1,3.3-1.4,4.6-1.4c0.5,0,0.9,0.1,1.2,0.3c0.3,0.2,0.4,0.5,0.4,0.7
			c0,0.2-0.1,0.6-0.2,1.1l-1.6,7.1c2.4-2.7,5.4-5.1,9-7.5c1.9-1.2,3.5-1.8,4.8-1.8c0.9,0,1.6,0.3,2.1,0.9s0.8,1.4,0.8,2.5
			c0,0.7-0.1,1.6-0.3,2.5c-0.4,1.5-1.4,4.9-3,10c-1.5,4.8-2.2,8-2.2,9.6c0,0.5,0.1,0.9,0.2,1.1s0.3,0.4,0.6,0.4c0.7,0,1.8-0.7,3.2-2
			c1-0.9,2.1-1.8,3.1-2.6l0.9,1.3c-2.2,2.4-4.4,4.3-6.8,5.8c-1.5,0.9-2.7,1.4-3.7,1.4c-0.9,0-1.6-0.3-2.1-1s-0.7-1.7-0.7-3.2
			c0-2.1,1.3-7.3,3.9-15.7c0.8-3,1.2-4.7,1.2-5.2c0-0.7-0.4-1.1-1.3-1.1c-0.9,0-2.2,0.5-3.6,1.5c-2.2,1.5-4.1,3.2-5.6,5.2
			c-0.9,1.3-1.7,3.3-2.4,6.1l-2.9,12.4h-5.3c1-3.5,1.9-6.9,2.6-10.2l3.1-13.5c0.1-0.5,0.2-0.9,0.2-1.2c0-0.6-0.2-1-0.7-1
			c-0.4,0-0.9,0.2-1.6,0.8C236.3-293.1,234.9-291.9,233.6-290.5z"/>
		<path d="M289.5-276.7l0.7,2c-5.6,4.4-10.4,6.6-14.2,6.6c-2,0-3.5-0.7-4.5-2.2s-1.4-3.3-1.4-5.5c0-3.7,1-7.5,3-11.5s4.4-7,7.2-9
			c2.2-1.6,4.7-2.4,7.5-2.4c1.7,0,3.1,0.3,4,1s1.3,1.5,1.3,2.4c0,0.7-0.2,1.3-0.7,1.8c-0.5,0.5-1.1,0.7-2,0.7
			c-0.8,0-1.9-0.4-3.2-1.1c-1.3-0.8-2.5-1.2-3.4-1.2c-1.2,0-2.3,0.5-3.5,1.6c-1.1,1-2.2,3.1-3.3,6.1c-1,3-1.6,6-1.6,9.1
			c0,2.2,0.4,4,1.3,5.2c0.6,0.9,1.5,1.4,2.7,1.4C282.4-271.9,285.7-273.5,289.5-276.7z"/>
		<path d="M317.4-277.9l1.2,1.6c-5.8,5.5-10.7,8.2-14.9,8.2c-1.7,0-3-0.6-3.8-1.7c-0.9-1.1-1.3-3-1.3-5.4c0-5,1.5-10.1,4.6-15.1
			c3.4-5.7,7.5-8.5,12.3-8.5c1.7,0,3,0.4,3.8,1.2c0.9,0.8,1.3,2,1.3,3.5c0,1.5-0.5,3-1.6,4.5s-3,3-5.7,4.6c-1.4,0.8-4.3,2.2-8.8,4.2
			c-0.2,1.3-0.3,2.5-0.3,3.6c0,1.7,0.3,2.8,0.8,3.5s1.3,1,2.3,1c1,0,2-0.3,3.2-0.8C312.1-274.2,314.4-275.7,317.4-277.9z M305-283.1
			c3.8-1.7,6.6-3.5,8.6-5.5c1.3-1.4,1.9-2.7,1.9-4.1c0-1-0.3-1.8-0.8-2.4s-1.2-0.9-2.1-0.9c-0.9,0-1.7,0.3-2.5,1
			c-1.1,0.9-2,2.2-2.8,4C306.3-288.4,305.5-285.8,305-283.1z"/>
	</g>
	<g>
		
			<linearGradient id="SVGID_00000054960500517473174610000002212566741654012348_" gradientUnits="userSpaceOnUse" x1="-2173.5994" y1="1284.1923" x2="-2055.2361" y2="1266.5214" gradientTransform="matrix(-0.989 -0.1477 0.1477 -0.989 -1994.6855 739.7628)">
			<stop  offset="9.550000e-02" style="stop-color:#E5B250"/>
			<stop  offset="0.277" style="stop-color:#F1D272"/>
			<stop  offset="0.457" style="stop-color:#FBEC8E"/>
			<stop  offset="0.5618" style="stop-color:#FFF698"/>
			<stop  offset="0.9326" style="stop-color:#E5B250"/>
		</linearGradient>
		<path style="fill:url(#SVGID_00000054960500517473174610000002212566741654012348_);" d="M344.7-223.7c-13.4-3.1-26,7.5-40.6,21.2
			c-27.4,25.7-58.7,22.9-72.7,6c-9.3-11.2-8-29.1,1.2-38.6c-6.9,9.9-4.7,24.8,5.4,33.8c18.5,16.6,40.2,10.5,58.4-5.1
			C314.2-221.5,328-231.4,344.7-223.7z"/>
		<g>
			
				<linearGradient id="SVGID_00000128482096238941580920000005055415733732496514_" gradientUnits="userSpaceOnUse" x1="-2896.7766" y1="619.7656" x2="-2896.7766" y2="666.0044" gradientTransform="matrix(-1 0 0 -1 -2610.6709 430.9444)">
				<stop  offset="9.550000e-02" style="stop-color:#946338"/>
				<stop  offset="0.3015" style="stop-color:#BF8D45"/>
				<stop  offset="0.466" style="stop-color:#DBA84D"/>
				<stop  offset="0.5618" style="stop-color:#E5B250"/>
				<stop  offset="0.9326" style="stop-color:#946338"/>
			</linearGradient>
			<path style="fill:url(#SVGID_00000128482096238941580920000005055415733732496514_);" d="M232.6-235.1
				c-6.9,9.9-4.7,24.8,5.4,33.8c18.5,16.6,40.2,10.5,58.4-5.1c17.8-15.2,31.6-25,48.3-17.4c-15.6-6.1-29,3.9-45.7,18.6
				c-21.4,18.9-46.2,22.1-63.2,5.4C225.9-209.4,224.9-225.3,232.6-235.1z"/>
		</g>
	</g>
	<g>
		<g>
			<g>
				
					<linearGradient id="SVGID_00000088132885809244741290000007534258421520565900_" gradientUnits="userSpaceOnUse" x1="153.0629" y1="655.9594" x2="222.7926" y2="655.9594" gradientTransform="matrix(1 0 0 -1 0 430.9444)">
					<stop  offset="9.550000e-02" style="stop-color:#CE8A2D"/>
					<stop  offset="9.809999e-02" style="stop-color:#CE8B2E"/>
					<stop  offset="0.3064" style="stop-color:#E2B65A"/>
					<stop  offset="0.4678" style="stop-color:#EED176"/>
					<stop  offset="0.5618" style="stop-color:#F3DB80"/>
					<stop  offset="0.9326" style="stop-color:#BB8532"/>
				</linearGradient>
				<path style="fill:url(#SVGID_00000088132885809244741290000007534258421520565900_);" d="M192.3-255.7
					c-19.1-0.9-36.6,12.1-39,29c-2.4,17,11.4,31.5,30.5,32.4s36.2-12.1,38.7-29C224.9-240.3,211.4-254.8,192.3-255.7z M203.1-225
					c-1.9,12.5-9.9,22.6-18.3,22.6s-14-10.1-12.2-22.6c1.9-12.5,10.2-22.6,18.6-22.6C199.7-247.6,205-237.5,203.1-225z"/>
				
					<linearGradient id="SVGID_00000061436880548261333360000013992585643746612097_" gradientUnits="userSpaceOnUse" x1="187.927" y1="629.2443" x2="187.927" y2="682.6545" gradientTransform="matrix(1 0 0 -1 0 430.9444)">
					<stop  offset="9.550000e-02" style="stop-color:#946338"/>
					<stop  offset="0.3015" style="stop-color:#BF8D45"/>
					<stop  offset="0.466" style="stop-color:#DBA84D"/>
					<stop  offset="0.5618" style="stop-color:#E5B250"/>
					<stop  offset="0.9326" style="stop-color:#946338"/>
				</linearGradient>
				<path style="fill:url(#SVGID_00000061436880548261333360000013992585643746612097_);" d="M191.1-251.7
					c-13.7-0.8-26.3,10.5-28,25.2c-1.8,14.7,8.2,27.3,21.9,28.1c13.7,0.8,26.1-10.5,27.8-25.2C214.5-238.3,204.8-250.9,191.1-251.7z
					 M203.1-225c-1.9,12.5-9.9,22.6-18.3,22.6s-14-10.1-12.2-22.6c1.9-12.5,10.2-22.6,18.6-22.6C199.7-247.6,205-237.5,203.1-225z"
					/>
				<g>
					
						<linearGradient id="SVGID_00000004530642375070783470000006963359395221809084_" gradientUnits="userSpaceOnUse" x1="202.0808" y1="629.7214" x2="198.3628" y2="682.8903" gradientTransform="matrix(1 0 0 -1 0 430.9444)">
						<stop  offset="9.550000e-02" style="stop-color:#E5B250"/>
						<stop  offset="0.277" style="stop-color:#F1D272"/>
						<stop  offset="0.457" style="stop-color:#FBEC8E"/>
						<stop  offset="0.5618" style="stop-color:#FFF698"/>
						<stop  offset="0.9326" style="stop-color:#E5B250"/>
					</linearGradient>
					<path style="fill:url(#SVGID_00000004530642375070783470000006963359395221809084_);" d="M194.8-251.1c3,0.6,5.9,1.8,8.5,3.6
						c2.5,1.8,4.7,4.1,6.4,6.8c1.7,2.6,2.8,5.6,3.4,8.7c0.6,3.1,0.6,6.3,0.2,9.4c-0.5,3.1-1.4,6.1-2.8,8.9c-1.4,2.8-3.2,5.4-5.4,7.6
						c-2.2,2.2-4.8,4.1-7.6,5.4c-2.8,1.3-5.9,2.2-8.9,2.3l1.1-0.2l1.1-0.2l1.1-0.3l1.1-0.3c1.4-0.5,2.9-1.1,4.2-1.8
						c2.7-1.4,5.1-3.3,7.2-5.5c4.1-4.4,6.8-10.1,7.7-16.1c0.9-5.9-0.1-12.2-3.2-17.4c-1.5-2.6-3.5-4.9-5.9-6.8
						c-1.2-0.9-2.5-1.8-3.9-2.4c-0.3-0.2-0.7-0.3-1-0.5c-0.4-0.1-0.7-0.3-1.1-0.4c-0.4-0.1-0.7-0.2-1.1-0.4L194.8-251.1z"/>
					
						<linearGradient id="SVGID_00000159427952841689619360000002169971496484665485_" gradientUnits="userSpaceOnUse" x1="176.7854" y1="628.8133" x2="173.0645" y2="682.0237" gradientTransform="matrix(1 0 0 -1 0 430.9444)">
						<stop  offset="9.550000e-02" style="stop-color:#E5B250"/>
						<stop  offset="0.277" style="stop-color:#F1D272"/>
						<stop  offset="0.457" style="stop-color:#FBEC8E"/>
						<stop  offset="0.5618" style="stop-color:#FFF698"/>
						<stop  offset="0.9326" style="stop-color:#E5B250"/>
					</linearGradient>
					<path style="fill:url(#SVGID_00000159427952841689619360000002169971496484665485_);" d="M185.8-251.4l-1.1,0.2
						c-0.4,0.1-0.7,0.2-1.1,0.3c-0.4,0.1-0.7,0.2-1.1,0.4c-0.4,0.1-0.7,0.2-1.1,0.4c-1.4,0.6-2.8,1.2-4,2c-2.6,1.6-4.9,3.5-6.8,5.8
						c-3.9,4.5-6.4,10.2-7,16.2c-0.7,5.9,0.6,12.1,3.8,17.1c1.6,2.5,3.7,4.7,6.1,6.5c1.2,0.9,2.5,1.6,3.9,2.3l1,0.4l1.1,0.4l1.1,0.4
						l1.1,0.3c-3-0.5-5.9-1.6-8.5-3.3c-2.6-1.7-4.8-3.9-6.5-6.5c-1.8-2.6-3-5.4-3.7-8.5c-0.7-3-0.9-6.2-0.5-9.2
						c0.4-3.1,1.2-6.1,2.4-8.9c1.3-2.8,3-5.4,5.1-7.7c2.1-2.3,4.5-4.2,7.2-5.7c1.4-0.7,2.8-1.3,4.2-1.8c0.4-0.1,0.7-0.2,1.1-0.3
						c0.4-0.1,0.7-0.2,1.1-0.3c0.4-0.1,0.8-0.1,1.1-0.2L185.8-251.4z"/>
				</g>
			</g>
			<g>
				
					<linearGradient id="SVGID_00000114766671291046427130000007841222631645779350_" gradientUnits="userSpaceOnUse" x1="74.992" y1="653.7531" x2="159.87" y2="653.7531" gradientTransform="matrix(1 0 0 -1 0 430.9444)">
					<stop  offset="9.550000e-02" style="stop-color:#CE8A2D"/>
					<stop  offset="9.809999e-02" style="stop-color:#CE8B2E"/>
					<stop  offset="0.3064" style="stop-color:#E2B65A"/>
					<stop  offset="0.4678" style="stop-color:#EED176"/>
					<stop  offset="0.5618" style="stop-color:#F3DB80"/>
					<stop  offset="0.9326" style="stop-color:#BB8532"/>
				</linearGradient>
				<path style="fill:url(#SVGID_00000114766671291046427130000007841222631645779350_);" d="M101.3-201.3c-3.6-0.2-7,0-10.1,0.8
					c4-4.1,11.5-6.6,19.2-8.5c17.9-4.5,40.7-15,45.7-28.7c7.5-20.1-5.7-34.8-28-36.2c-19.5-1.2-36.9,6.6-42.2,22.6
					c-3.2,9.8,2.9,22.1,15.2,21.8c9.1-0.2,14.4-7.9,16.4-13.5c-5.3,4.7-13.3,1.4-14-5c-0.8-8.4,6-18.6,20.2-17.9
					c11.3,0.6,17.8,11.4,12.5,23.2c-3.6,8-16.2,17.2-31.4,23.7c-22.9,9.8-38.2,26-25.3,47.5c0,0,1.9-10.9,16.7-12
					c11.5-0.9,25.3,8.5,39.2,9.3c8,0.4,20.9-5,24.3-11.3C144.1-182.1,128.2-199.4,101.3-201.3z"/>
				<g>
					
						<linearGradient id="SVGID_00000168826686047020918490000011559551938941775246_" gradientUnits="userSpaceOnUse" x1="79.4773" y1="613.4492" x2="159.88" y2="613.4492" gradientTransform="matrix(1 0 0 -1 0 430.9444)">
						<stop  offset="9.550000e-02" style="stop-color:#946338"/>
						<stop  offset="0.3015" style="stop-color:#BF8D45"/>
						<stop  offset="0.466" style="stop-color:#DBA84D"/>
						<stop  offset="0.5618" style="stop-color:#E5B250"/>
						<stop  offset="0.9326" style="stop-color:#946338"/>
					</linearGradient>
					<path style="fill:url(#SVGID_00000168826686047020918490000011559551938941775246_);" d="M137.4-182.2
						c-11.1-2.7-27.9-13.6-43.6-10.9c-12,2.1-15.3,14.9-14.1,21.5c0,0,1.9-10.9,16.7-12c11.5-0.9,25.3,8.5,39.2,9.3
						c8,0.4,20.9-5,24.3-11.3C153-181.5,146.9-179.8,137.4-182.2z"/>
					
						<linearGradient id="SVGID_00000124843113814094016480000003402401977493355662_" gradientUnits="userSpaceOnUse" x1="121.7446" y1="602.4662" x2="121.7446" y2="705.01" gradientTransform="matrix(1 0 0 -1 0 430.9444)">
						<stop  offset="9.550000e-02" style="stop-color:#946338"/>
						<stop  offset="0.3015" style="stop-color:#BF8D45"/>
						<stop  offset="0.466" style="stop-color:#DBA84D"/>
						<stop  offset="0.5618" style="stop-color:#E5B250"/>
						<stop  offset="0.9326" style="stop-color:#946338"/>
					</linearGradient>
					<path style="fill:url(#SVGID_00000124843113814094016480000003402401977493355662_);" d="M101.7-236.2
						c-8.8-2.1-8-13.1-4.5-19.7c3.5-6.6,11.8-14,26-14s29.8,8.2,24.6,27.2c-2.6,9.6-14.9,17.6-28.2,23.4c-13.3,5.8-27,13-28.4,18.6
						c4-4.1,11.5-6.6,19.2-8.5c17.9-4.5,40.7-15,45.7-28.7c7.5-20.1-5.7-34.8-28-36.2c-19.5-1.2-36.9,6.6-42.2,22.6
						c-3.2,9.8,2.9,22.1,15.2,21.8c9.1-0.2,14.4-7.9,16.4-13.5C114.7-239.1,109.7-234.3,101.7-236.2z"/>
				</g>
				<g>
					
						<linearGradient id="SVGID_00000114034731889905605270000015360647707455086506_" gradientUnits="userSpaceOnUse" x1="119.6323" y1="602.3605" x2="119.6323" y2="624.9976" gradientTransform="matrix(1 0 0 -1 0 430.9444)">
						<stop  offset="9.550000e-02" style="stop-color:#E5B250"/>
						<stop  offset="0.277" style="stop-color:#F1D272"/>
						<stop  offset="0.457" style="stop-color:#FBEC8E"/>
						<stop  offset="0.5618" style="stop-color:#FFF698"/>
						<stop  offset="0.9326" style="stop-color:#E5B250"/>
					</linearGradient>
					<path style="fill:url(#SVGID_00000114034731889905605270000015360647707455086506_);" d="M79.7-171.5c-0.4-2-0.4-4.1-0.1-6.1
						c0.3-2,0.8-4,1.7-5.9c0.8-1.9,2-3.6,3.4-5.2c0.7-0.8,1.5-1.4,2.3-2.1c0.8-0.6,1.8-1.1,2.7-1.6s1.9-0.8,2.9-1
						c1-0.2,2-0.4,3.1-0.5c2.1-0.2,4.1-0.2,6.2-0.1c4.1,0.3,8.1,1.3,12,2.5c3.9,1.2,7.7,2.8,11.4,4.3c3.7,1.5,7.5,3.1,11.3,4.3
						c3.9,1.1,7.9,1.7,11.9,1.2c2-0.2,4-0.7,5.9-1.4c0.9-0.3,1.9-0.8,2.8-1.2c0.5-0.2,0.9-0.4,1.4-0.7l1.3-0.7l-1.3,0.8
						c-0.4,0.2-0.9,0.5-1.3,0.8c-0.9,0.5-1.8,0.9-2.8,1.3c-1.9,0.8-3.9,1.4-5.9,1.7s-4.1,0.3-6.1,0.2c-2.1-0.2-4.1-0.6-6.1-1.1
						c-2-0.5-3.9-1.2-5.8-1.9c-1.9-0.7-3.8-1.5-5.7-2.2c-3.8-1.5-7.5-3-11.4-4.2c-3.8-1.2-7.8-2.2-11.8-2.5c-2-0.2-4-0.2-6,0
						c-1,0.1-2,0.2-2.9,0.4c-1,0.2-1.9,0.5-2.8,0.9c-0.9,0.4-1.8,0.9-2.6,1.4s-1.6,1.2-2.3,1.9c-1.4,1.4-2.5,3.1-3.4,4.9
						c-0.9,1.8-1.5,3.7-1.9,5.7c-0.2,1-0.3,2-0.3,3C79.5-173.5,79.6-172.5,79.7-171.5z"/>
					
						<linearGradient id="SVGID_00000027584801583639252250000005908955896475267747_" gradientUnits="userSpaceOnUse" x1="120.3091" y1="631.3861" x2="120.3091" y2="701.3981" gradientTransform="matrix(1 0 0 -1 0 430.9444)">
						<stop  offset="9.550000e-02" style="stop-color:#E5B250"/>
						<stop  offset="0.277" style="stop-color:#F1D272"/>
						<stop  offset="0.457" style="stop-color:#FBEC8E"/>
						<stop  offset="0.5618" style="stop-color:#FFF698"/>
						<stop  offset="0.9326" style="stop-color:#E5B250"/>
					</linearGradient>
					<path style="fill:url(#SVGID_00000027584801583639252250000005908955896475267747_);" d="M91.2-200.6c0.2-1,0.8-1.8,1.4-2.6
						c0.6-0.8,1.3-1.5,2-2.2c0.7-0.7,1.5-1.3,2.3-1.9c0.8-0.6,1.6-1.2,2.4-1.7c3.3-2.2,6.8-4.1,10.2-5.9c3.5-1.8,7.1-3.4,10.7-5.1
						c3.6-1.6,7.1-3.4,10.4-5.4c3.4-2,6.6-4.3,9.4-6.9c1.4-1.3,2.8-2.7,3.9-4.3c0.6-0.8,1.1-1.6,1.6-2.4c0.5-0.8,0.9-1.7,1.2-2.6
						c0.2-0.4,0.3-0.9,0.4-1.4l0.3-1.4c0.1-0.2,0.1-0.5,0.1-0.7l0.1-0.7c0.1-0.5,0.1-0.9,0.2-1.4c0.2-1.9,0.2-3.9-0.1-5.7
						c-0.3-1.9-0.9-3.7-1.8-5.4c-0.9-1.7-2.1-3.2-3.5-4.5c-0.3-0.3-0.7-0.6-1.1-0.9c-0.4-0.3-0.8-0.6-1.1-0.9
						c-0.4-0.3-0.8-0.5-1.2-0.8c-0.4-0.2-0.8-0.5-1.3-0.7c-1.7-0.9-3.5-1.6-5.4-2.1s-3.8-0.9-5.7-1.1c-1-0.1-1.9-0.2-2.9-0.2l-0.7,0
						c-0.2,0-0.5,0-0.7,0l-1.5,0c-0.5,0-1,0.1-1.4,0.1l-1.4,0.1l-1.4,0.2l-0.7,0.1c-0.2,0-0.5,0.1-0.7,0.2l-1.4,0.3
						c-0.5,0.1-0.9,0.3-1.4,0.4l-0.7,0.2c-0.2,0.1-0.4,0.2-0.7,0.3l-1.3,0.5c-1.8,0.8-3.4,1.8-5,2.9c-1.6,1.1-3,2.4-4.3,3.9
						s-2.4,3.1-3.3,4.8c-0.9,1.7-1.5,3.6-1.9,5.5c-0.4,1.9-0.5,3.9-0.2,5.8c0.3,1.9,1,3.8,2.3,5.1c1.3,1.4,3.1,2.2,5,2.6
						c1.9,0.4,3.9,0.4,5.8-0.1c1.9-0.5,3.7-1.4,5.2-2.6c0.8-0.6,1.5-1.3,2.2-1.9c0.7-0.7,1.3-1.4,1.9-2.2c-0.6,0.8-1.2,1.6-1.9,2.3
						c-0.7,0.7-1.4,1.4-2.2,2c-1.5,1.2-3.3,2.2-5.2,2.7c-1.9,0.5-4,0.5-5.9,0.2c-2-0.3-3.9-1.1-5.4-2.6c-0.7-0.7-1.3-1.6-1.7-2.5
						c-0.4-0.9-0.7-1.9-0.8-2.9c-0.3-2-0.2-4,0.1-6s1-3.9,1.8-5.7c0.9-1.8,2-3.5,3.3-5c1.3-1.5,2.8-2.9,4.4-4.1
						c1.6-1.2,3.4-2.2,5.2-3l1.4-0.6c0.2-0.1,0.5-0.2,0.7-0.3l0.7-0.2c0.5-0.1,0.9-0.3,1.4-0.5l1.5-0.4c0.2,0,0.5-0.1,0.7-0.2
						l0.7-0.1l1.5-0.2l1.5-0.1c0.5,0,1-0.1,1.5-0.1l1.5,0c0.2,0,0.5,0,0.8,0l0.8,0c1,0,2,0.1,3,0.2c2,0.2,4,0.5,5.9,1.1
						s3.8,1.2,5.6,2.2c0.4,0.2,0.9,0.5,1.3,0.7s0.9,0.5,1.3,0.8c0.4,0.3,0.8,0.6,1.2,0.9l0.6,0.5c0.2,0.2,0.4,0.3,0.6,0.5
						c1.5,1.4,2.8,3,3.7,4.8c1,1.8,1.6,3.8,1.9,5.8s0.3,4,0.1,6c-0.1,0.5-0.1,1-0.2,1.5l-0.1,0.7c0,0.2-0.1,0.5-0.2,0.7l-0.4,1.5
						c-0.1,0.5-0.3,1-0.5,1.4c-0.4,0.9-0.8,1.9-1.3,2.7c-0.5,0.9-1.1,1.7-1.7,2.5c-1.2,1.6-2.6,3-4.1,4.4c-1.5,1.3-3,2.6-4.7,3.7
						c-1.6,1.1-3.3,2.2-5,3.2c-3.4,2-7,3.7-10.6,5.3c-3.6,1.6-7.2,3.2-10.7,4.9c-3.5,1.7-7,3.5-10.3,5.6c-0.8,0.5-1.7,1.1-2.4,1.6
						c-0.8,0.6-1.6,1.2-2.3,1.8c-0.7,0.6-1.4,1.3-2.1,2.1C92.1-202.4,91.5-201.5,91.2-200.6z"/>
				</g>
			</g>
		</g>
		<g>
			
				<linearGradient id="SVGID_00000085967105196587459100000007097514979754371747_" gradientUnits="userSpaceOnUse" x1="829.5991" y1="836.8856" x2="978.5811" y2="814.6436" gradientTransform="matrix(0.989 -0.1477 -0.1477 -0.989 -615.9852 739.7628)">
				<stop  offset="9.550000e-02" style="stop-color:#E5B250"/>
				<stop  offset="0.277" style="stop-color:#F1D272"/>
				<stop  offset="0.457" style="stop-color:#FBEC8E"/>
				<stop  offset="0.5618" style="stop-color:#FFF698"/>
				<stop  offset="0.9326" style="stop-color:#E5B250"/>
			</linearGradient>
			<path style="fill:url(#SVGID_00000085967105196587459100000007097514979754371747_);" d="M80.9-217.9c16.1-4.7,34.4-2.1,56,16.1
				c34.4,28.8,70.7,26.2,87.2,6.4c10.9-13.2,9.3-34.1-1.4-45.2c8,11.6,5.5,29-6.3,39.5c-21.6,19.4-48.9,11.7-74.2-8.6
				C124.9-223.6,103.3-229.2,80.9-217.9z"/>
			<g>
				
					<linearGradient id="SVGID_00000039126788582816688740000012017583913680511378_" gradientUnits="userSpaceOnUse" x1="154.7258" y1="617.6657" x2="154.7258" y2="671.5044" gradientTransform="matrix(1 0 0 -1 0 430.9444)">
					<stop  offset="9.550000e-02" style="stop-color:#946338"/>
					<stop  offset="0.3015" style="stop-color:#BF8D45"/>
					<stop  offset="0.466" style="stop-color:#DBA84D"/>
					<stop  offset="0.5618" style="stop-color:#E5B250"/>
					<stop  offset="0.9326" style="stop-color:#946338"/>
				</linearGradient>
				<path style="fill:url(#SVGID_00000039126788582816688740000012017583913680511378_);" d="M80.9-217.9c22.4-11.3,44-5.7,61.3,8.2
					c25.3,20.4,52.6,28,74.2,8.6c11.8-10.6,14.3-27.9,6.3-39.5c8.9,11.5,7.8,30-3.7,41.4c-19.9,19.6-50.2,15.3-78.5-7.9
					C121.7-222.4,101.2-227,80.9-217.9z"/>
			</g>
		</g>
	</g>
	<g>
		
			<linearGradient id="SVGID_00000020359482680476039340000013850780030653178790_" gradientUnits="userSpaceOnUse" x1="233.5225" y1="654.7044" x2="300.4209" y2="654.7044" gradientTransform="matrix(1 0 0 -1 0 430.9444)">
			<stop  offset="9.550000e-02" style="stop-color:#CE8A2D"/>
			<stop  offset="9.809999e-02" style="stop-color:#CE8B2E"/>
			<stop  offset="0.3064" style="stop-color:#E2B65A"/>
			<stop  offset="0.4678" style="stop-color:#EED176"/>
			<stop  offset="0.5618" style="stop-color:#F3DB80"/>
			<stop  offset="0.9326" style="stop-color:#BB8532"/>
		</linearGradient>
		<path style="fill:url(#SVGID_00000020359482680476039340000013850780030653178790_);" d="M271.2-253.2
			c-18.3-0.9-35.1,11.6-37.4,27.9s10.9,30.2,29.3,31.1s34.8-11.6,37.1-27.9C302.5-238.4,289.5-252.3,271.2-253.2z M281.6-223.8
			c-1.8,11.9-9.5,21.6-17.5,21.6c-8.1,0-13.4-9.7-11.7-21.6s9.8-21.6,17.8-21.6S283.4-235.7,281.6-223.8z"/>
		
			<linearGradient id="SVGID_00000121972848154408309100000014831967416039069880_" gradientUnits="userSpaceOnUse" x1="266.9758" y1="629.0958" x2="266.9758" y2="680.3231" gradientTransform="matrix(1 0 0 -1 0 430.9444)">
			<stop  offset="9.550000e-02" style="stop-color:#946338"/>
			<stop  offset="0.3015" style="stop-color:#BF8D45"/>
			<stop  offset="0.466" style="stop-color:#DBA84D"/>
			<stop  offset="0.5618" style="stop-color:#E5B250"/>
			<stop  offset="0.9326" style="stop-color:#946338"/>
		</linearGradient>
		<path style="fill:url(#SVGID_00000121972848154408309100000014831967416039069880_);" d="M270-249.3
			c-13.2-0.8-25.2,10.1-26.9,24.2c-1.7,14.1,7.9,26.2,21,27c13.2,0.8,25-10.1,26.7-24.2C292.5-236.5,283.2-248.6,270-249.3z
			 M281.6-223.8c-1.8,11.9-9.5,21.6-17.5,21.6c-8.1,0-13.4-9.7-11.7-21.6s9.8-21.6,17.8-21.6S283.4-235.7,281.6-223.8z"/>
		<g>
			
				<linearGradient id="SVGID_00000046334969053327096730000003525688898458527622_" gradientUnits="userSpaceOnUse" x1="280.55" y1="629.5374" x2="276.9832" y2="680.5449" gradientTransform="matrix(1 0 0 -1 0 430.9444)">
				<stop  offset="9.550000e-02" style="stop-color:#E5B250"/>
				<stop  offset="0.277" style="stop-color:#F1D272"/>
				<stop  offset="0.457" style="stop-color:#FBEC8E"/>
				<stop  offset="0.5618" style="stop-color:#FFF698"/>
				<stop  offset="0.9326" style="stop-color:#E5B250"/>
			</linearGradient>
			<path style="fill:url(#SVGID_00000046334969053327096730000003525688898458527622_);" d="M273.6-248.8c2.9,0.5,5.7,1.7,8.1,3.4
				c2.4,1.7,4.5,3.9,6.1,6.5c1.6,2.5,2.7,5.4,3.2,8.4c0.6,3,0.6,6,0.2,9c-0.4,3-1.3,5.9-2.7,8.6c-1.3,2.7-3.1,5.2-5.2,7.3
				c-2.1,2.1-4.6,3.9-7.2,5.2c-2.7,1.3-5.6,2.1-8.6,2.2l1.1-0.2l1.1-0.2l1.1-0.3l1-0.3c1.4-0.4,2.7-1,4-1.7c2.6-1.4,4.9-3.2,6.9-5.3
				c4-4.2,6.6-9.7,7.4-15.4c0.9-5.7-0.1-11.7-3-16.7c-1.5-2.5-3.4-4.7-5.7-6.5c-1.1-0.9-2.4-1.7-3.7-2.3c-0.3-0.2-0.7-0.3-1-0.5
				c-0.3-0.1-0.7-0.3-1-0.4c-0.3-0.1-0.7-0.2-1-0.4L273.6-248.8z"/>
			
				<linearGradient id="SVGID_00000172432820189439959020000009593432892062615460_" gradientUnits="userSpaceOnUse" x1="256.2848" y1="628.6663" x2="252.7153" y2="679.7136" gradientTransform="matrix(1 0 0 -1 0 430.9444)">
				<stop  offset="9.550000e-02" style="stop-color:#E5B250"/>
				<stop  offset="0.277" style="stop-color:#F1D272"/>
				<stop  offset="0.457" style="stop-color:#FBEC8E"/>
				<stop  offset="0.5618" style="stop-color:#FFF698"/>
				<stop  offset="0.9326" style="stop-color:#E5B250"/>
			</linearGradient>
			<path style="fill:url(#SVGID_00000172432820189439959020000009593432892062615460_);" d="M265-249.1l-1.1,0.2
				c-0.4,0.1-0.7,0.2-1,0.3c-0.4,0.1-0.7,0.2-1,0.3c-0.3,0.1-0.7,0.2-1,0.4c-1.4,0.5-2.6,1.2-3.9,1.9c-2.5,1.5-4.7,3.4-6.5,5.6
				c-3.8,4.3-6.1,9.8-6.7,15.5c-0.6,5.7,0.6,11.6,3.7,16.4c1.5,2.4,3.5,4.5,5.9,6.2c1.2,0.9,2.4,1.6,3.7,2.2l1,0.4l1,0.4l1,0.3
				l1,0.3c-2.9-0.4-5.7-1.6-8.1-3.2c-2.5-1.6-4.6-3.7-6.3-6.2c-1.7-2.4-2.9-5.2-3.6-8.1c-0.7-2.9-0.8-5.9-0.5-8.9
				c0.3-2.9,1.1-5.9,2.3-8.6c1.2-2.7,2.9-5.2,4.9-7.4c2-2.2,4.3-4.1,6.9-5.5c1.3-0.7,2.6-1.3,4-1.8c0.4-0.1,0.7-0.2,1-0.3
				c0.4-0.1,0.7-0.2,1.1-0.3c0.4-0.1,0.7-0.1,1.1-0.2L265-249.1z"/>
		</g>
	</g>
</g>
<g>
	<g>
		<path d="M373.2,267.6c0.1-6.1,0.5-12.7,1.2-18.8c2.3-19.9,6.5-28.3,6.5-28.3c-4.1,4.5-9.5,7.4-9.5,7.4c-4.4,6.5-10,14.4-13.8,25.1
			c-0.8,2.2-1.5,4.4-2.1,6.6c-7-2.5-14-4-20.9-3.9c-8.1,0-13.5,1.5-17.1,3.3c7-19.6,45.3-16.1,59.3-48.4c6.9-16-1.5-28.2-1.5-28.2
			c-2.2,17.4-31.2,31.4-48.5,45.8c-20.1,16.8-23.6,38.2-20.4,53c3.7-4.1,11-7.5,21.4-8.5c7.8-0.7,16,1.6,24.2,4.2
			c-1,7.5-1.3,13.9-1.2,18.2c0,0,10.9-2.4,22.9-1.6c0,0-0.3-4.2-0.4-10.6c1.5,0.2,3,0.4,4.4,0.4c7.4,0.2,14.4-1.5,19.8-9.3
			C390.2,276.4,381.9,272.2,373.2,267.6z"/>
		<path d="M336.3,233.2c11.7-8.4,27.7-17.1,34.1-25.3c5.2-6.6,7-18.8,4.9-25.6c0,0,8.4,12.2,1.5,28.2c-14,32.3-52.2,28.8-59.3,48.4
			C319.1,252.8,324.5,241.7,336.3,233.2z M362.5,271.6c6.2,2.6,11.7,5.1,16.1,5.6c9.3,1.2,14.3-0.2,18.8-3.3
			c-7.2,2.5-15.5-1.7-24.2-6.2c0.1-6.1,0.5-12.7,1.2-18.8c2.3-19.9,6.5-28.3,6.5-28.3c-1.6,1.7-3.4,3.2-5,4.4
			c-4.4,10.3-10.1,28.4-12.3,39.7C363.2,267,362.8,269.3,362.5,271.6z M362.5,271.6c-9.9-4.3-21.6-9.1-33-8
			c-17.8,1.8-23.2,12.1-23.2,17.5c3.7-4.1,11-7.5,21.4-8.5c7.8-0.7,16,1.6,24.2,4.2c-1,7.5-1.3,13.9-1.2,18.2c0,0,4.5-1,11-1.5
			C361.6,289.6,361.4,281.1,362.5,271.6z"/>
		<g>
			<path d="M361.7,293.5c-0.5-5.9-0.5-11.8-0.1-17.7c0.2-3,0.5-5.9,1-8.8c0.5-2.9,1.1-5.8,1.8-8.7c0.7-2.9,1.5-5.7,2.3-8.5
				c0.9-2.8,1.7-5.6,2.7-8.4c1-2.8,2-5.6,3-8.3c1.1-2.7,2.2-5.5,3.5-8.1c-1,2.8-2,5.5-2.9,8.3c-0.9,2.8-1.8,5.6-2.7,8.4
				c-1.7,5.6-3.3,11.3-4.7,16.9c-1.4,5.7-2.4,11.5-3,17.3C362,281.7,361.8,287.6,361.7,293.5z"/>
			<path d="M306.3,281.1c0-2.1,0.6-4.3,1.6-6.2c1-1.9,2.4-3.6,4-5c0.4-0.4,0.8-0.7,1.3-1c0.4-0.3,0.9-0.7,1.3-0.9l1.4-0.9
				c0.5-0.3,1-0.5,1.5-0.7l0.7-0.4c0.2-0.1,0.5-0.2,0.8-0.3l1.5-0.6c0.5-0.2,1-0.3,1.5-0.5l0.8-0.2c0.3-0.1,0.5-0.2,0.8-0.2l1.6-0.4
				c0.5-0.1,1-0.3,1.6-0.3l1.6-0.2c0.5-0.1,1.1-0.2,1.6-0.2c2.2-0.2,4.4-0.2,6.5,0c4.3,0.4,8.6,1.4,12.7,2.7c4.1,1.3,8.1,3,12,4.7
				c3.9,1.7,7.8,3.5,11.8,4.9c2,0.7,4,1.3,6.1,1.6c2.1,0.3,4.2,0.5,6.3,0.5h0.8l0.8,0c0.5,0,1-0.1,1.6-0.1c1-0.1,2.1-0.3,3.1-0.6
				c2-0.6,4-1.5,5.8-2.7c-0.9,0.6-1.8,1.2-2.7,1.7c-1,0.5-2,0.9-3,1.3s-2.1,0.6-3.1,0.8c-0.5,0.1-1.1,0.2-1.6,0.2l-0.8,0.1l-0.8,0
				c-2.2,0.1-4.3,0-6.5-0.3c-1.1-0.1-2.2-0.3-3.2-0.6c-1.1-0.2-2.1-0.6-3.1-0.9c-2-0.7-4-1.5-6-2.3l-5.9-2.5
				c-3.9-1.6-7.9-3.3-11.9-4.5c-4-1.3-8.2-2.3-12.4-2.7c-2.1-0.2-4.2-0.2-6.3,0c-0.5,0-1,0.1-1.6,0.2l-1.6,0.2c-0.5,0-1,0.2-1.6,0.3
				l-1.5,0.3c-0.3,0-0.5,0.1-0.8,0.2l-0.8,0.2c-0.5,0.1-1,0.3-1.5,0.4l-1.5,0.5l-0.7,0.3l-0.7,0.3c-0.5,0.2-1,0.4-1.4,0.7l-1.4,0.8
				c-0.5,0.2-0.9,0.6-1.3,0.9l-0.6,0.5c-0.1,0.1-0.2,0.2-0.3,0.2l-0.3,0.3c-1.6,1.3-3.1,2.9-4.2,4.7c-0.2,0.5-0.5,0.9-0.7,1.4
				l-0.3,0.7c-0.1,0.2-0.2,0.5-0.3,0.8l-0.2,0.8c-0.1,0.2-0.1,0.5-0.2,0.8C306.4,280,306.4,280.6,306.3,281.1z"/>
			<path d="M317.5,259c0.5-2.1,1.2-4.1,2.1-6s1.8-3.9,3-5.7c0.3-0.5,0.6-0.9,0.9-1.4c0.3-0.4,0.6-0.9,0.9-1.3l0.9-1.3l1-1.3l0.5-0.6
				l0.5-0.6l1.1-1.2l1.1-1.2l0.6-0.6l0.6-0.6l1.2-1.1c0.4-0.4,0.8-0.7,1.2-1.1c0.8-0.7,1.7-1.4,2.5-2c1.7-1.3,3.5-2.5,5.2-3.7
				c3.5-2.4,7.1-4.7,10.6-7c3.5-2.3,7.1-4.7,10.4-7.2l1.2-1l0.6-0.5l0.6-0.5l1.2-1l1.2-1.1c1.5-1.4,3-2.9,4.2-4.6
				c1.2-1.7,2.1-3.6,2.8-5.6c0.7-2,1.3-4,1.7-6.1c0.4-2.1,0.6-4.2,0.7-6.3c0-1.1,0-2.1-0.1-3.2c0-0.3,0-0.5-0.1-0.8l-0.1-0.8
				c-0.1-0.5-0.2-1-0.4-1.6c0.7,2,1,4.1,1,6.3s-0.1,4.3-0.4,6.4c-0.3,2.1-0.8,4.2-1.5,6.2c-0.7,2-1.6,4-2.8,5.8
				c-0.3,0.4-0.6,0.9-0.9,1.3l-1,1.2c-0.4,0.4-0.7,0.8-1.1,1.2l-0.6,0.6l-0.6,0.6l-1.2,1.1l-1.2,1l-0.6,0.5l-0.6,0.5l-1.2,1
				c-3.4,2.6-6.9,5-10.5,7.3c-3.5,2.3-7.1,4.6-10.6,7l-2.6,1.8l-1.3,0.9c-0.4,0.3-0.9,0.6-1.3,0.9c-0.8,0.6-1.7,1.2-2.5,1.9
				c-0.4,0.3-0.8,0.7-1.2,1l-1.2,1.1l-0.6,0.5l-0.6,0.6l-1.1,1.1l-1.1,1.2l-0.5,0.6l-0.5,0.6c-1.4,1.6-2.6,3.3-3.8,5
				C320.7,251.1,318.8,254.9,317.5,259z"/>
		</g>
	</g>
	<g>
		<path d="M193.6,151.9h-2.1c0.3-2.9,0.4-5.1,0.4-6.6c0-2.1-0.6-3.8-1.7-5c-1.1-1.2-2.7-1.8-4.6-1.8c-3,0-5.6,1.1-7.9,3.3
			s-3.4,4.6-3.4,7.4c0,1.5,0.3,2.8,0.9,4c0.6,1.2,2,2.8,4.1,4.9c3.9,3.8,6.4,6.8,7.6,8.9c1.2,2.1,1.8,4.2,1.8,6.3
			c0,3-0.9,5.9-2.7,8.7s-4.5,5.1-8.1,6.9c-3.6,1.8-7.3,2.7-11.3,2.7c-3.9,0-7.2-1-9.9-3.1s-4-4.2-4-6.4c0-1.2,0.4-2.2,1.1-3
			c0.7-0.8,1.5-1.2,2.4-1.2c0.9,0,1.7,0.4,2.3,1.1c0.4,0.4,0.8,1.4,1.1,3c0.4,1.9,1,3.2,1.6,4.1c0.6,0.8,1.5,1.5,2.6,2.1
			c1.1,0.5,2.3,0.8,3.6,0.8c3.9,0,7.4-1.3,10.3-4s4.4-5.6,4.4-8.8c0-1.1-0.2-2.2-0.6-3.3s-1.1-2.3-2-3.7c-0.7-0.9-2.2-2.6-4.6-4.9
			c-2.3-2.3-3.8-3.9-4.4-4.7c-0.9-1.2-1.5-2.5-1.9-3.7s-0.6-2.5-0.6-3.7c0-2.5,0.8-5,2.5-7.5s3.9-4.5,6.5-6s5.7-2.2,9.1-2.2
			c1.7,0,3.8,0.3,6.3,0.8c1.4,0.3,2.7,0.5,3.7,0.6c-0.6,1.8-1.1,3.5-1.4,5.1C194.6,144.1,194.2,147.2,193.6,151.9z"/>
		<path d="M203.4,160.3l-1.8-1.4c2.7-3,5.2-5.2,7.5-6.4s4.2-1.9,5.8-1.9c0.9,0,1.6,0.2,2,0.6s0.7,0.9,0.7,1.6
			c0,0.8-0.9,4.2-2.7,10.1c-2.9,9.8-4.4,15.6-4.4,17.6c0,0.4,0.1,0.7,0.3,1c0.2,0.3,0.4,0.4,0.6,0.4c0.9,0,3.1-1.7,6.8-5.1l1.6,1.6
			c-3.8,3.5-6.5,5.8-8.2,6.8c-1.7,1-3.1,1.5-4.2,1.5c-1,0-1.7-0.3-2.3-0.9c-0.6-0.6-0.8-1.4-0.8-2.5c0-3.4,2.1-11.8,6.2-25.2
			c0.2-0.6,0.3-1.2,0.3-1.7c0-0.6-0.2-0.8-0.7-0.8c-0.6,0-1.2,0.2-1.9,0.7C207.4,156.5,205.8,157.9,203.4,160.3z M219.6,133
			c0.9,0,1.6,0.3,2.1,0.8s0.8,1.3,0.8,2.2c0,1.2-0.4,2.3-1.3,3.2s-1.8,1.4-2.8,1.4c-0.8,0-1.5-0.3-2.1-0.9s-0.8-1.3-0.8-2.3
			c0-1.2,0.4-2.3,1.2-3.1C217.5,133.4,218.5,133,219.6,133z"/>
		<path d="M228.4,160.4l-1.4-1.4c3.5-3.4,6.3-5.6,8.4-6.7c2.1-1.1,3.9-1.7,5.4-1.7c0.6,0,1,0.1,1.4,0.4s0.5,0.5,0.5,0.9
			c0,0.2-0.1,0.7-0.2,1.3l-1.9,8.3c2.8-3.1,6.3-6,10.5-8.7c2.2-1.4,4.1-2.1,5.5-2.1c1.1,0,1.9,0.3,2.5,1c0.6,0.7,0.9,1.7,0.9,3
			c0,0.9-0.1,1.8-0.4,2.9c-0.4,1.8-1.6,5.7-3.5,11.7c-1.8,5.6-2.6,9.3-2.6,11.2c0,0.6,0.1,1,0.2,1.3s0.4,0.4,0.7,0.4
			c0.8,0,2.1-0.8,3.8-2.3c1.2-1.1,2.4-2.1,3.6-3.1l1,1.5c-2.5,2.8-5.1,5-7.9,6.7c-1.7,1.1-3.2,1.6-4.3,1.6c-1,0-1.9-0.4-2.4-1.1
			c-0.6-0.8-0.9-2-0.9-3.7c0-2.4,1.5-8.5,4.6-18.2c0.9-3.5,1.4-5.5,1.4-6.1c0-0.9-0.5-1.3-1.5-1.3c-1.1,0-2.5,0.6-4.2,1.7
			c-2.6,1.7-4.7,3.7-6.5,6c-1.1,1.5-2,3.9-2.8,7.1l-3.3,14.4H229c1.1-4.1,2.2-8.1,3-11.8l3.7-15.7c0.1-0.6,0.2-1.1,0.2-1.4
			c0-0.7-0.3-1.1-0.8-1.1c-0.4,0-1.1,0.3-1.9,0.9C231.5,157.4,229.9,158.8,228.4,160.4z"/>
		<path d="M293.5,176.4l0.9,2.4c-6.5,5.1-12.1,7.7-16.6,7.7c-2.4,0-4.1-0.9-5.2-2.6c-1.1-1.7-1.6-3.9-1.6-6.5
			c0-4.3,1.1-8.8,3.5-13.4s5.1-8.1,8.4-10.6c2.6-1.9,5.5-2.8,8.7-2.8c2,0,3.6,0.4,4.6,1.1c1,0.8,1.6,1.7,1.6,2.8
			c0,0.9-0.3,1.6-0.8,2.1c-0.5,0.5-1.3,0.8-2.3,0.8c-1,0-2.2-0.4-3.7-1.3c-1.6-0.9-2.9-1.4-3.9-1.4c-1.4,0-2.7,0.6-4,1.8
			c-1.3,1.2-2.6,3.6-3.8,7.1s-1.8,7-1.8,10.6c0,2.6,0.5,4.6,1.5,6.1c0.7,1.1,1.8,1.6,3.1,1.6C285.2,182,289,180.1,293.5,176.4z"/>
		<path d="M326,175l1.4,1.8c-6.7,6.4-12.5,9.6-17.3,9.6c-2,0-3.4-0.7-4.5-2s-1.5-3.4-1.5-6.3c0-5.9,1.8-11.7,5.4-17.6
			c4-6.6,8.8-9.9,14.4-9.9c2,0,3.4,0.5,4.5,1.5s1.5,2.3,1.5,4c0,1.8-0.6,3.5-1.9,5.3c-1.2,1.7-3.5,3.5-6.6,5.4
			c-1.6,0.9-5,2.5-10.2,4.9c-0.2,1.5-0.4,2.9-0.4,4.2c0,1.9,0.3,3.3,0.9,4.1s1.5,1.1,2.7,1.1c1.1,0,2.4-0.3,3.7-0.9
			C319.9,179.4,322.5,177.6,326,175z M311.6,169c4.4-2,7.7-4.1,10-6.4c1.5-1.6,2.3-3.2,2.3-4.7c0-1.2-0.3-2.1-0.9-2.8
			c-0.6-0.7-1.4-1.1-2.4-1.1c-1,0-2,0.4-3,1.1c-1.3,1-2.4,2.6-3.2,4.6C313,162.8,312.1,165.9,311.6,169z"/>
	</g>
	<g>
		<path d="M357.8,238.2c-15.6-3.6-30.2,8.8-47.3,24.7c-31.9,29.9-68.4,26.7-84.8,7c-10.9-13.1-9.3-33.9,1.4-45
			c-8,11.6-5.5,28.9,6.3,39.4c21.5,19.3,46.8,12.2,68.1-5.9C322.3,240.7,338.3,229.3,357.8,238.2z"/>
		<g>
			<path d="M227.2,225c-8,11.6-5.5,28.9,6.3,39.3c21.5,19.3,46.8,12.2,68.1-5.9c20.8-17.7,36.8-29.1,56.3-20.2
				c-18.2-7.1-33.8,4.5-53.3,21.7c-24.9,22-53.9,25.8-73.6,6.3C219.4,254.9,218.3,236.4,227.2,225z"/>
		</g>
	</g>
	<g>
		<g>
			<g>
				<path d="M180.3,200.9c-22.2-1.1-42.6,14.1-45.4,33.8c-2.8,19.8,13.3,36.7,35.5,37.7c22.2,1.1,42.2-14.1,45.1-33.8
					C218.3,218.9,202.5,202,180.3,200.9z M192.9,236.7c-2.2,14.5-11.5,26.3-21.3,26.3c-9.8,0-16.3-11.8-14.2-26.3
					c2.2-14.5,11.9-26.3,21.6-26.3C188.9,210.4,195.1,222.2,192.9,236.7z"/>
				<path d="M178.9,205.6c-16-0.9-30.6,12.2-32.7,29.4c-2,17.1,9.6,31.8,25.6,32.8s30.4-12.2,32.4-29.4
					C206.2,221.2,194.8,206.6,178.9,205.6z M192.9,236.7c-2.2,14.5-11.5,26.3-21.3,26.3c-9.8,0-16.3-11.8-14.2-26.3
					c2.2-14.5,11.9-26.3,21.6-26.3C188.9,210.4,195.1,222.2,192.9,236.7z"/>
				<g>
					<path d="M183.2,206.2c3.5,0.6,6.9,2.1,9.9,4.2c3,2.1,5.5,4.8,7.4,7.9c1.9,3.1,3.2,6.6,3.9,10.1c0.7,3.6,0.7,7.3,0.2,10.9
						c-0.5,3.6-1.6,7.1-3.2,10.4c-1.6,3.3-3.7,6.3-6.3,8.9c-2.6,2.6-5.5,4.8-8.8,6.3c-3.3,1.5-6.8,2.5-10.4,2.7l1.3-0.2l1.3-0.3
						l1.3-0.3l1.3-0.4c1.7-0.5,3.3-1.3,4.9-2.1c3.1-1.7,5.9-3.9,8.3-6.5c4.8-5.1,8-11.8,8.9-18.7c1.1-6.9-0.1-14.2-3.7-20.3
						c-1.8-3-4.1-5.8-6.9-7.9c-1.4-1.1-2.9-2-4.5-2.8c-0.4-0.2-0.8-0.4-1.2-0.6c-0.4-0.2-0.8-0.3-1.2-0.5c-0.4-0.1-0.8-0.3-1.3-0.4
						L183.2,206.2z"/>
					<path d="M172.7,205.9l-1.3,0.3c-0.4,0.1-0.9,0.2-1.3,0.4c-0.4,0.1-0.8,0.3-1.3,0.4c-0.4,0.1-0.8,0.3-1.2,0.5
						c-1.6,0.6-3.2,1.4-4.7,2.4c-3,1.8-5.7,4.1-7.9,6.8c-4.6,5.3-7.4,11.9-8.2,18.8c-0.8,6.9,0.7,14,4.5,19.9
						c1.9,2.9,4.3,5.5,7.1,7.6c1.4,1,2.9,1.9,4.5,2.7l1.2,0.5l1.2,0.5l1.3,0.4l1.3,0.4c-3.5-0.5-6.9-1.9-9.9-3.9
						c-3-2-5.6-4.5-7.6-7.5c-2-3-3.5-6.4-4.3-9.9c-0.8-3.5-1-7.2-0.6-10.8c0.4-3.6,1.4-7.1,2.8-10.4c1.5-3.3,3.5-6.3,5.9-9
						c2.4-2.7,5.3-4.9,8.4-6.6c1.6-0.9,3.2-1.6,4.9-2.1c0.4-0.1,0.9-0.3,1.3-0.4c0.4-0.1,0.9-0.2,1.3-0.3c0.4-0.1,0.9-0.2,1.3-0.3
						L172.7,205.9z"/>
				</g>
			</g>
			<g>
				<path d="M74.3,264.3c-4.2-0.3-8.2,0-11.8,0.9c4.7-4.8,13.4-7.6,22.4-9.9c20.8-5.3,47.4-17.5,53.3-33.4
					c8.8-23.4-6.7-40.5-32.6-42.1c-22.7-1.4-43,7.7-49.1,26.3c-3.8,11.4,3.4,25.7,17.8,25.4c10.6-0.2,16.8-9.3,19.2-15.8
					c-6.2,5.5-15.5,1.7-16.3-5.8c-1-9.7,7-21.7,23.5-20.8c13.1,0.7,20.8,13.3,14.5,27c-4.2,9.3-18.8,20-36.6,27.6
					C51.8,255,34,273.9,49.1,299c0,0,2.2-12.7,19.4-14c13.3-1,29.5,9.9,45.6,10.8c9.3,0.5,24.3-5.8,28.4-13.1
					C124.1,286.6,105.6,266.5,74.3,264.3z"/>
				<g>
					<path d="M116.3,286.6c-12.9-3.1-32.6-15.8-50.8-12.7c-14,2.4-17.8,17.4-16.4,25.1c0,0,2.2-12.7,19.4-14
						c13.3-1,29.5,9.9,45.6,10.8c9.3,0.5,24.3-5.8,28.4-13.1C134.5,287.4,127.3,289.3,116.3,286.6z"/>
					<path d="M74.7,223.6c-10.3-2.4-9.4-15.2-5.3-22.9c4.1-7.6,13.7-16.3,30.3-16.3c16.6,0,34.7,9.6,28.7,31.7
						c-3.1,11.2-17.4,20.6-32.8,27.3c-15.5,6.8-31.5,15.2-33.2,21.7c4.7-4.8,13.4-7.6,22.4-9.9c20.8-5.3,47.4-17.5,53.3-33.4
						c8.8-23.4-6.7-40.5-32.6-42.1c-22.7-1.4-43,7.7-49.1,26.3c-3.8,11.4,3.4,25.7,17.8,25.4c10.6-0.2,16.8-9.3,19.2-15.8
						C89.8,220.3,84,225.8,74.7,223.6z"/>
				</g>
				<g>
					<path d="M49.1,299c-0.5-2.3-0.5-4.7-0.2-7.1s1-4.7,1.9-6.9c1-2.2,2.3-4.2,3.9-6c0.8-0.9,1.8-1.7,2.7-2.4c1-0.7,2-1.3,3.2-1.8
						c1.1-0.5,2.3-0.9,3.4-1.2c1.2-0.3,2.4-0.5,3.6-0.6c2.4-0.3,4.8-0.3,7.2-0.1c4.8,0.4,9.5,1.5,14,2.9c4.5,1.5,8.9,3.2,13.3,5
						c4.4,1.8,8.7,3.7,13.2,5c4.5,1.2,9.2,2,13.9,1.4c2.3-0.3,4.6-0.8,6.8-1.6c1.1-0.4,2.2-0.9,3.2-1.4c0.5-0.2,1.1-0.5,1.6-0.8
						l1.6-0.8l-1.5,0.9c-0.5,0.3-1,0.6-1.6,0.9c-1.1,0.5-2.1,1.1-3.2,1.5c-2.2,0.9-4.5,1.6-6.9,2c-2.4,0.4-4.8,0.4-7.2,0.2
						c-2.4-0.2-4.7-0.7-7.1-1.2c-2.3-0.6-4.6-1.4-6.8-2.2c-2.2-0.8-4.4-1.7-6.6-2.6c-4.4-1.8-8.8-3.5-13.2-4.9
						c-4.5-1.4-9.1-2.5-13.7-2.9c-2.3-0.2-4.7-0.2-7,0c-1.2,0.1-2.3,0.3-3.4,0.5c-1.1,0.3-2.2,0.6-3.3,1c-1,0.5-2.1,1-3,1.6
						s-1.8,1.4-2.7,2.2c-1.6,1.6-3,3.6-4,5.7c-1,2.1-1.8,4.3-2.2,6.7c-0.2,1.2-0.3,2.3-0.4,3.5C48.9,296.6,48.9,297.8,49.1,299z"/>
					<path d="M62.5,265.1c0.3-1.1,0.9-2.1,1.6-3c0.7-0.9,1.5-1.7,2.4-2.5s1.7-1.5,2.7-2.2c0.9-0.7,1.9-1.4,2.8-2
						c3.8-2.6,7.9-4.8,11.9-6.9c4.1-2.1,8.3-4,12.5-5.9c4.2-1.9,8.2-4,12.2-6.3s7.7-5,11-8c1.7-1.5,3.2-3.2,4.6-5
						c0.7-0.9,1.3-1.8,1.9-2.8s1-2,1.4-3c0.2-0.5,0.3-1.1,0.5-1.6l0.4-1.6c0.1-0.3,0.1-0.6,0.2-0.8l0.1-0.8c0.1-0.6,0.2-1.1,0.2-1.7
						c0.2-2.2,0.2-4.5-0.1-6.7s-1.1-4.3-2.1-6.3c-1.1-1.9-2.5-3.7-4.1-5.2c-0.4-0.4-0.8-0.7-1.3-1.1c-0.4-0.4-0.9-0.7-1.3-1
						c-0.5-0.3-0.9-0.6-1.4-0.9c-0.5-0.3-1-0.6-1.5-0.8c-2-1-4.1-1.8-6.3-2.5c-2.2-0.6-4.4-1-6.6-1.3c-1.1-0.1-2.2-0.2-3.4-0.2
						l-0.8,0c-0.3,0-0.6,0-0.8,0l-1.7,0.1c-0.6,0-1.1,0.1-1.7,0.1l-1.7,0.2l-1.7,0.3l-0.8,0.1c-0.3,0-0.6,0.1-0.8,0.2l-1.7,0.4
						c-0.6,0.1-1.1,0.3-1.6,0.5l-0.8,0.3c-0.3,0.1-0.5,0.2-0.8,0.3l-1.6,0.6c-2.1,0.9-4,2-5.8,3.4c-1.8,1.3-3.5,2.8-5,4.5
						c-1.5,1.7-2.8,3.6-3.8,5.6c-1,2-1.7,4.2-2.2,6.4c-0.4,2.2-0.6,4.5-0.2,6.7c0.3,2.2,1.2,4.4,2.7,6c1.5,1.6,3.6,2.6,5.9,3
						c2.2,0.4,4.5,0.5,6.7-0.1c2.2-0.6,4.3-1.6,6.1-3c0.9-0.7,1.8-1.5,2.6-2.3c0.8-0.8,1.5-1.7,2.3-2.6c-0.7,0.9-1.4,1.8-2.2,2.7
						c-0.8,0.8-1.6,1.6-2.5,2.4c-1.8,1.5-3.9,2.6-6.1,3.2c-2.2,0.6-4.6,0.6-6.9,0.2c-2.3-0.3-4.6-1.3-6.2-3c-0.8-0.9-1.5-1.9-2-2.9
						c-0.5-1.1-0.8-2.2-1-3.4c-0.4-2.3-0.2-4.7,0.2-7c0.4-2.3,1.1-4.5,2.2-6.6c1-2.1,2.3-4.1,3.9-5.8c1.5-1.8,3.2-3.4,5.1-4.8
						c1.9-1.4,3.9-2.5,6.1-3.5l1.6-0.6c0.3-0.1,0.5-0.2,0.8-0.3l0.8-0.3c0.6-0.2,1.1-0.4,1.7-0.5l1.7-0.4c0.3-0.1,0.6-0.1,0.8-0.2
						l0.9-0.1l1.7-0.3l1.7-0.2c0.6-0.1,1.2-0.1,1.7-0.1l1.7-0.1c0.3,0,0.6,0,0.9,0l0.9,0c1.2,0,2.3,0.1,3.5,0.2
						c2.3,0.2,4.6,0.6,6.9,1.3c2.2,0.6,4.4,1.5,6.5,2.5c0.5,0.2,1,0.6,1.5,0.9c0.5,0.3,1,0.6,1.5,0.9c0.5,0.4,1,0.7,1.4,1.1l0.7,0.6
						c0.2,0.2,0.4,0.4,0.7,0.6c1.7,1.6,3.2,3.5,4.3,5.6c1.1,2.1,1.9,4.4,2.2,6.7s0.4,4.7,0.1,7c-0.1,0.6-0.1,1.2-0.2,1.7l-0.2,0.9
						c-0.1,0.3-0.1,0.6-0.2,0.9l-0.4,1.7c-0.2,0.6-0.3,1.1-0.6,1.7c-0.4,1.1-0.9,2.2-1.5,3.2c-0.6,1-1.2,2-2,2.9
						c-1.4,1.9-3,3.5-4.8,5.1c-1.7,1.6-3.5,3-5.4,4.3c-1.9,1.3-3.8,2.6-5.8,3.7c-4,2.3-8.1,4.4-12.3,6.2c-4.2,1.8-8.4,3.7-12.5,5.7
						c-4.1,2-8.2,4.1-12.1,6.6c-1,0.6-1.9,1.2-2.8,1.9c-0.9,0.7-1.8,1.4-2.7,2.1s-1.7,1.5-2.4,2.4C63.5,263,62.8,264,62.5,265.1z"/>
				</g>
			</g>
		</g>
		<g>
			<path d="M50.4,245c18.7-5.5,40-2.4,65.3,18.7c40.1,33.5,82.4,30.6,101.5,7.5c12.7-15.3,10.9-39.7-1.6-52.6
				c9.3,13.6,6.4,33.8-7.3,46.1c-25.2,22.6-56.9,13.7-86.5-10.1C101.7,238.4,76.5,231.8,50.4,245z"/>
			<g>
				<path d="M50.4,245c26.1-13.1,51.2-6.6,71.4,9.6c29.5,23.7,61.2,32.6,86.5,10c13.7-12.3,16.7-32.5,7.3-46.1
					c10.4,13.4,9.1,35-4.4,48.3c-23.1,22.8-58.5,17.8-91.5-9.2C97.9,239.8,74.1,234.4,50.4,245z"/>
			</g>
		</g>
	</g>
	<g>
		<path d="M272.2,203.8c-21.4-1-40.9,13.5-43.6,32.5s12.7,35.2,34.1,36.2c21.4,1,40.5-13.5,43.2-32.5
			C308.6,221.1,293.5,204.8,272.2,203.8z M284.3,238.1c-2.1,13.9-11,25.2-20.5,25.2c-9.4,0-15.7-11.3-13.6-25.2
			c2.1-13.9,11.4-25.2,20.8-25.2C280.4,212.9,286.3,224.2,284.3,238.1z"/>
		<path d="M270.8,208.3c-15.4-0.9-29.4,11.7-31.3,28.2c-2,16.5,9.2,30.5,24.5,31.4s29.1-11.7,31.1-28.2
			C297,223.3,286.1,209.2,270.8,208.3z M284.3,238.1c-2.1,13.9-11,25.2-20.5,25.2c-9.4,0-15.7-11.3-13.6-25.2
			c2.1-13.9,11.4-25.2,20.8-25.2C280.4,212.9,286.3,224.2,284.3,238.1z"/>
		<g>
			<path d="M275,208.9c3.4,0.6,6.6,2,9.5,4c2.8,2,5.3,4.6,7.1,7.6c1.9,3,3.1,6.3,3.8,9.7c0.7,3.4,0.7,7,0.2,10.5
				c-0.5,3.5-1.5,6.9-3.1,10c-1.5,3.1-3.6,6-6,8.5c-2.5,2.5-5.3,4.6-8.5,6.1c-3.1,1.5-6.5,2.4-10,2.6l1.3-0.2l1.3-0.3l1.2-0.3
				l1.2-0.4c1.6-0.5,3.2-1.2,4.7-2c3-1.6,5.7-3.7,8-6.2c4.6-4.9,7.6-11.3,8.6-18c1-6.6-0.1-13.7-3.5-19.5c-1.7-2.9-4-5.5-6.6-7.6
				c-1.3-1.1-2.8-2-4.3-2.7c-0.4-0.2-0.8-0.4-1.2-0.5c-0.4-0.2-0.8-0.3-1.2-0.5c-0.4-0.1-0.8-0.3-1.2-0.4L275,208.9z"/>
			<path d="M264.9,208.6l-1.2,0.3c-0.4,0.1-0.8,0.2-1.2,0.3c-0.4,0.1-0.8,0.2-1.2,0.4c-0.4,0.1-0.8,0.3-1.2,0.4
				c-1.6,0.6-3.1,1.4-4.5,2.3c-2.9,1.7-5.4,3.9-7.6,6.5c-4.4,5.1-7.1,11.4-7.9,18.1c-0.8,6.6,0.7,13.5,4.3,19.1
				c1.8,2.8,4.1,5.3,6.8,7.3c1.4,1,2.8,1.9,4.3,2.5l1.2,0.5l1.2,0.4l1.2,0.4l1.2,0.3c-3.4-0.5-6.6-1.8-9.5-3.7
				c-2.9-1.9-5.4-4.4-7.3-7.2c-2-2.9-3.3-6.1-4.1-9.5c-0.8-3.4-1-6.9-0.6-10.3c0.4-3.4,1.3-6.8,2.7-10c1.4-3.1,3.3-6.1,5.7-8.6
				c2.3-2.6,5.1-4.7,8.1-6.4c1.5-0.8,3.1-1.5,4.7-2c0.4-0.1,0.8-0.2,1.2-0.4c0.4-0.1,0.8-0.2,1.2-0.3c0.4-0.1,0.8-0.2,1.2-0.2
				L264.9,208.6z"/>
		</g>
	</g>
</g>
<g>
	<g>
		
			<linearGradient id="SVGID_00000133525293730823582990000002980784196239837604_" gradientUnits="userSpaceOnUse" x1="770.6233" y1="210.2644" x2="849.7001" y2="210.2644" gradientTransform="matrix(1 0 0 -1 0 430.9444)">
			<stop  offset="9.550000e-02" style="stop-color:#CE8A2D"/>
			<stop  offset="9.809999e-02" style="stop-color:#CE8B2E"/>
			<stop  offset="0.3064" style="stop-color:#E2B65A"/>
			<stop  offset="0.4678" style="stop-color:#EED176"/>
			<stop  offset="0.5618" style="stop-color:#F3DB80"/>
			<stop  offset="0.9326" style="stop-color:#BB8532"/>
		</linearGradient>
		<path style="fill:url(#SVGID_00000133525293730823582990000002980784196239837604_);" d="M828.9,245.6c0.1-5.3,0.4-10.9,1-16.1
			c2-17.1,5.6-24.3,5.6-24.3c-3.5,3.8-8.1,6.3-8.1,6.3c-3.8,5.6-8.6,12.4-11.8,21.5c-0.7,1.9-1.3,3.8-1.8,5.7
			c-6-2.1-12-3.4-17.9-3.4c-7,0-11.6,1.3-14.7,2.8c6-16.9,38.9-13.8,50.9-41.6c5.9-13.7-1.3-24.2-1.3-24.2
			c-1.9,14.9-26.8,26.9-41.6,39.3c-17.2,14.4-20.3,32.8-17.5,45.4c3.2-3.5,9.5-6.5,18.4-7.3c6.7-0.6,13.8,1.4,20.8,3.6
			c-0.9,6.4-1.1,12-1,15.6c0,0,9.3-2.1,19.6-1.4c0,0-0.2-3.6-0.4-9.1c1.3,0.2,2.5,0.3,3.8,0.3c6.4,0.2,12.3-1.3,17-8
			C843.5,253,836.4,249.4,828.9,245.6z"/>
		
			<linearGradient id="SVGID_00000093166459417513253550000006804132074415839104_" gradientUnits="userSpaceOnUse" x1="810.595" y1="148.309" x2="810.595" y2="258.5897" gradientTransform="matrix(1 0 0 -1 0 430.9444)">
			<stop  offset="9.550000e-02" style="stop-color:#946338"/>
			<stop  offset="0.3015" style="stop-color:#BF8D45"/>
			<stop  offset="0.466" style="stop-color:#DBA84D"/>
			<stop  offset="0.5618" style="stop-color:#E5B250"/>
			<stop  offset="0.9326" style="stop-color:#946338"/>
		</linearGradient>
		<path style="fill:url(#SVGID_00000093166459417513253550000006804132074415839104_);" d="M797.2,216.1c10-7.2,23.8-14.7,29.2-21.7
			c4.4-5.7,6-16.1,4.2-22c0,0,7.2,10.5,1.3,24.2c-12,27.8-44.8,24.7-50.9,41.6C782.5,232.8,787.1,223.3,797.2,216.1z M819.8,248.9
			c5.3,2.3,10,4.4,13.8,4.8c8,1,12.3-0.1,16.1-2.9c-6.2,2.1-13.3-1.4-20.8-5.3c0.1-5.3,0.4-10.9,1-16.1c2-17.1,5.6-24.3,5.6-24.3
			c-1.4,1.5-2.9,2.8-4.3,3.8c-3.8,8.9-8.7,24.4-10.5,34C820.3,245,820,247,819.8,248.9z M819.8,248.9c-8.5-3.7-18.5-7.9-28.4-6.9
			c-15.3,1.6-19.9,10.4-19.9,15c3.2-3.5,9.5-6.5,18.4-7.3c6.7-0.6,13.8,1.4,20.8,3.6c-0.9,6.4-1.1,12-1,15.6c0,0,3.9-0.9,9.4-1.3
			C818.9,264.4,818.8,257.1,819.8,248.9z"/>
		<g>
			
				<linearGradient id="SVGID_00000149369778310256902900000007073108229050286522_" gradientUnits="userSpaceOnUse" x1="824.9629" y1="163.1944" x2="824.9629" y2="222.2428" gradientTransform="matrix(1 0 0 -1 0 430.9444)">
				<stop  offset="9.550000e-02" style="stop-color:#E5B250"/>
				<stop  offset="0.277" style="stop-color:#F1D272"/>
				<stop  offset="0.457" style="stop-color:#FBEC8E"/>
				<stop  offset="0.5618" style="stop-color:#FFF698"/>
				<stop  offset="0.9326" style="stop-color:#E5B250"/>
			</linearGradient>
			<path style="fill:url(#SVGID_00000149369778310256902900000007073108229050286522_);" d="M819.1,267.8c-0.4-5-0.5-10.1-0.1-15.2
				c0.2-2.5,0.5-5.1,0.8-7.6s0.9-5,1.5-7.5c0.6-2.5,1.3-4.9,2-7.3c0.7-2.4,1.5-4.8,2.3-7.2c0.8-2.4,1.7-4.8,2.6-7.1
				c0.9-2.4,1.9-4.7,3-7c-0.9,2.4-1.7,4.7-2.5,7.1c-0.8,2.4-1.6,4.8-2.3,7.2c-1.5,4.8-2.9,9.7-4,14.6c-1.2,4.9-2,9.8-2.5,14.8
				C819.3,257.7,819.1,262.7,819.1,267.8z"/>
			
				<linearGradient id="SVGID_00000134949509650730980160000008206101689919502241_" gradientUnits="userSpaceOnUse" x1="770.9573" y1="181.6639" x2="850.0074" y2="181.6639" gradientTransform="matrix(1 0 0 -1 0 430.9444)">
				<stop  offset="9.550000e-02" style="stop-color:#E5B250"/>
				<stop  offset="0.277" style="stop-color:#F1D272"/>
				<stop  offset="0.457" style="stop-color:#FBEC8E"/>
				<stop  offset="0.5618" style="stop-color:#FFF698"/>
				<stop  offset="0.9326" style="stop-color:#E5B250"/>
			</linearGradient>
			<path style="fill:url(#SVGID_00000134949509650730980160000008206101689919502241_);" d="M771.5,257.1c0-1.8,0.5-3.7,1.4-5.3
				c0.9-1.6,2.1-3.1,3.5-4.3c0.3-0.3,0.7-0.6,1.1-0.9s0.7-0.6,1.1-0.8l1.2-0.7c0.4-0.2,0.8-0.4,1.2-0.6l0.6-0.3
				c0.2-0.1,0.4-0.2,0.7-0.3l1.3-0.5c0.4-0.2,0.9-0.3,1.3-0.4l0.7-0.2c0.2-0.1,0.4-0.1,0.7-0.2l1.4-0.3c0.5-0.1,0.9-0.2,1.4-0.3
				l1.4-0.2c0.5-0.1,0.9-0.1,1.4-0.2c1.9-0.2,3.7-0.2,5.6,0c3.7,0.3,7.3,1.2,10.9,2.3c3.5,1.1,6.9,2.5,10.3,4
				c3.4,1.5,6.7,3,10.1,4.2c1.7,0.6,3.5,1.1,5.2,1.4c1.8,0.2,3.6,0.4,5.4,0.4h0.7l0.7,0c0.5,0,0.9-0.1,1.4-0.1
				c0.9-0.1,1.8-0.3,2.7-0.5c1.8-0.5,3.4-1.3,5-2.3c-0.7,0.6-1.5,1.1-2.3,1.5s-1.7,0.8-2.5,1.1c-0.9,0.3-1.8,0.5-2.7,0.6
				c-0.5,0.1-0.9,0.1-1.4,0.2l-0.7,0.1l-0.7,0c-1.8,0.1-3.7,0-5.5-0.2c-0.9-0.1-1.9-0.3-2.8-0.5c-0.9-0.2-1.8-0.5-2.7-0.8
				c-1.8-0.6-3.5-1.3-5.2-2l-5.1-2.1c-3.4-1.4-6.8-2.8-10.2-3.9c-3.5-1.1-7-2-10.6-2.3c-1.8-0.2-3.6-0.2-5.4-0.1
				c-0.5,0-0.9,0.1-1.3,0.1l-1.3,0.2c-0.5,0-0.9,0.1-1.3,0.2l-1.3,0.3c-0.2,0-0.4,0.1-0.7,0.2l-0.7,0.2c-0.4,0.1-0.9,0.2-1.3,0.4
				l-1.3,0.5l-0.6,0.2l-0.6,0.3c-0.4,0.2-0.8,0.4-1.2,0.6l-1.2,0.7c-0.4,0.2-0.8,0.5-1.1,0.8l-0.5,0.4c-0.1,0.1-0.2,0.1-0.3,0.2
				l-0.3,0.2c-1.4,1.1-2.6,2.5-3.6,4.1c-0.2,0.4-0.4,0.8-0.6,1.2l-0.3,0.6c-0.1,0.2-0.2,0.4-0.2,0.6l-0.2,0.6
				c-0.1,0.2-0.1,0.4-0.2,0.7C771.6,256.2,771.5,256.7,771.5,257.1z"/>
			
				<linearGradient id="SVGID_00000142892108370145374850000004223677664229036476_" gradientUnits="userSpaceOnUse" x1="806.3375" y1="192.6793" x2="806.3375" y2="258.7532" gradientTransform="matrix(1 0 0 -1 0 430.9444)">
				<stop  offset="9.550000e-02" style="stop-color:#E5B250"/>
				<stop  offset="0.277" style="stop-color:#F1D272"/>
				<stop  offset="0.457" style="stop-color:#FBEC8E"/>
				<stop  offset="0.5618" style="stop-color:#FFF698"/>
				<stop  offset="0.9326" style="stop-color:#E5B250"/>
			</linearGradient>
			<path style="fill:url(#SVGID_00000142892108370145374850000004223677664229036476_);" d="M781.1,238.1c0.4-1.8,1-3.5,1.8-5.2
				c0.7-1.7,1.6-3.3,2.5-4.9c0.2-0.4,0.5-0.8,0.7-1.2c0.3-0.4,0.5-0.8,0.8-1.1l0.8-1.1l0.8-1.1l0.4-0.5l0.5-0.5l0.9-1l1-1l0.5-0.5
				l0.5-0.5l1-0.9c0.3-0.3,0.7-0.6,1-0.9c0.7-0.6,1.4-1.2,2.2-1.7c1.5-1.1,3-2.1,4.5-3.2c3-2.1,6.1-4,9.1-6c3-2,6.1-4,8.9-6.2
				l1.1-0.8l0.5-0.4l0.5-0.4l1-0.9l1-0.9c1.3-1.2,2.6-2.5,3.6-4s1.8-3.1,2.4-4.8c0.6-1.7,1.1-3.4,1.5-5.2c0.3-1.8,0.5-3.6,0.6-5.4
				c0-0.9,0-1.8-0.1-2.7c0-0.2,0-0.4-0.1-0.7l-0.1-0.7c-0.1-0.4-0.2-0.9-0.3-1.3c0.6,1.7,0.8,3.6,0.9,5.4s-0.1,3.7-0.3,5.5
				c-0.3,1.8-0.7,3.6-1.3,5.4c-0.6,1.7-1.4,3.4-2.4,5c-0.3,0.4-0.5,0.8-0.8,1.1l-0.9,1.1c-0.3,0.4-0.6,0.7-1,1l-0.5,0.5l-0.5,0.5
				l-1,0.9l-1,0.9l-0.5,0.4l-0.5,0.4l-1.1,0.9c-2.9,2.2-5.9,4.3-9,6.3c-3,2-6.1,4-9.1,6l-2.3,1.5l-1.1,0.8c-0.4,0.3-0.8,0.5-1.1,0.8
				c-0.7,0.5-1.5,1.1-2.1,1.7c-0.3,0.3-0.7,0.6-1,0.9l-1,0.9l-0.5,0.4l-0.5,0.5l-1,0.9l-0.9,1l-0.5,0.5l-0.4,0.5
				c-1.2,1.4-2.3,2.8-3.3,4.3C783.9,231.4,782.2,234.6,781.1,238.1z"/>
		</g>
	</g>
	<g>
		<path d="M674.7,146.2h-1.8c0.3-2.5,0.4-4.4,0.4-5.6c0-1.8-0.5-3.2-1.5-4.3c-1-1.1-2.3-1.6-4-1.6c-2.6,0-4.8,0.9-6.8,2.8
			c-1.9,1.9-2.9,4-2.9,6.3c0,1.2,0.3,2.4,0.8,3.4c0.5,1,1.7,2.4,3.5,4.2c3.3,3.3,5.5,5.8,6.5,7.6s1.5,3.6,1.5,5.4
			c0,2.6-0.8,5.1-2.3,7.4c-1.6,2.4-3.9,4.4-6.9,5.9s-6.3,2.3-9.7,2.3c-3.3,0-6.2-0.9-8.5-2.6c-2.3-1.7-3.5-3.6-3.5-5.5
			c0-1,0.3-1.9,0.9-2.6c0.6-0.7,1.3-1,2.1-1c0.8,0,1.5,0.3,2,1c0.3,0.4,0.7,1.2,1,2.6c0.4,1.6,0.8,2.8,1.4,3.5
			c0.5,0.7,1.3,1.3,2.2,1.8c1,0.5,2,0.7,3.1,0.7c3.4,0,6.3-1.1,8.8-3.4c2.5-2.3,3.8-4.8,3.8-7.6c0-0.9-0.2-1.9-0.5-2.8
			s-0.9-2-1.8-3.2c-0.6-0.8-1.9-2.2-3.9-4.2c-2-2-3.3-3.3-3.8-4.1c-0.7-1.1-1.3-2.1-1.6-3.2c-0.3-1.1-0.5-2.1-0.5-3.2
			c0-2.1,0.7-4.3,2.2-6.5s3.3-3.9,5.6-5.2c2.3-1.3,4.9-1.9,7.8-1.9c1.5,0,3.3,0.2,5.4,0.7c1.2,0.2,2.3,0.4,3.2,0.5
			c-0.5,1.5-0.9,3-1.2,4.3C675.6,139.5,675.2,142.2,674.7,146.2z"/>
		<path d="M683.2,153.4l-1.6-1.2c2.3-2.6,4.5-4.4,6.4-5.5c1.9-1.1,3.6-1.6,5-1.6c0.8,0,1.3,0.2,1.7,0.5c0.4,0.3,0.6,0.8,0.6,1.3
			c0,0.7-0.8,3.6-2.3,8.7c-2.5,8.4-3.7,13.4-3.7,15.1c0,0.3,0.1,0.6,0.2,0.8c0.2,0.2,0.3,0.3,0.5,0.3c0.8,0,2.7-1.5,5.8-4.4l1.4,1.3
			c-3.2,3-5.6,5-7.1,5.8s-2.7,1.3-3.6,1.3c-0.8,0-1.5-0.3-2-0.8c-0.5-0.5-0.7-1.2-0.7-2.2c0-2.9,1.8-10.1,5.3-21.6
			c0.2-0.5,0.2-1,0.2-1.4c0-0.5-0.2-0.7-0.6-0.7c-0.5,0-1,0.2-1.6,0.6C686.6,150.2,685.2,151.4,683.2,153.4z M697,130
			c0.7,0,1.3,0.2,1.8,0.7s0.7,1.1,0.7,1.9c0,1-0.4,1.9-1.1,2.7c-0.7,0.8-1.5,1.2-2.4,1.2c-0.7,0-1.3-0.2-1.8-0.7
			c-0.5-0.5-0.7-1.1-0.7-1.9c0-1.1,0.3-2,1-2.7C695.3,130.4,696.1,130,697,130z"/>
		<path d="M704.6,153.5l-1.2-1.2c3-2.9,5.4-4.8,7.2-5.8s3.3-1.4,4.6-1.4c0.5,0,0.9,0.1,1.2,0.3c0.3,0.2,0.4,0.5,0.4,0.7
			c0,0.2-0.1,0.6-0.2,1.1l-1.6,7.1c2.4-2.7,5.4-5.1,9-7.5c1.9-1.2,3.5-1.8,4.8-1.8c0.9,0,1.6,0.3,2.2,0.9c0.5,0.6,0.8,1.4,0.8,2.6
			c0,0.7-0.1,1.6-0.3,2.5c-0.4,1.5-1.4,4.9-3,10c-1.5,4.8-2.2,8-2.2,9.6c0,0.5,0.1,0.9,0.2,1.1c0.1,0.2,0.3,0.4,0.6,0.4
			c0.7,0,1.8-0.7,3.2-2c1-0.9,2.1-1.8,3.1-2.6l0.9,1.3c-2.2,2.4-4.4,4.3-6.8,5.8c-1.5,0.9-2.7,1.4-3.7,1.4c-0.9,0-1.6-0.3-2.1-1
			s-0.7-1.7-0.7-3.2c0-2.1,1.3-7.3,3.9-15.7c0.8-3,1.2-4.7,1.2-5.2c0-0.7-0.4-1.1-1.3-1.1c-0.9,0-2.2,0.5-3.6,1.5
			c-2.2,1.5-4.1,3.2-5.5,5.2c-0.9,1.3-1.7,3.3-2.4,6.1l-2.9,12.4h-5.3c1-3.5,1.8-6.9,2.6-10.2l3.2-13.5c0.1-0.5,0.2-0.9,0.2-1.2
			c0-0.6-0.2-1-0.7-1c-0.4,0-0.9,0.2-1.6,0.8C707.3,150.9,705.9,152.1,704.6,153.5z"/>
		<path d="M760.5,167.3l0.7,2.1c-5.6,4.4-10.3,6.6-14.2,6.6c-2,0-3.5-0.7-4.5-2.2s-1.4-3.3-1.4-5.6c0-3.7,1-7.6,3-11.5
			s4.4-6.9,7.2-9.1c2.2-1.6,4.7-2.4,7.5-2.4c1.7,0,3.1,0.3,4,1s1.3,1.5,1.3,2.4c0,0.7-0.2,1.3-0.7,1.8c-0.5,0.5-1.1,0.7-2,0.7
			c-0.8,0-1.9-0.4-3.2-1.1c-1.3-0.8-2.5-1.2-3.4-1.2c-1.2,0-2.3,0.5-3.5,1.6c-1.1,1.1-2.2,3.1-3.3,6.1c-1,3-1.6,6-1.6,9.1
			c0,2.2,0.4,4,1.3,5.2c0.6,0.9,1.5,1.4,2.7,1.4C753.4,172.1,756.7,170.5,760.5,167.3z"/>
		<path d="M788.4,166.1l1.2,1.6c-5.8,5.5-10.7,8.2-14.8,8.2c-1.7,0-3-0.6-3.8-1.7c-0.9-1.1-1.3-2.9-1.3-5.4c0-5,1.5-10.1,4.6-15.1
			c3.4-5.7,7.5-8.5,12.3-8.5c1.7,0,3,0.4,3.8,1.2c0.9,0.8,1.3,2,1.3,3.4c0,1.5-0.5,3-1.6,4.5s-3,3-5.7,4.6c-1.4,0.8-4.3,2.2-8.8,4.2
			c-0.2,1.3-0.3,2.5-0.3,3.6c0,1.7,0.3,2.8,0.8,3.5c0.5,0.7,1.3,1,2.3,1c1,0,2-0.3,3.2-0.8C783.2,169.8,785.4,168.3,788.4,166.1z
			 M776,160.9c3.8-1.7,6.7-3.5,8.6-5.5c1.3-1.4,1.9-2.7,1.9-4.1c0-1-0.3-1.8-0.8-2.4c-0.5-0.6-1.2-0.9-2.1-0.9c-0.9,0-1.7,0.3-2.5,1
			c-1.1,0.9-2,2.2-2.8,4C777.3,155.6,776.5,158.2,776,160.9z"/>
	</g>
	<g>
		
			<linearGradient id="SVGID_00000164479343351893009950000015394401014885802136_" gradientUnits="userSpaceOnUse" x1="-2705.031" y1="914.6193" x2="-2586.6677" y2="896.9485" gradientTransform="matrix(-0.989 -0.1477 0.1477 -0.989 -1994.6855 739.7628)">
			<stop  offset="9.550000e-02" style="stop-color:#E5B250"/>
			<stop  offset="0.277" style="stop-color:#F1D272"/>
			<stop  offset="0.457" style="stop-color:#FBEC8E"/>
			<stop  offset="0.5618" style="stop-color:#FFF698"/>
			<stop  offset="0.9326" style="stop-color:#E5B250"/>
		</linearGradient>
		<path style="fill:url(#SVGID_00000164479343351893009950000015394401014885802136_);" d="M815.7,220.3c-13.4-3.1-26,7.5-40.6,21.2
			c-27.4,25.7-58.7,22.9-72.7,6c-9.3-11.2-8-29.1,1.2-38.6c-6.8,9.9-4.7,24.8,5.4,33.8c18.5,16.6,40.2,10.5,58.4-5.1
			C785.2,222.5,799,212.6,815.7,220.3z"/>
		<g>
			
				<linearGradient id="SVGID_00000048471142595393742500000000230092083029752502_" gradientUnits="userSpaceOnUse" x1="-3367.7766" y1="175.7655" x2="-3367.7766" y2="222.0044" gradientTransform="matrix(-1 0 0 -1 -2610.6709 430.9444)">
				<stop  offset="9.550000e-02" style="stop-color:#946338"/>
				<stop  offset="0.3015" style="stop-color:#BF8D45"/>
				<stop  offset="0.466" style="stop-color:#DBA84D"/>
				<stop  offset="0.5618" style="stop-color:#E5B250"/>
				<stop  offset="0.9326" style="stop-color:#946338"/>
			</linearGradient>
			<path style="fill:url(#SVGID_00000048471142595393742500000000230092083029752502_);" d="M703.6,208.9
				c-6.8,9.9-4.7,24.8,5.4,33.8c18.5,16.6,40.2,10.5,58.4-5.1c17.8-15.2,31.6-25,48.3-17.4c-15.6-6.1-29,3.9-45.7,18.6
				c-21.4,18.9-46.2,22.1-63.2,5.4C696.9,234.6,696,218.7,703.6,208.9z"/>
		</g>
	</g>
	<g>
		<g>
			<g>
				
					<linearGradient id="SVGID_00000018216761570576425540000004128147003490977435_" gradientUnits="userSpaceOnUse" x1="624.0629" y1="211.9599" x2="693.7926" y2="211.9599" gradientTransform="matrix(1 0 0 -1 0 430.9444)">
					<stop  offset="9.550000e-02" style="stop-color:#CE8A2D"/>
					<stop  offset="9.809999e-02" style="stop-color:#CE8B2E"/>
					<stop  offset="0.3064" style="stop-color:#E2B65A"/>
					<stop  offset="0.4678" style="stop-color:#EED176"/>
					<stop  offset="0.5618" style="stop-color:#F3DB80"/>
					<stop  offset="0.9326" style="stop-color:#BB8532"/>
				</linearGradient>
				<path style="fill:url(#SVGID_00000018216761570576425540000004128147003490977435_);" d="M663.3,188.3
					c-19.1-0.9-36.6,12.1-39,29s11.4,31.5,30.5,32.4s36.2-12.1,38.7-29C695.9,203.7,682.4,189.2,663.3,188.3z M674.2,219
					c-1.8,12.5-9.9,22.6-18.3,22.6s-14-10.1-12.2-22.6c1.8-12.5,10.2-22.6,18.6-22.6C670.7,196.4,676,206.5,674.2,219z"/>
				
					<linearGradient id="SVGID_00000154410735683830656680000003732041419213240965_" gradientUnits="userSpaceOnUse" x1="658.9271" y1="185.2443" x2="658.9271" y2="238.6544" gradientTransform="matrix(1 0 0 -1 0 430.9444)">
					<stop  offset="9.550000e-02" style="stop-color:#946338"/>
					<stop  offset="0.3015" style="stop-color:#BF8D45"/>
					<stop  offset="0.466" style="stop-color:#DBA84D"/>
					<stop  offset="0.5618" style="stop-color:#E5B250"/>
					<stop  offset="0.9326" style="stop-color:#946338"/>
				</linearGradient>
				<path style="fill:url(#SVGID_00000154410735683830656680000003732041419213240965_);" d="M662.1,192.3
					c-13.7-0.8-26.3,10.5-28,25.2c-1.8,14.7,8.2,27.3,21.9,28.1c13.7,0.8,26-10.5,27.8-25.2C685.5,205.7,675.8,193.1,662.1,192.3z
					 M674.2,219c-1.8,12.5-9.9,22.6-18.3,22.6s-14-10.1-12.2-22.6c1.8-12.5,10.2-22.6,18.6-22.6C670.7,196.4,676,206.5,674.2,219z"
					/>
				<g>
					
						<linearGradient id="SVGID_00000017518467345630083590000016682816667052462216_" gradientUnits="userSpaceOnUse" x1="673.0808" y1="185.7214" x2="669.3628" y2="238.8902" gradientTransform="matrix(1 0 0 -1 0 430.9444)">
						<stop  offset="9.550000e-02" style="stop-color:#E5B250"/>
						<stop  offset="0.277" style="stop-color:#F1D272"/>
						<stop  offset="0.457" style="stop-color:#FBEC8E"/>
						<stop  offset="0.5618" style="stop-color:#FFF698"/>
						<stop  offset="0.9326" style="stop-color:#E5B250"/>
					</linearGradient>
					<path style="fill:url(#SVGID_00000017518467345630083590000016682816667052462216_);" d="M665.8,192.9c3,0.6,5.9,1.8,8.5,3.6
						c2.5,1.8,4.7,4.1,6.4,6.8c1.7,2.6,2.8,5.6,3.4,8.7c0.6,3.1,0.6,6.3,0.2,9.4c-0.5,3.1-1.4,6.1-2.8,8.9c-1.4,2.8-3.2,5.4-5.4,7.6
						c-2.2,2.2-4.8,4.1-7.6,5.4c-2.8,1.3-5.8,2.2-8.9,2.3l1.1-0.2l1.1-0.2l1.1-0.3l1.1-0.3c1.5-0.5,2.9-1.1,4.2-1.8
						c2.7-1.4,5.1-3.3,7.2-5.5c4.1-4.4,6.8-10.1,7.7-16.1c0.9-5.9-0.1-12.2-3.2-17.4c-1.5-2.6-3.5-4.9-5.9-6.8
						c-1.2-0.9-2.5-1.8-3.9-2.4c-0.3-0.2-0.7-0.3-1-0.5c-0.3-0.1-0.7-0.3-1.1-0.4c-0.4-0.1-0.7-0.2-1.1-0.4L665.8,192.9z"/>
					
						<linearGradient id="SVGID_00000035508578295135700880000005271001114499029895_" gradientUnits="userSpaceOnUse" x1="647.7853" y1="184.8133" x2="644.0644" y2="238.0237" gradientTransform="matrix(1 0 0 -1 0 430.9444)">
						<stop  offset="9.550000e-02" style="stop-color:#E5B250"/>
						<stop  offset="0.277" style="stop-color:#F1D272"/>
						<stop  offset="0.457" style="stop-color:#FBEC8E"/>
						<stop  offset="0.5618" style="stop-color:#FFF698"/>
						<stop  offset="0.9326" style="stop-color:#E5B250"/>
					</linearGradient>
					<path style="fill:url(#SVGID_00000035508578295135700880000005271001114499029895_);" d="M656.8,192.6l-1.1,0.2
						c-0.4,0.1-0.7,0.2-1.1,0.3c-0.4,0.1-0.7,0.2-1.1,0.4c-0.3,0.1-0.7,0.2-1.1,0.4c-1.4,0.6-2.8,1.2-4,2c-2.6,1.6-4.9,3.5-6.8,5.8
						c-3.9,4.5-6.4,10.2-7,16.2c-0.7,5.9,0.6,12.1,3.8,17.1c1.6,2.5,3.7,4.7,6.1,6.5c1.2,0.9,2.5,1.6,3.9,2.3l1,0.4l1.1,0.4l1.1,0.4
						l1.1,0.3c-3-0.5-5.9-1.6-8.5-3.3c-2.6-1.7-4.8-3.9-6.5-6.5c-1.8-2.6-3-5.4-3.7-8.5c-0.7-3-0.9-6.2-0.5-9.2
						c0.3-3.1,1.2-6.1,2.4-8.9c1.3-2.8,3-5.4,5.1-7.7c2.1-2.3,4.5-4.2,7.2-5.7c1.3-0.7,2.8-1.3,4.2-1.8c0.4-0.1,0.7-0.2,1.1-0.3
						c0.4-0.1,0.7-0.2,1.1-0.3c0.4-0.1,0.8-0.1,1.1-0.2L656.8,192.6z"/>
				</g>
			</g>
			<g>
				
					<linearGradient id="SVGID_00000132788725938650665860000000267264168614849453_" gradientUnits="userSpaceOnUse" x1="545.9921" y1="209.7531" x2="630.8701" y2="209.7531" gradientTransform="matrix(1 0 0 -1 0 430.9444)">
					<stop  offset="9.550000e-02" style="stop-color:#CE8A2D"/>
					<stop  offset="9.809999e-02" style="stop-color:#CE8B2E"/>
					<stop  offset="0.3064" style="stop-color:#E2B65A"/>
					<stop  offset="0.4678" style="stop-color:#EED176"/>
					<stop  offset="0.5618" style="stop-color:#F3DB80"/>
					<stop  offset="0.9326" style="stop-color:#BB8532"/>
				</linearGradient>
				<path style="fill:url(#SVGID_00000132788725938650665860000000267264168614849453_);" d="M572.3,242.7c-3.6-0.2-7,0-10.1,0.8
					c4-4.1,11.5-6.6,19.2-8.5c17.9-4.5,40.7-15,45.7-28.7c7.5-20.1-5.7-34.8-28-36.2c-19.5-1.2-36.9,6.6-42.2,22.6
					c-3.2,9.8,2.9,22.1,15.2,21.8c9.1-0.2,14.4-7.9,16.4-13.5c-5.3,4.7-13.3,1.4-14-5c-0.8-8.4,6-18.6,20.2-17.9
					c11.3,0.6,17.8,11.4,12.5,23.2c-3.6,8-16.2,17.2-31.4,23.7c-22.9,9.8-38.2,26-25.3,47.5c0,0,1.9-10.9,16.7-12
					c11.5-0.9,25.3,8.5,39.2,9.3c8,0.4,20.9-5,24.3-11.3C615.1,261.9,599.2,244.6,572.3,242.7z"/>
				<g>
					
						<linearGradient id="SVGID_00000018928694208786905550000001301356597056605881_" gradientUnits="userSpaceOnUse" x1="550.4774" y1="169.4492" x2="630.8801" y2="169.4492" gradientTransform="matrix(1 0 0 -1 0 430.9444)">
						<stop  offset="9.550000e-02" style="stop-color:#946338"/>
						<stop  offset="0.3015" style="stop-color:#BF8D45"/>
						<stop  offset="0.466" style="stop-color:#DBA84D"/>
						<stop  offset="0.5618" style="stop-color:#E5B250"/>
						<stop  offset="0.9326" style="stop-color:#946338"/>
					</linearGradient>
					<path style="fill:url(#SVGID_00000018928694208786905550000001301356597056605881_);" d="M608.4,261.8
						c-11.1-2.7-28-13.6-43.6-10.9c-12,2.1-15.3,14.9-14.1,21.5c0,0,1.9-10.9,16.7-12c11.5-0.9,25.3,8.5,39.2,9.3
						c8,0.4,20.9-5,24.3-11.3C624,262.5,617.8,264.2,608.4,261.8z"/>
					
						<linearGradient id="SVGID_00000023263410707353677320000007310340003549060264_" gradientUnits="userSpaceOnUse" x1="592.7444" y1="158.4662" x2="592.7444" y2="261.01" gradientTransform="matrix(1 0 0 -1 0 430.9444)">
						<stop  offset="9.550000e-02" style="stop-color:#946338"/>
						<stop  offset="0.3015" style="stop-color:#BF8D45"/>
						<stop  offset="0.466" style="stop-color:#DBA84D"/>
						<stop  offset="0.5618" style="stop-color:#E5B250"/>
						<stop  offset="0.9326" style="stop-color:#946338"/>
					</linearGradient>
					<path style="fill:url(#SVGID_00000023263410707353677320000007310340003549060264_);" d="M572.7,207.8
						c-8.8-2.1-8-13.1-4.5-19.7c3.5-6.6,11.8-14,26-14c14.3,0,29.8,8.2,24.6,27.2c-2.6,9.6-15,17.6-28.2,23.4
						c-13.3,5.8-27,13-28.5,18.6c4-4.1,11.5-6.6,19.2-8.5c17.9-4.5,40.7-15,45.7-28.7c7.5-20.1-5.7-34.8-28-36.2
						c-19.5-1.2-36.9,6.6-42.2,22.6c-3.2,9.8,2.9,22.1,15.2,21.8c9.1-0.2,14.4-7.9,16.4-13.5C585.7,204.9,580.7,209.7,572.7,207.8z"
						/>
				</g>
				<g>
					
						<linearGradient id="SVGID_00000062159473561011245570000004503956504780119984_" gradientUnits="userSpaceOnUse" x1="590.6323" y1="158.3605" x2="590.6323" y2="180.9976" gradientTransform="matrix(1 0 0 -1 0 430.9444)">
						<stop  offset="9.550000e-02" style="stop-color:#E5B250"/>
						<stop  offset="0.277" style="stop-color:#F1D272"/>
						<stop  offset="0.457" style="stop-color:#FBEC8E"/>
						<stop  offset="0.5618" style="stop-color:#FFF698"/>
						<stop  offset="0.9326" style="stop-color:#E5B250"/>
					</linearGradient>
					<path style="fill:url(#SVGID_00000062159473561011245570000004503956504780119984_);" d="M550.7,272.5c-0.4-2-0.4-4.1-0.1-6.1
						c0.3-2,0.8-4,1.7-5.9c0.8-1.9,2-3.6,3.4-5.2c0.7-0.8,1.5-1.4,2.3-2.1c0.8-0.6,1.8-1.1,2.7-1.6s2-0.8,3-1c1-0.2,2-0.4,3.1-0.5
						c2-0.2,4.1-0.2,6.2-0.1c4.1,0.3,8.1,1.3,12,2.5c3.9,1.2,7.7,2.8,11.4,4.3c3.8,1.5,7.5,3.1,11.3,4.3c3.9,1.1,7.9,1.7,11.9,1.2
						c2-0.2,4-0.7,5.8-1.4c1-0.3,1.9-0.8,2.8-1.2c0.5-0.2,0.9-0.5,1.4-0.7l1.3-0.7l-1.3,0.8c-0.4,0.2-0.9,0.5-1.3,0.8
						c-0.9,0.5-1.8,0.9-2.8,1.3c-1.9,0.8-3.9,1.4-5.9,1.7s-4.1,0.3-6.2,0.2c-2-0.2-4.1-0.6-6.1-1.1c-2-0.5-3.9-1.2-5.8-1.9
						c-1.9-0.7-3.8-1.5-5.7-2.2c-3.8-1.5-7.5-3-11.4-4.2c-3.8-1.2-7.8-2.2-11.8-2.5c-2-0.2-4-0.2-6,0c-1,0.1-2,0.2-3,0.4
						c-1,0.2-1.9,0.5-2.8,0.9c-0.9,0.4-1.8,0.9-2.6,1.4s-1.6,1.2-2.3,1.9c-1.4,1.4-2.5,3.1-3.4,4.9c-0.9,1.8-1.5,3.7-1.9,5.7
						c-0.2,1-0.3,2-0.3,3C550.5,270.5,550.6,271.5,550.7,272.5z"/>
					
						<linearGradient id="SVGID_00000110431146132073986520000004386389066567715717_" gradientUnits="userSpaceOnUse" x1="591.309" y1="187.3861" x2="591.309" y2="257.3981" gradientTransform="matrix(1 0 0 -1 0 430.9444)">
						<stop  offset="9.550000e-02" style="stop-color:#E5B250"/>
						<stop  offset="0.277" style="stop-color:#F1D272"/>
						<stop  offset="0.457" style="stop-color:#FBEC8E"/>
						<stop  offset="0.5618" style="stop-color:#FFF698"/>
						<stop  offset="0.9326" style="stop-color:#E5B250"/>
					</linearGradient>
					<path style="fill:url(#SVGID_00000110431146132073986520000004386389066567715717_);" d="M562.2,243.4c0.2-1,0.8-1.8,1.4-2.6
						s1.3-1.5,2-2.2c0.7-0.7,1.5-1.3,2.3-1.9c0.8-0.6,1.6-1.2,2.4-1.7c3.3-2.2,6.8-4.1,10.2-5.9c3.5-1.8,7.1-3.4,10.7-5.1
						c3.6-1.6,7.1-3.4,10.4-5.4s6.6-4.3,9.5-6.9c1.4-1.3,2.8-2.7,3.9-4.3c0.6-0.8,1.1-1.6,1.6-2.4c0.5-0.8,0.9-1.7,1.2-2.6
						c0.2-0.4,0.3-0.9,0.4-1.4l0.3-1.4c0.1-0.2,0.1-0.5,0.2-0.7l0.1-0.7c0.1-0.5,0.2-0.9,0.2-1.4c0.2-1.9,0.2-3.9-0.1-5.7
						c-0.3-1.9-0.9-3.7-1.8-5.4c-0.9-1.7-2.1-3.2-3.5-4.5c-0.3-0.3-0.7-0.6-1.1-0.9c-0.4-0.3-0.8-0.6-1.2-0.9
						c-0.4-0.3-0.8-0.5-1.2-0.8c-0.4-0.2-0.8-0.5-1.3-0.7c-1.7-0.9-3.5-1.6-5.4-2.1s-3.8-0.9-5.7-1.1c-1-0.1-1.9-0.2-2.9-0.2l-0.7,0
						c-0.2,0-0.5,0-0.7,0l-1.5,0c-0.5,0-1,0.1-1.5,0.1l-1.5,0.1l-1.4,0.2l-0.7,0.1c-0.2,0-0.5,0.1-0.7,0.2l-1.4,0.3
						c-0.5,0.1-0.9,0.3-1.4,0.4l-0.7,0.2c-0.2,0.1-0.5,0.2-0.7,0.3l-1.3,0.5c-1.8,0.8-3.5,1.8-5,2.9c-1.6,1.1-3,2.4-4.3,3.9
						s-2.4,3.1-3.3,4.8c-0.9,1.7-1.5,3.6-1.9,5.5c-0.4,1.9-0.5,3.9-0.2,5.8c0.3,1.9,1,3.8,2.3,5.1c1.3,1.4,3.1,2.2,5,2.6
						c1.9,0.4,3.9,0.4,5.8-0.1c1.9-0.5,3.7-1.4,5.2-2.6c0.8-0.6,1.5-1.3,2.2-1.9c0.7-0.7,1.3-1.4,1.9-2.2c-0.6,0.8-1.2,1.6-1.9,2.3
						c-0.7,0.7-1.4,1.4-2.2,2c-1.5,1.2-3.3,2.2-5.2,2.7c-1.9,0.5-4,0.5-5.9,0.2c-2-0.3-3.9-1.1-5.4-2.6c-0.7-0.7-1.3-1.6-1.7-2.5
						c-0.4-0.9-0.7-1.9-0.8-2.9c-0.3-2-0.2-4,0.1-6s1-3.9,1.8-5.7c0.9-1.8,2-3.5,3.3-5s2.8-2.9,4.4-4.1c1.6-1.2,3.4-2.2,5.2-3
						l1.4-0.6c0.2-0.1,0.5-0.2,0.7-0.3l0.7-0.2c0.5-0.1,1-0.3,1.4-0.4l1.5-0.4c0.2-0.1,0.5-0.1,0.7-0.2l0.7-0.1l1.5-0.2l1.5-0.1
						c0.5-0.1,1-0.1,1.5-0.1l1.5-0.1c0.2,0,0.5,0,0.8,0l0.8,0c1,0,2,0.1,3,0.2c2,0.2,4,0.6,5.9,1.1s3.8,1.2,5.6,2.2
						c0.5,0.2,0.9,0.5,1.3,0.7s0.8,0.5,1.3,0.8c0.4,0.3,0.8,0.6,1.2,0.9l0.6,0.5c0.2,0.2,0.4,0.3,0.6,0.5c1.5,1.4,2.8,3,3.7,4.8
						c1,1.8,1.6,3.8,1.9,5.8s0.3,4,0.1,6c-0.1,0.5-0.1,1-0.2,1.5l-0.1,0.7c0,0.2-0.1,0.5-0.2,0.7l-0.4,1.5c-0.2,0.5-0.3,1-0.5,1.4
						c-0.4,0.9-0.8,1.9-1.3,2.7c-0.5,0.9-1.1,1.7-1.7,2.5c-1.2,1.6-2.6,3-4.1,4.4c-1.5,1.3-3,2.6-4.7,3.7s-3.3,2.2-5,3.2
						c-3.4,2-7,3.7-10.6,5.3c-3.6,1.6-7.2,3.2-10.7,4.9c-3.5,1.7-7,3.5-10.3,5.6c-0.8,0.5-1.7,1.1-2.4,1.6c-0.8,0.6-1.6,1.2-2.3,1.8
						c-0.7,0.6-1.5,1.3-2.1,2.1C563,241.6,562.5,242.5,562.2,243.4z"/>
				</g>
			</g>
		</g>
		<g>
			
				<linearGradient id="SVGID_00000080915568977809387140000004851093771325154485_" gradientUnits="userSpaceOnUse" x1="1229.8649" y1="328.1706" x2="1378.8468" y2="305.9285" gradientTransform="matrix(0.989 -0.1477 -0.1477 -0.989 -615.9852 739.7628)">
				<stop  offset="9.550000e-02" style="stop-color:#E5B250"/>
				<stop  offset="0.277" style="stop-color:#F1D272"/>
				<stop  offset="0.457" style="stop-color:#FBEC8E"/>
				<stop  offset="0.5618" style="stop-color:#FFF698"/>
				<stop  offset="0.9326" style="stop-color:#E5B250"/>
			</linearGradient>
			<path style="fill:url(#SVGID_00000080915568977809387140000004851093771325154485_);" d="M551.9,226.1c16.1-4.7,34.4-2.1,56,16.1
				c34.4,28.8,70.7,26.2,87.2,6.4c10.9-13.2,9.3-34.1-1.4-45.2c8,11.6,5.5,29-6.3,39.5c-21.6,19.4-48.9,11.7-74.2-8.6
				C595.9,220.4,574.3,214.8,551.9,226.1z"/>
			<g>
				
					<linearGradient id="SVGID_00000033329697273220695830000005091748538182012547_" gradientUnits="userSpaceOnUse" x1="625.7258" y1="173.6657" x2="625.7258" y2="227.5044" gradientTransform="matrix(1 0 0 -1 0 430.9444)">
					<stop  offset="9.550000e-02" style="stop-color:#946338"/>
					<stop  offset="0.3015" style="stop-color:#BF8D45"/>
					<stop  offset="0.466" style="stop-color:#DBA84D"/>
					<stop  offset="0.5618" style="stop-color:#E5B250"/>
					<stop  offset="0.9326" style="stop-color:#946338"/>
				</linearGradient>
				<path style="fill:url(#SVGID_00000033329697273220695830000005091748538182012547_);" d="M551.9,226.1
					c22.4-11.3,44-5.7,61.3,8.2c25.3,20.4,52.6,28,74.2,8.6c11.8-10.6,14.3-27.9,6.3-39.5c8.9,11.5,7.8,30-3.7,41.4
					c-19.8,19.6-50.2,15.3-78.5-7.9C592.7,221.6,572.2,217,551.9,226.1z"/>
			</g>
		</g>
	</g>
	<g>
		
			<linearGradient id="SVGID_00000137100572491313707690000004456600485051001524_" gradientUnits="userSpaceOnUse" x1="704.5225" y1="210.7044" x2="771.4209" y2="210.7044" gradientTransform="matrix(1 0 0 -1 0 430.9444)">
			<stop  offset="9.550000e-02" style="stop-color:#CE8A2D"/>
			<stop  offset="9.809999e-02" style="stop-color:#CE8B2E"/>
			<stop  offset="0.3064" style="stop-color:#E2B65A"/>
			<stop  offset="0.4678" style="stop-color:#EED176"/>
			<stop  offset="0.5618" style="stop-color:#F3DB80"/>
			<stop  offset="0.9326" style="stop-color:#BB8532"/>
		</linearGradient>
		<path style="fill:url(#SVGID_00000137100572491313707690000004456600485051001524_);" d="M742.2,190.8
			c-18.3-0.9-35.1,11.6-37.4,27.9c-2.3,16.3,10.9,30.2,29.3,31.1s34.8-11.6,37.1-27.9C773.5,205.6,760.5,191.7,742.2,190.8z
			 M752.6,220.2c-1.8,11.9-9.5,21.6-17.5,21.6s-13.4-9.7-11.7-21.6s9.8-21.6,17.8-21.6C749.2,198.6,754.3,208.3,752.6,220.2z"/>
		
			<linearGradient id="SVGID_00000088819388792679934880000006555734324547016870_" gradientUnits="userSpaceOnUse" x1="737.9758" y1="185.0958" x2="737.9758" y2="236.323" gradientTransform="matrix(1 0 0 -1 0 430.9444)">
			<stop  offset="9.550000e-02" style="stop-color:#946338"/>
			<stop  offset="0.3015" style="stop-color:#BF8D45"/>
			<stop  offset="0.466" style="stop-color:#DBA84D"/>
			<stop  offset="0.5618" style="stop-color:#E5B250"/>
			<stop  offset="0.9326" style="stop-color:#946338"/>
		</linearGradient>
		<path style="fill:url(#SVGID_00000088819388792679934880000006555734324547016870_);" d="M741,194.7
			c-13.2-0.8-25.2,10.1-26.9,24.2c-1.7,14.1,7.9,26.2,21,27c13.2,0.8,25-10.1,26.7-24.2C763.5,207.5,754.2,195.4,741,194.7z
			 M752.6,220.2c-1.8,11.9-9.5,21.6-17.5,21.6s-13.4-9.7-11.7-21.6s9.8-21.6,17.8-21.6C749.2,198.6,754.3,208.3,752.6,220.2z"/>
		<g>
			
				<linearGradient id="SVGID_00000155137626767173509160000004557768200076921011_" gradientUnits="userSpaceOnUse" x1="751.55" y1="185.5374" x2="747.9832" y2="236.5449" gradientTransform="matrix(1 0 0 -1 0 430.9444)">
				<stop  offset="9.550000e-02" style="stop-color:#E5B250"/>
				<stop  offset="0.277" style="stop-color:#F1D272"/>
				<stop  offset="0.457" style="stop-color:#FBEC8E"/>
				<stop  offset="0.5618" style="stop-color:#FFF698"/>
				<stop  offset="0.9326" style="stop-color:#E5B250"/>
			</linearGradient>
			<path style="fill:url(#SVGID_00000155137626767173509160000004557768200076921011_);" d="M744.6,195.2c2.9,0.5,5.7,1.7,8.1,3.4
				c2.4,1.7,4.5,3.9,6.1,6.5c1.6,2.5,2.7,5.4,3.2,8.4c0.6,3,0.6,6,0.2,9c-0.4,3-1.3,5.9-2.7,8.6c-1.3,2.7-3.1,5.2-5.2,7.3
				c-2.1,2.1-4.6,3.9-7.2,5.2c-2.7,1.3-5.6,2.1-8.6,2.2l1.1-0.2l1.1-0.2l1.1-0.3l1-0.3c1.4-0.4,2.7-1,4-1.7c2.6-1.4,4.9-3.2,6.9-5.3
				c4-4.2,6.6-9.7,7.4-15.4c0.9-5.7-0.1-11.7-3-16.7c-1.5-2.5-3.4-4.7-5.7-6.5c-1.2-0.9-2.4-1.7-3.7-2.3c-0.3-0.2-0.7-0.3-1-0.5
				c-0.3-0.1-0.7-0.3-1-0.4c-0.3-0.1-0.7-0.2-1-0.4L744.6,195.2z"/>
			
				<linearGradient id="SVGID_00000127731909284881739800000004884793242331362216_" gradientUnits="userSpaceOnUse" x1="727.2849" y1="184.6664" x2="723.7153" y2="235.7137" gradientTransform="matrix(1 0 0 -1 0 430.9444)">
				<stop  offset="9.550000e-02" style="stop-color:#E5B250"/>
				<stop  offset="0.277" style="stop-color:#F1D272"/>
				<stop  offset="0.457" style="stop-color:#FBEC8E"/>
				<stop  offset="0.5618" style="stop-color:#FFF698"/>
				<stop  offset="0.9326" style="stop-color:#E5B250"/>
			</linearGradient>
			<path style="fill:url(#SVGID_00000127731909284881739800000004884793242331362216_);" d="M736,194.9l-1.1,0.2
				c-0.3,0.1-0.7,0.2-1,0.3c-0.3,0.1-0.7,0.2-1,0.3c-0.3,0.1-0.7,0.2-1,0.4c-1.3,0.5-2.6,1.2-3.9,1.9c-2.5,1.5-4.7,3.4-6.5,5.6
				c-3.8,4.3-6.1,9.8-6.7,15.5c-0.7,5.7,0.6,11.6,3.7,16.4c1.5,2.4,3.5,4.5,5.9,6.2c1.2,0.9,2.4,1.6,3.7,2.2l1,0.4l1,0.4l1,0.3
				l1,0.3c-2.9-0.4-5.7-1.6-8.1-3.2c-2.5-1.6-4.6-3.7-6.3-6.2c-1.7-2.4-2.9-5.2-3.5-8.1c-0.7-2.9-0.8-5.9-0.5-8.9
				c0.3-2.9,1.1-5.9,2.3-8.6c1.2-2.7,2.9-5.2,4.9-7.4c2-2.2,4.3-4.1,6.9-5.5c1.3-0.7,2.7-1.3,4-1.8c0.3-0.1,0.7-0.2,1-0.3
				c0.3-0.1,0.7-0.2,1.1-0.3c0.4-0.1,0.7-0.1,1.1-0.2L736,194.9z"/>
		</g>
	</g>
</g>
</svg>
